SplineFontDB: 3.0
FontName: LinBiolinumOKb
FullName: Linux Biolinum Keyboard O
FamilyName: Linux Biolinum Keyboard O
Weight: Regular
Copyright: Linux Libertine by Philipp H. Poll,\nOpen Font under Terms of following Free Software Licenses:\nGPL (General Public License) with font-exception and OFL (Open Font License).\nCreated with FontForge (http://fontforge.sf.net)\nSept 2003, 2004, 2005, 2006, 2007, 2008, 2009, 2010
UComments: "2003-08-29: Created.+AAoA-2004-07-25: v(1.0) release candidate+AAoA-2005-12-28: v(1.1.0) stable+AAoA-2006-01-01: v(2.0.0) stable+AAoA-2006-09-05: v(2.2.0) stable+AAoA-2006-12-04: v(2.3.0) stable+AAoA-2007-03-11: v(2.4.0) stable+AAoA-2007-12-00: v(2.7.0) stable+AAoA-2008-06-00: v(2.8.14) stable+AAoA" 
Version: 0.5.0
ItalicAngle: 0
UnderlinePosition: -98
UnderlineWidth: 40
Ascent: 754
Descent: 246
LayerCount: 3
Layer: 0 0 "Back"  1
Layer: 1 0 "Fore"  0
Layer: 2 0 "Frame"  0
NeedsXUIDChange: 1
XUID: [1021 993 1524925707 2876416]
FSType: 0
OS2Version: 0
OS2_WeightWidthSlopeOnly: 0
OS2_UseTypoMetrics: 0
CreationTime: 1156455862
ModificationTime: 1263084459
PfmFamily: 17
TTFWeight: 700
TTFWidth: 5
LineGap: 0
VLineGap: 0
OS2TypoAscent: 894
OS2TypoAOffset: 0
OS2TypoDescent: -246
OS2TypoDOffset: 0
OS2TypoLinegap: 0
OS2WinAscent: 894
OS2WinAOffset: 0
OS2WinDescent: 246
OS2WinDOffset: 0
HheadAscent: 894
HheadAOffset: 0
HheadDescent: -246
HheadDOffset: 0
OS2FamilyClass: 261
OS2Vendor: 'PfEd'
Lookup: 3 0 0 "'aalt' Alle Alternativen zeigen"  {"'aalt' Alle Alternativen zeigen 1"  } ['aalt' ('DFLT' <'dflt' > 'cyrl' <'dflt' > 'grek' <'dflt' > 'latn' <'AZE ' 'CRT ' 'DEU ' 'MOL ' 'ROM ' 'TRK ' 'dflt' > ) ]
Lookup: 1 0 0 "'locl' Localized Forms Romaenisch"  {"'locl' Localized Forms Romaenisch 1"  } ['locl' ('latn' <'MOL ' 'ROM ' > ) ]
Lookup: 1 0 0 "'smcp' Gemeine nach Kapitaelchen i > i.sc"  {"'smcp' Gemeine nach Kapitaelchen i > i.sc 1"  } ['smcp' ('DFLT' <'dflt' > 'cyrl' <'dflt' > 'grek' <'dflt' > 'latn' <'DEU ' 'MOL ' 'ROM ' 'dflt' > ) ]

StartChar: exclam
Encoding: 33 33 0
Width: 1100
VWidth: 999
Flags: HW
HStem: 73 92<516 574> 559 15G<534 554>
VStem: 498 91<411 562> 498 93<88 147>
LayerCount: 3
Fore
SplineSet
542 534 m 0
 564 534 588 517 588 480 c 0
 588 431 575 399 567 335 c 0
 556 254 555 209 554 198 c 0
 553 190 550 183 542 183 c 0
 533 183 531 189 531 193 c 0
 529 209 525 276 518 335 c 0
 510 401 497 427 497 480 c 0
 497 520 524 534 542 534 c 0
493 80 m 1
 493 83 l 1
 502 105 514 118 539 128 c 1
 541 128 l 1
 565 119 578 107 587 83 c 1
 587 80 l 1
 577 53 565 41 541 35 c 1
 539 35 l 1
 512 41 501 53 493 80 c 1
249 718 m 2
 189 718 156 685 156 625 c 2
 156 -53 l 2
 156 -113 189 -136 249 -136 c 2
 821 -136 l 2
 881 -136 904 -113 904 -53 c 2
 904 625 l 2
 904 685 881 718 821 718 c 2
 249 718 l 2
1000 -84 m 2
 1000 -174 971 -212 881 -212 c 2
 249 -212 l 2
 159 -212 120 -174 120 -84 c 2
 120 625 l 2
 120 708 168 754 249 754 c 2
 851 754 l 2
 941 754 1000 715 1000 625 c 2
 1000 -84 l 2
EndSplineSet
Colour: ff80cc
EndChar

StartChar: quotedbl
Encoding: 34 34 1
Width: 1100
VWidth: 999
Flags: HW
HStem: 449 167<475 499 486 499> 450 167<570 594 580 594>
LayerCount: 3
Fore
SplineSet
562 400 m 1
 551 403 l 1
 551 403 527 523 527 527 c 0
 527 545 543 568 576 568 c 0
 607 568 609 554 609 540 c 0
 609 529 582 405 582 405 c 1
 562 400 l 1
468 399 m 1
 457 402 l 1
 457 402 433 522 433 526 c 0
 433 544 449 567 482 567 c 0
 513 567 515 553 515 539 c 0
 515 528 488 404 488 404 c 1
 468 399 l 1
249 718 m 2
 189 718 156 685 156 625 c 2
 156 -53 l 2
 156 -113 189 -136 249 -136 c 2
 821 -136 l 2
 881 -136 904 -113 904 -53 c 2
 904 625 l 2
 904 685 881 718 821 718 c 2
 249 718 l 2
1000 -84 m 2
 1000 -174 971 -212 881 -212 c 2
 249 -212 l 2
 159 -212 120 -174 120 -84 c 2
 120 625 l 2
 120 708 168 754 249 754 c 2
 851 754 l 2
 941 754 1000 715 1000 625 c 2
 1000 -84 l 2
EndSplineSet
Colour: ff00ff
EndChar

StartChar: numbersign
Encoding: 35 35 2
Width: 1100
Flags: HW
HStem: 208 42<386 446 506 554 611 678> 324 42<405 465 524 572 630 696>
DStem2: 427 82 480 82 0.157407 0.987534<8.30078 127.519 178.504 246.489 297.475 416.331> 534 82 584 82 0.155692 0.987806<7.92518 127.52 178.072 246.491 297.043 416.276>
LayerCount: 3
Fore
SplineSet
560 230 m 1
 572 304 l 1
 519 304 l 1
 515 278 511 256 506 230 c 1
 560 230 l 1
623 304 m 1
 611 230 l 1
 684 230 l 1
 678 188 l 1
 605 188 l 1
 598 146 591 102 584 62 c 1
 534 62 l 1
 554 188 l 1
 500 188 l 1
 493 146 487 102 480 62 c 1
 427 62 l 1
 446 188 l 1
 380 188 l 1
 386 230 l 1
 453 230 l 1
 458 256 462 278 465 304 c 1
 398 304 l 1
 405 347 l 1
 472 347 l 1
 479 388 486 432 492 472 c 1
 546 472 l 1
 524 347 l 1
 578 347 l 1
 585 388 591 432 598 472 c 1
 649 472 l 1
 630 347 l 1
 702 347 l 1
 696 304 l 1
 623 304 l 1
249 718 m 2
 189 718 156 685 156 625 c 2
 156 -53 l 2
 156 -113 189 -136 249 -136 c 2
 821 -136 l 2
 881 -136 904 -113 904 -53 c 2
 904 625 l 2
 904 685 881 718 821 718 c 2
 249 718 l 2
1000 -84 m 2
 1000 -174 971 -212 881 -212 c 2
 249 -212 l 2
 159 -212 120 -174 120 -84 c 2
 120 625 l 2
 120 708 168 754 249 754 c 2
 851 754 l 2
 941 754 1000 715 1000 625 c 2
 1000 -84 l 2
EndSplineSet
EndChar

StartChar: dollar
Encoding: 36 36 3
Width: 1100
VWidth: 999
Flags: HW
HStem: 61 35<464 592> 464 33<494 611>
VStem: 397 78<358 437> 530 33<8 538> 615 84<134 220>
LayerCount: 3
Fore
SplineSet
249 718 m 2
 189 718 156 685 156 625 c 2
 156 -53 l 2
 156 -113 189 -136 249 -136 c 2
 821 -136 l 2
 881 -136 904 -113 904 -53 c 2
 904 625 l 2
 904 685 881 718 821 718 c 2
 249 718 l 2
1000 -84 m 2
 1000 -174 971 -212 881 -212 c 2
 249 -212 l 2
 159 -212 120 -174 120 -84 c 2
 120 625 l 2
 120 708 168 754 249 754 c 2
 851 754 l 2
 941 754 1000 715 1000 625 c 2
 1000 -84 l 2
530 83.1 m 1
 530 246 l 1
 472.2 269.4 397 304.1 397 372 c 0
 397 440.3 466.5 476.3 530 482.9 c 1
 530 525 l 1
 562 525 l 1
 562 483.8 l 1
 634.8 481.3 672 455 672 455 c 1
 674 453 l 1
 668 433 663 399 661 375 c 1
 654 375 l 1
 638.2 410.1 602.3 442.2 562 449.5 c 1
 562 302.5 l 1
 617.2 282.3 699 249.9 699 177 c 0
 699 109.3 635.6 61.9 562 50.6 c 1
 562 -5 l 1
 530 -5 l 1
 530 48 l 2
 529.3 48 528.7 48 528 48 c 0
 454 48 394 78 394 78 c 1
 393 80 l 1
 398 99 404 135 406 159 c 1
 412 159 l 1
 430.4 120.2 486.5 85.2 530 83.1 c 1
530 315.2 m 1
 530 450 l 1
 495.8 445.3 475 424.1 475 389 c 0
 475 348.9 503.8 327.6 530 315.2 c 1
562 233 m 1
 562 85.9 l 1
 593.5 93 615 113.8 615 153 c 0
 615 202.4 593.2 219.2 562 233 c 1
EndSplineSet
EndChar

StartChar: percent
Encoding: 37 37 4
Width: 1100
VWidth: 999
Flags: HW
HStem: 54 25<645 690> 229 27<670 719> 292 25<403 446> 424 34<515 647> 466 27<427 479>
VStem: 344 52<321 431> 484 32<360 440> 585 51<85 190> 726 32<120 225>
DStem2: 376 66 417 57 0.588938 0.808178<16.5784 465.337 488.288 531.946>
LayerCount: 3
Fore
SplineSet
636 106 m 0
 636 77 648 59 662 59 c 0
 701 59 726 125 726 166 c 0
 726 206 707 209 696 209 c 0
 664 209 636 149 636 106 c 0
585 117 m 0
 585 177 621 236 688 236 c 0
 724 236 757 222 757 168 c 0
 757 94 717 34 657 34 c 0
 611 34 585 68 585 117 c 0
577 438 m 0
 609 438 659 442 690 476 c 1
 725 460 l 1
 417 37 l 1
 376 46 l 1
 651 422 l 1
 621 410 592 404 570 404 c 0
 552 404 528 412 514 420 c 1
 516 414 516 410 516 404 c 0
 516 341 477 272 412 272 c 0
 366 272 344 303 344 353 c 0
 344 417 385 472 447 472 c 0
 468 472 489 466 497 457 c 1
 537 438 564 438 577 438 c 0
396 343 m 0
 396 314 407 296 420 296 c 0
 455 296 484 360 484 404 c 0
 484 440 468 446 455 446 c 0
 418 446 396 386 396 343 c 0
249 718 m 2
 189 718 156 685 156 625 c 2
 156 -53 l 2
 156 -113 189 -136 249 -136 c 2
 821 -136 l 2
 881 -136 904 -113 904 -53 c 2
 904 625 l 2
 904 685 881 718 821 718 c 2
 249 718 l 2
1000 -84 m 2
 1000 -174 971 -212 881 -212 c 2
 249 -212 l 2
 159 -212 120 -174 120 -84 c 2
 120 625 l 2
 120 708 168 754 249 754 c 2
 851 754 l 2
 941 754 1000 715 1000 625 c 2
 1000 -84 l 2
EndSplineSet
EndChar

StartChar: parenleft
Encoding: 40 40 5
Width: 1100
VWidth: 999
Flags: HW
VStem: 437 91<152 353>
LayerCount: 3
Fore
SplineSet
437 252 m 0
 437 379 521 517 610 593 c 1
 634 572 l 1
 610 545 528 449 528 252 c 0
 528 55 609 -41 634 -70 c 1
 610 -90 l 1
 467 33 437 186 437 252 c 0
249 718 m 2
 189 718 156 685 156 625 c 2
 156 -53 l 2
 156 -113 189 -136 249 -136 c 2
 821 -136 l 2
 881 -136 904 -113 904 -53 c 2
 904 625 l 2
 904 685 881 718 821 718 c 2
 249 718 l 2
1000 -84 m 2
 1000 -174 971 -212 881 -212 c 2
 249 -212 l 2
 159 -212 120 -174 120 -84 c 2
 120 625 l 2
 120 708 168 754 249 754 c 2
 851 754 l 2
 941 754 1000 715 1000 625 c 2
 1000 -84 l 2
EndSplineSet
Substitution2: "'c2sc' Versale nach Kapitaelchen 1" parenleft.sc
AlternateSubs2: "'aalt' Alle Alternativen zeigen 1" parenleft.sc
Substitution2: "'sinf' Wissenschaftliche Indices 1" parenleft.inferior
Substitution2: "'sups' Hochgestellte 1" parenleft.superior
Substitution2: "'case' Versalformen 1" parenleft.sc
EndChar

StartChar: parenright
Encoding: 41 41 6
Width: 1100
VWidth: 999
Flags: HW
VStem: 572 91<152 353>
LayerCount: 3
Fore
SplineSet
663 252 m 0
 663 186 633 33 490 -90 c 1
 466 -70 l 1
 491 -41 572 55 572 252 c 0
 572 449 490 545 466 572 c 1
 490 593 l 1
 579 517 663 379 663 252 c 0
249 718 m 2
 189 718 156 685 156 625 c 2
 156 -53 l 2
 156 -113 189 -136 249 -136 c 2
 821 -136 l 2
 881 -136 904 -113 904 -53 c 2
 904 625 l 2
 904 685 881 718 821 718 c 2
 249 718 l 2
1000 -84 m 2
 1000 -174 971 -212 881 -212 c 2
 249 -212 l 2
 159 -212 120 -174 120 -84 c 2
 120 625 l 2
 120 708 168 754 249 754 c 2
 851 754 l 2
 941 754 1000 715 1000 625 c 2
 1000 -84 l 2
EndSplineSet
Substitution2: "'c2sc' Versale nach Kapitaelchen 1" parenright.sc
AlternateSubs2: "'aalt' Alle Alternativen zeigen 1" parenright.sc
Substitution2: "'sinf' Wissenschaftliche Indices 1" parenright.inferior
Substitution2: "'sups' Hochgestellte 1" parenright.superior
Substitution2: "'case' Versalformen 1" parenright.sc
Colour: ff00ff
EndChar

StartChar: asterisk
Encoding: 42 42 7
Width: 1100
VWidth: 999
Flags: HMW
HStem: 574 52<482 531 619 675>
VStem: 543 58<613 681>
LayerCount: 3
Fore
SplineSet
521 441 m 1
 512 442 502 445.9 491 444 c 0
 457 438 430 438 430 472 c 0
 430 483 437 496 455 496 c 0
 480 496 493 471 526 457 c 1
 523 487 503 506 503 525 c 0
 503 541 518 555 532 555 c 0
 545 555 562 546 562 528 c 0
 562 508 545 480 543 457 c 1
 577 471 585 498 610 498 c 0
 633 498 639 480 639 472 c 0
 639 450 614 442 587 442 c 0
 573 442 560 442 547 440 c 1
 572 413 611 414 611 376 c 0
 611 363 597 354 587 354 c 0
 550 354 552 401 533 430 c 1
 515 396 525 354 481 354 c 0
 468 354 459 364 459 375 c 0
 459 416 497 412 521 441 c 1
249 718 m 2
 189 718 156 685 156 625 c 2
 156 -53 l 2
 156 -113 189 -136 249 -136 c 2
 821 -136 l 2
 881 -136 904 -113 904 -53 c 2
 904 625 l 2
 904 685 881 718 821 718 c 2
 249 718 l 2
1000 -84 m 2
 1000 -174 971 -212 881 -212 c 2
 249 -212 l 2
 159 -212 120 -174 120 -84 c 2
 120 625 l 2
 120 708 168 754 249 754 c 2
 851 754 l 2
 941 754 1000 715 1000 625 c 2
 1000 -84 l 2
EndSplineSet
EndChar

StartChar: plus
Encoding: 43 43 8
Width: 1100
Flags: HW
HStem: -212 76<179.2 885.174> 204 56<385 513 569 697> 718 36<188.821 875.472>
VStem: 120 36<-107.953 686.051> 513 56<82 204 260 383> 904 96<-118.923 694.8>
LayerCount: 3
Fore
SplineSet
569 260 m 1
 697 260 l 1
 697 204 l 1
 569 204 l 1
 569 82 l 1
 513 82 l 1
 513 204 l 1
 385 204 l 1
 385 260 l 1
 513 260 l 1
 513 383 l 1
 569 383 l 1
 569 260 l 1
249 718 m 2
 189 718 156 685 156 625 c 2
 156 -53 l 2
 156 -113 189 -136 249 -136 c 2
 821 -136 l 2
 881 -136 904 -113 904 -53 c 2
 904 625 l 2
 904 685 881 718 821 718 c 2
 249 718 l 2
1000 -84 m 2
 1000 -174 971 -212 881 -212 c 2
 249 -212 l 2
 159 -212 120 -174 120 -84 c 2
 120 625 l 2
 120 708 168 754 249 754 c 2
 851 754 l 2
 941 754 1000 715 1000 625 c 2
 1000 -84 l 2
EndSplineSet
AlternateSubs2: "'aalt' Alle Alternativen zeigen 1" plus.superior plus.inferior uni2098
Substitution2: "'sinf' Wissenschaftliche Indices 1" plus.inferior
Substitution2: "'sups' Hochgestellte 1" plus.superior
EndChar

StartChar: slash
Encoding: 47 47 9
Width: 1100
VWidth: 999
Flags: HW
HStem: 543 15G<595 645>
VStem: 422 223
DStem2: 422 29 467 29 0.318647 0.947874<14.3391 557.828>
LayerCount: 3
Fore
SplineSet
645 558 m 1
 467 29 l 1
 422 29 l 1
 600 558 l 1
 645 558 l 1
249 718 m 2
 189 718 156 685 156 625 c 2
 156 -53 l 2
 156 -113 189 -136 249 -136 c 2
 821 -136 l 2
 881 -136 904 -113 904 -53 c 2
 904 625 l 2
 904 685 881 718 821 718 c 2
 249 718 l 2
1000 -84 m 2
 1000 -174 971 -212 881 -212 c 2
 249 -212 l 2
 159 -212 120 -174 120 -84 c 2
 120 625 l 2
 120 708 168 754 249 754 c 2
 851 754 l 2
 941 754 1000 715 1000 625 c 2
 1000 -84 l 2
EndSplineSet
Ligature2: "'frac' Brueche 1" uni2215
AlternateSubs2: "'aalt' Alle Alternativen zeigen 1" uni2215
EndChar

StartChar: one
Encoding: 49 49 10
Width: 1100
VWidth: 999
Flags: HW
HStem: 70 16G<201 252 252 303> 403 16G<125 148> 490 15G<277 299>
VStem: 209 86<74 422>
LayerCount: 3
Fore
SplineSet
585 176 m 2
 585 120 587 85 593 42 c 1
 592 40 l 1
 592 40 568 42 542 42 c 0
 516 42 492 40 492 40 c 1
 491 42 l 1
 498 82 499 121 499 176 c 2
 499 349 l 2
 499 374 498 392 486 392 c 0
 472 392 455 388 421 373 c 1
 410 400 l 1
 476 431 547 450 588 475 c 1
 591 475 593 475 593 472 c 0
 591 462 585 433 585 356 c 2
 585 176 l 2
249 718 m 2
 189 718 156 685 156 625 c 2
 156 -53 l 2
 156 -113 189 -136 249 -136 c 2
 821 -136 l 2
 881 -136 904 -113 904 -53 c 2
 904 625 l 2
 904 685 881 718 821 718 c 2
 249 718 l 2
1000 -84 m 2
 1000 -174 971 -212 881 -212 c 2
 249 -212 l 2
 159 -212 120 -174 120 -84 c 2
 120 625 l 2
 120 708 168 754 249 754 c 2
 851 754 l 2
 941 754 1000 715 1000 625 c 2
 1000 -84 l 2
EndSplineSet
AlternateSubs2: "'aalt' Alle Alternativen zeigen 1" one.oldstyle one.superior one.fitted
Substitution2: "'sups' Hochgestellte 1" one.superior
Substitution2: "'sinf' Wissenschaftliche Indices 1" one.inferior
Substitution2: "'pnum' Proportionalziffern 1" one.fitted
Substitution2: "'onum' Minuskelziffern 1" one.taboldstyle
EndChar

StartChar: two
Encoding: 50 50 11
Width: 1100
VWidth: 487
Flags: HW
HStem: 72 52<203 397> 472 34<186 291>
VStem: 120 58<392 448> 310 92<336 452>
DStem2: 198 217 259 204 0.718358 0.695673<-55.7301 156.444>
LayerCount: 3
Fore
SplineSet
537 44 m 0
 483 44 443 42 383 41 c 1
 382 44 l 1
 382 86 388 118 458 189 c 2
 510 241 l 2
 552 284 570 320 570 366 c 0
 570 434 533 444 507 444 c 0
 456 444 438 427 438 409 c 0
 438 403 440 397 442 392 c 0
 444 386 445 381 445 375 c 0
 445 356 426 348 413 348 c 0
 395 348 380 361 380 376 c 0
 380 419 433 477 512 477 c 0
 598 477 661 446 661 369 c 0
 661 315 630 284 590 245 c 2
 519 176 l 2
 515 172 463 130 463 96 c 1
 529 96 l 2
 600 96 620 99 661 102 c 1
 659 93 657 84 657 74 c 0
 657 66 659 50 661 41 c 1
 608 43 591 44 537 44 c 0
249 718 m 2
 189 718 156 685 156 625 c 2
 156 -53 l 2
 156 -113 189 -136 249 -136 c 2
 821 -136 l 2
 881 -136 904 -113 904 -53 c 2
 904 625 l 2
 904 685 881 718 821 718 c 2
 249 718 l 2
1000 -84 m 2
 1000 -174 971 -212 881 -212 c 2
 249 -212 l 2
 159 -212 120 -174 120 -84 c 2
 120 625 l 2
 120 708 168 754 249 754 c 2
 851 754 l 2
 941 754 1000 715 1000 625 c 2
 1000 -84 l 2
EndSplineSet
AlternateSubs2: "'aalt' Alle Alternativen zeigen 1" two.oldstyle two.superior two.fitted
Substitution2: "'sups' Hochgestellte 1" two.superior
Substitution2: "'sinf' Wissenschaftliche Indices 1" two.inferior
Substitution2: "'pnum' Proportionalziffern 1" two.fitted
Substitution2: "'onum' Minuskelziffern 1" two.taboldstyle
EndChar

StartChar: three
Encoding: 51 51 12
Width: 1100
VWidth: 487
Flags: HW
HStem: 64 34<184 278> 288 29<209 233> 471 34<194 278>
VStem: 128 55<392 454> 286 83<379 463> 311 90<148 270>
LayerCount: 3
Fore
SplineSet
504 443 m 0
 483 443 443 438 443 397 c 0
 443 384 435 360 413 360 c 0
 391 360 388 382 388 384 c 0
 388 408 415 476 519 476 c 0
 549 476 579 471 594 462 c 0
 619 447 630 422 630 401 c 0
 630 372 615 337 562 302 c 1
 604 295 661 264 661 186 c 0
 661 87 570 36 486 36 c 0
 443 36 380 50 380 81 c 0
 380 94 395 108 411 108 c 0
 427 108 434.9 100 442 89 c 0
 451 75 459 69 495 69 c 0
 519 69 571 82 571 176 c 0
 571 257 534 263 493 263 c 0
 486 263 478 261 470 260 c 1
 467 289 l 1
 525 299 546 355 546 390 c 0
 546 427 532 443 504 443 c 0
249 718 m 2
 189 718 156 685 156 625 c 2
 156 -53 l 2
 156 -113 189 -136 249 -136 c 2
 821 -136 l 2
 881 -136 904 -113 904 -53 c 2
 904 625 l 2
 904 685 881 718 821 718 c 2
 249 718 l 2
1000 -84 m 2
 1000 -174 971 -212 881 -212 c 2
 249 -212 l 2
 159 -212 120 -174 120 -84 c 2
 120 625 l 2
 120 708 168 754 249 754 c 2
 851 754 l 2
 941 754 1000 715 1000 625 c 2
 1000 -84 l 2
EndSplineSet
AlternateSubs2: "'aalt' Alle Alternativen zeigen 1" three.oldstyle three.superior three.fitted
Substitution2: "'sups' Hochgestellte 1" three.superior
Substitution2: "'sinf' Wissenschaftliche Indices 1" three.inferior
Substitution2: "'pnum' Proportionalziffern 1" three.fitted
Substitution2: "'onum' Minuskelziffern 1" three.taboldstyle
EndChar

StartChar: four
Encoding: 52 52 13
Width: 1100
VWidth: 487
Flags: HW
HStem: 70 16G<298 347 347 382> 183 1<306 374> 183 40<189 306 374 440> 490 15G<295 297>
VStem: 306 68<74 184 223 353>
LayerCount: 3
Fore
SplineSet
384 153 m 2
 362 153 352 176 350 187 c 1
 350 187 351 188 351 189 c 0
 400 243 491 409 521 472 c 0
 522 474 523 475 526 475 c 0
 528 475 561 469 570 467 c 1
 532 376 474 280 419 193 c 1
 536 193 l 1
 536 308 l 2
 536 313 538 319 545 323 c 1
 553 329 581 336 592 336 c 0
 602 336 604 328 604 313 c 2
 604 193 l 1
 663 193 l 2
 670 193 673 186 673 179 c 0
 673 171 663 153 653 153 c 2
 604 153 l 1
 604 96.9 606 84.7 612 42 c 1
 611 40 l 1
 611 40 603 42 577 42 c 0
 551 42 529 40 529 40 c 1
 528 42 l 1
 535 81.8 536 97.8 536 153 c 1
 384 153 l 2
249 718 m 2
 189 718 156 685 156 625 c 2
 156 -53 l 2
 156 -113 189 -136 249 -136 c 2
 821 -136 l 2
 881 -136 904 -113 904 -53 c 2
 904 625 l 2
 904 685 881 718 821 718 c 2
 249 718 l 2
1000 -84 m 2
 1000 -174 971 -212 881 -212 c 2
 249 -212 l 2
 159 -212 120 -174 120 -84 c 2
 120 625 l 2
 120 708 168 754 249 754 c 2
 851 754 l 2
 941 754 1000 715 1000 625 c 2
 1000 -84 l 2
EndSplineSet
AlternateSubs2: "'aalt' Alle Alternativen zeigen 1" four.oldstyle four.superior four.fitted
Substitution2: "'sups' Hochgestellte 1" four.superior
Substitution2: "'sinf' Wissenschaftliche Indices 1" four.inferior
Substitution2: "'pnum' Proportionalziffern 1" four.fitted
Substitution2: "'onum' Minuskelziffern 1" four.taboldstyle
EndChar

StartChar: five
Encoding: 53 53 14
Width: 1100
VWidth: 487
Flags: HW
HStem: 64 36<189 275> 306 42<191 273> 443 54<204 364> 490 15G<351 375>
VStem: 297 90<146 273>
DStem2: 135 289 190 337 0.112752 0.993623<53.867 166.511>
LayerCount: 3
Fore
SplineSet
567 168 m 0
 567 245 546 276 499 276 c 0
 465 276 435 271 405 259 c 1
 429 471 l 1
 454 468 483 467 510 467 c 0
 547 467 600 470 641 474 c 1
 645 472 l 1
 634 417 l 1
 605 414 567 413 546 413 c 0
 512 413 501 416 474 419 c 1
 460 307 l 1
 476 313 489 318 518 318 c 0
 597 318 657 250 657 180 c 0
 657 96 583 34 498 34 c 0
 456 34 390 56 390 88 c 0
 390 104 404 115 418 115 c 0
 435 115 446 102 456 89 c 0
 467 74 476 70 500 70 c 0
 548 70 567 102 567 168 c 0
249 718 m 2
 189 718 156 685 156 625 c 2
 156 -53 l 2
 156 -113 189 -136 249 -136 c 2
 821 -136 l 2
 881 -136 904 -113 904 -53 c 2
 904 625 l 2
 904 685 881 718 821 718 c 2
 249 718 l 2
1000 -84 m 2
 1000 -174 971 -212 881 -212 c 2
 249 -212 l 2
 159 -212 120 -174 120 -84 c 2
 120 625 l 2
 120 708 168 754 249 754 c 2
 851 754 l 2
 941 754 1000 715 1000 625 c 2
 1000 -84 l 2
EndSplineSet
AlternateSubs2: "'aalt' Alle Alternativen zeigen 1" five.oldstyle five.superior five.fitted
Substitution2: "'sups' Hochgestellte 1" five.superior
Substitution2: "'sinf' Wissenschaftliche Indices 1" five.inferior
Substitution2: "'pnum' Proportionalziffern 1" five.fitted
Substitution2: "'onum' Minuskelziffern 1" five.taboldstyle
EndChar

StartChar: six
Encoding: 54 54 15
Width: 1100
VWidth: 487
Flags: HW
HStem: 64 28<242 315> 294 31<222 307> 478 26<338 398>
VStem: 120 85<153 301> 334 85<136 266>
LayerCount: 3
Fore
SplineSet
460 273 m 1
 480 286 507 295 528 295 c 0
 639 295 669 228 669 169 c 0
 669 110 628 34 524 34 c 0
 470 34 370 64 370 214 c 0
 370 321 455 462 647 474 c 1
 650 448 l 1
 605 444 489 430 460 273 c 1
456 245 m 1
 455 236 455 218 455 211 c 0
 455 85 494 62 532 62 c 0
 566 62 584 86 584 164 c 0
 584 199 580 264 513 264 c 0
 500 264 480 263 456 245 c 1
249 718 m 2
 189 718 156 685 156 625 c 2
 156 -53 l 2
 156 -113 189 -136 249 -136 c 2
 821 -136 l 2
 881 -136 904 -113 904 -53 c 2
 904 625 l 2
 904 685 881 718 821 718 c 2
 249 718 l 2
1000 -84 m 2
 1000 -174 971 -212 881 -212 c 2
 249 -212 l 2
 159 -212 120 -174 120 -84 c 2
 120 625 l 2
 120 708 168 754 249 754 c 2
 851 754 l 2
 941 754 1000 715 1000 625 c 2
 1000 -84 l 2
EndSplineSet
AlternateSubs2: "'aalt' Alle Alternativen zeigen 1" six.oldstyle six.superior six.fitted
Substitution2: "'sups' Hochgestellte 1" six.superior
Substitution2: "'sinf' Wissenschaftliche Indices 1" six.inferior
Substitution2: "'pnum' Proportionalziffern 1" six.fitted
Substitution2: "'onum' Minuskelziffern 1" six.taboldstyle
EndChar

StartChar: seven
Encoding: 55 55 16
Width: 1100
VWidth: 487
Flags: HMW
HStem: 62 16G<149 200> 448 49<134 307>
LayerCount: 3
Fore
SplineSet
249 718 m 2
 189 718 156 685 156 625 c 2
 156 -53 l 2
 156 -113 189 -136 249 -136 c 2
 821 -136 l 2
 881 -136 904 -113 904 -53 c 2
 904 625 l 2
 904 685 881 718 821 718 c 2
 249 718 l 2
1000 -84 m 2
 1000 -174 971 -212 881 -212 c 2
 249 -212 l 2
 159 -212 120 -174 120 -84 c 2
 120 625 l 2
 120 708 168 754 249 754 c 2
 851 754 l 2
 941 754 1000 715 1000 625 c 2
 1000 -84 l 2
619.4 410.9 m 1
 577.5 410.6 513.6 409.3 420 404 c 1
 422 415 423 432 423 443 c 0
 423 453 422 461 420 471 c 1
 450 467 527 467 633 467 c 0
 655 467 668 471 679 474 c 1
 691 467 l 1
 611 273 569 155 528 34 c 1
 465 32 l 1
 463 36 l 1
 509.5 140.9 564.9 276.2 619.4 410.9 c 1
EndSplineSet
AlternateSubs2: "'aalt' Alle Alternativen zeigen 1" seven.oldstyle seven.superior seven.fitted
Substitution2: "'sups' Hochgestellte 1" seven.superior
Substitution2: "'sinf' Wissenschaftliche Indices 1" seven.inferior
Substitution2: "'pnum' Proportionalziffern 1" seven.fitted
Substitution2: "'onum' Minuskelziffern 1" seven.taboldstyle
EndChar

StartChar: nine
Encoding: 57 57 17
Width: 1100
VWidth: 487
Flags: HW
HStem: 64 26<288 348> 243 31<379 464> 476 28<371 444>
VStem: 267 85<302 432> 481 85<267 415>
LayerCount: 3
Fore
SplineSet
599 233 m 1
 579 220 552 211 531 211 c 0
 420 211 390 278 390 337 c 0
 390 396 431 472 535 472 c 0
 589 472 689 442 689 292 c 0
 689 185 604 44 412 32 c 1
 409 58 l 1
 454 62 570 76 599 233 c 1
603 261 m 1
 604 270 604 288 604 295 c 0
 604 421 565 444 527 444 c 0
 493 444 475 420 475 342 c 0
 475 307 479 242 546 242 c 0
 559 242 579 243 603 261 c 1
249 718 m 2
 189 718 156 685 156 625 c 2
 156 -53 l 2
 156 -113 189 -136 249 -136 c 2
 821 -136 l 2
 881 -136 904 -113 904 -53 c 2
 904 625 l 2
 904 685 881 718 821 718 c 2
 249 718 l 2
1000 -84 m 2
 1000 -174 971 -212 881 -212 c 2
 249 -212 l 2
 159 -212 120 -174 120 -84 c 2
 120 625 l 2
 120 708 168 754 249 754 c 2
 851 754 l 2
 941 754 1000 715 1000 625 c 2
 1000 -84 l 2
EndSplineSet
AlternateSubs2: "'aalt' Alle Alternativen zeigen 1" nine.oldstyle nine.superior nine.fitted
Substitution2: "'sups' Hochgestellte 1" nine.superior
Substitution2: "'sinf' Wissenschaftliche Indices 1" nine.inferior
Substitution2: "'pnum' Proportionalziffern 1" nine.fitted
Substitution2: "'onum' Minuskelziffern 1" nine.taboldstyle
Colour: ff00ff
EndChar

StartChar: colon
Encoding: 58 58 18
Width: 1100
VWidth: 999
Flags: HW
HStem: -212 76<179.2 885.174> 34 97<502.123 570.724> 246 97<502.123 570.724> 718 36<188.821 875.472>
VStem: 120 36<-107.953 686.051> 487 98<46.5645 115.833 258.564 327.833> 904 96<-118.923 694.8>
LayerCount: 3
Fore
SplineSet
487 293 m 1
 487 296 l 1
 496 319 509 333 535 343 c 1
 537 343 l 1
 562 334 576 321 585 296 c 1
 585 293 l 1
 575 265 562 252 537 246 c 1
 535 246 l 1
 507 252 495 265 487 293 c 1
487 81 m 1
 487 84 l 1
 496 107 509 121 535 131 c 1
 537 131 l 1
 562 122 576 109 585 84 c 1
 585 81 l 1
 575 53 562 40 537 34 c 1
 535 34 l 1
 507 40 495 53 487 81 c 1
249 718 m 2
 189 718 156 685 156 625 c 2
 156 -53 l 2
 156 -113 189 -136 249 -136 c 2
 821 -136 l 2
 881 -136 904 -113 904 -53 c 2
 904 625 l 2
 904 685 881 718 821 718 c 2
 249 718 l 2
1000 -84 m 2
 1000 -174 971 -212 881 -212 c 2
 249 -212 l 2
 159 -212 120 -174 120 -84 c 2
 120 625 l 2
 120 708 168 754 249 754 c 2
 851 754 l 2
 941 754 1000 715 1000 625 c 2
 1000 -84 l 2
EndSplineSet
Colour: ff00ff
EndChar

StartChar: less
Encoding: 60 60 19
Width: 1100
Flags: HW
DStem2: 356 256 439 240 0.939793 0.341743<72.599 326.471> 439 240 356 224 0.939793 -0.341743<0 253.872>
LayerCount: 3
Fore
SplineSet
439 240 m 1
 677 153 l 1
 677 106 l 1
 356 224 l 1
 356 256 l 1
 677 374 l 1
 677 327 l 1
 439 240 l 1
249 718 m 2
 189 718 156 685 156 625 c 2
 156 -53 l 2
 156 -113 189 -136 249 -136 c 2
 821 -136 l 2
 881 -136 904 -113 904 -53 c 2
 904 625 l 2
 904 685 881 718 821 718 c 2
 249 718 l 2
1000 -84 m 2
 1000 -174 971 -212 881 -212 c 2
 249 -212 l 2
 159 -212 120 -174 120 -84 c 2
 120 625 l 2
 120 708 168 754 249 754 c 2
 851 754 l 2
 941 754 1000 715 1000 625 c 2
 1000 -84 l 2
EndSplineSet
EndChar

StartChar: equal
Encoding: 61 61 20
Width: 1100
Flags: HW
HStem: 165 42<375 701> 258 43<375 701>
LayerCount: 3
Fore
SplineSet
701 207 m 1
 701 165 l 1
 375 165 l 1
 375 207 l 1
 701 207 l 1
701 300 m 1
 701 258 l 1
 375 258 l 1
 375 300 l 1
 701 300 l 1
249 718 m 2
 189 718 156 685 156 625 c 2
 156 -53 l 2
 156 -113 189 -136 249 -136 c 2
 821 -136 l 2
 881 -136 904 -113 904 -53 c 2
 904 625 l 2
 904 685 881 718 821 718 c 2
 249 718 l 2
1000 -84 m 2
 1000 -174 971 -212 881 -212 c 2
 249 -212 l 2
 159 -212 120 -174 120 -84 c 2
 120 625 l 2
 120 708 168 754 249 754 c 2
 851 754 l 2
 941 754 1000 715 1000 625 c 2
 1000 -84 l 2
EndSplineSet
AlternateSubs2: "'aalt' Alle Alternativen zeigen 1" equal.superior
Substitution2: "'sinf' Wissenschaftliche Indices 1" equal.inferior
Substitution2: "'sups' Hochgestellte 1" equal.superior
EndChar

StartChar: greater
Encoding: 62 62 21
Width: 1100
Flags: HW
HStem: 104 267<396 396>
VStem: 396 322<254 325>
DStem2: 396 372 396 325 0.939669 -0.342086<15.9101 269.621> 396 151 396 104 0.940012 0.341142<0 253.835>
LayerCount: 3
Fore
SplineSet
633 238 m 1
 396 325 l 1
 396 372 l 1
 717 254 l 1
 717 221 l 1
 396 104 l 1
 396 151 l 1
 633 238 l 1
249 718 m 2
 189 718 156 685 156 625 c 2
 156 -53 l 2
 156 -113 189 -136 249 -136 c 2
 821 -136 l 2
 881 -136 904 -113 904 -53 c 2
 904 625 l 2
 904 685 881 718 821 718 c 2
 249 718 l 2
1000 -84 m 2
 1000 -174 971 -212 881 -212 c 2
 249 -212 l 2
 159 -212 120 -174 120 -84 c 2
 120 625 l 2
 120 708 168 754 249 754 c 2
 851 754 l 2
 941 754 1000 715 1000 625 c 2
 1000 -84 l 2
EndSplineSet
Colour: ff00ff
EndChar

StartChar: question
Encoding: 63 63 22
Width: 1100
VWidth: 487
Flags: HW
HStem: 75 92<490 548> 540 37<485 571>
VStem: 472 93<90 149> 502 34<213 317> 590 85<413 519>
LayerCount: 3
Fore
SplineSet
530 500 m 0
 488 500 457 464 438 430 c 1
 428 431 l 1
 416 488 l 1
 418 491 l 1
 437 506 482 537 537 537 c 0
 613 537 675 492 675 424 c 0
 675 365 616 332 581 306 c 0
 559 290 536 269 536 214 c 2
 536 185 l 2
 536 179 525 173 519 173 c 0
 513 173 502 179 502 185 c 2
 502 215 l 2
 502 248 511.4 291.6 559 336 c 0
 589 364 590 386 590 421 c 0
 590 470 573 500 530 500 c 0
477 81 m 1
 477 84 l 1
 486 106 498 119 523 129 c 1
 525 129 l 1
 549 120 562 108 571 84 c 1
 571 81 l 1
 561 54 549 42 525 36 c 1
 523 36 l 1
 496 42 485 54 477 81 c 1
249 718 m 2
 189 718 156 685 156 625 c 2
 156 -53 l 2
 156 -113 189 -136 249 -136 c 2
 821 -136 l 2
 881 -136 904 -113 904 -53 c 2
 904 625 l 2
 904 685 881 718 821 718 c 2
 249 718 l 2
1000 -84 m 2
 1000 -174 971 -212 881 -212 c 2
 249 -212 l 2
 159 -212 120 -174 120 -84 c 2
 120 625 l 2
 120 708 168 754 249 754 c 2
 851 754 l 2
 941 754 1000 715 1000 625 c 2
 1000 -84 l 2
EndSplineSet
Colour: ff80cc
EndChar

StartChar: at
Encoding: 64 64 23
Width: 1100
Flags: HW
HStem: -212 76<179.2 885.174> -52 29<473.254 640.961> 82 31<620 697.733> 90 32<489.175 554.329> 354 25<545.853 609.396> 506 27<473.322 615.749> 718 36<188.821 875.472>
VStem: 120 36<-107.953 686.051> 237 70<129.304 340.022> 405 73<127.662 274.948> 771 64<194.204 374.622> 904 96<-118.923 694.8>
LayerCount: 3
Fore
SplineSet
622 308 m 0
 622 334 604 354 585 354 c 0
 575 354 551.1 352.9 525 325 c 0
 491.2 288.9 478 238 478 191 c 0
 478 155 485 122 520 122 c 0
 543 122 580 148 601 212 c 1
 608 237 622 290 622 308 c 0
648 124 m 0
 648 114 653 113 661 113 c 0
 689 113 771 164 771 272 c 0
 771 438 633 506 546 506 c 0
 429 506 307 412 307 239 c 0
 307 128 375 -23 559 -23 c 0
 616 -23 669 -5 716 33 c 1
 725 30 730 21 732 11 c 1
 684 -25 637 -52 544 -52 c 0
 367 -52 237 62 237 233 c 0
 237 389 363 533 553 533 c 0
 722 533 835 425 835 283 c 0
 835 178 747 82 646 82 c 0
 594 82 580 109 580 125 c 1
 549 96 519 90 501 90 c 0
 414 90 405 155 405 186 c 0
 405 295 497 379 583 379 c 0
 619 379 641 366 654 350 c 1
 681 375 l 1
 702 367 l 1
 657 173 l 2
 653 154 648 132 648 124 c 0
249 718 m 2
 189 718 156 685 156 625 c 2
 156 -53 l 2
 156 -113 189 -136 249 -136 c 2
 821 -136 l 2
 881 -136 904 -113 904 -53 c 2
 904 625 l 2
 904 685 881 718 821 718 c 2
 249 718 l 2
1000 -84 m 2
 1000 -174 971 -212 881 -212 c 2
 249 -212 l 2
 159 -212 120 -174 120 -84 c 2
 120 625 l 2
 120 708 168 754 249 754 c 2
 851 754 l 2
 941 754 1000 715 1000 625 c 2
 1000 -84 l 2
EndSplineSet
EndChar

StartChar: A
Encoding: 65 65 24
Width: 1100
Flags: HW
HStem: -212 76<179.2 885.174> 207 39<441.391 618> 412 20G<503 515 530 566> 718 36<188.821 875.472>
VStem: 120 36<-107.953 686.051> 663 114<39 86.3662> 904 96<-118.923 694.8>
LayerCount: 3
Fore
SplineSet
249 718 m 2
 189 718 156 685 156 625 c 2
 156 -53 l 2
 156 -113 189 -136 249 -136 c 2
 821 -136 l 2
 881 -136 904 -113 904 -53 c 2
 904 625 l 2
 904 685 881 718 821 718 c 2
 249 718 l 2
1000 -84 m 2
 1000 -174 971 -212 881 -212 c 2
 249 -212 l 2
 159 -212 120 -174 120 -84 c 2
 120 625 l 2
 120 708 168 754 249 754 c 2
 851 754 l 2
 941 754 1000 715 1000 625 c 2
 1000 -84 l 2
522.5 414.7 m 1
 450.9 248 l 1
 474.7 247.7 507.2 246 529 246 c 0
 546.3 246 570 246.5 591.5 247.1 c 1
 572.9 295.1 550.1 351 522.5 414.7 c 1
433.2 205.1 m 1
 407.7 142.2 385.7 83.3 374 39 c 1
 365 41 348 41 340 41 c 0
 332 41 307 41 298 39 c 1
 374 204 447 368 519 534 c 1
 572 534 l 1
 641 370 740 114 777 39 c 1
 764 41 729 41 716 41 c 0
 704 41 676 41 663 39 c 1
 658.7 54.9 642.5 111.1 607.2 205.6 c 1
 582.6 206.3 556.6 207 533 207 c 0
 506 207 462.3 206.1 433.2 205.1 c 1
EndSplineSet
Position2: "'cpsp' Versalabstaende 1" dx=2 dy=0 dh=4 dv=0
Substitution2: "'c2sc' Versale nach Kapitaelchen 1" a.sc
EndChar

StartChar: B
Encoding: 66 66 25
Width: 1100
VWidth: 999
Flags: HW
HStem: 78 40<429 596> 322 40<450 570> 527 40<428 568>
VStem: 354 96<124 322 362 522> 589 97<398 505> 624 106<160 280>
LayerCount: 3
Fore
SplineSet
450 453 m 2
 450 322 l 1
 504 322 l 2
 567 322 589 338 589 401 c 0
 589 478 556 487 514 487 c 0
 453 487 450 478 450 453 c 2
450 282 m 1
 450 113 l 2
 450 89 459 78 511 78 c 0
 612 78 624 110 624 164 c 0
 624 232 603 282 516 282 c 2
 450 282 l 1
402 524 m 0
 444 524 483 527 509 527 c 0
 648 527 686 461 686 410 c 0
 686 369 654 329 616 311 c 1
 681 292 730 251 730 179 c 0
 730 114 675 38 525 38 c 0
 459 38 450 41 402 41 c 0
 376 41 348 38 348 38 c 1
 347 41 l 1
 353 81 354 134 354 191 c 2
 354 374 l 2
 354 431 353 482 347 524 c 1
 348 527 l 1
 348 527 377 524 402 524 c 0
249 718 m 2
 189 718 156 685 156 625 c 2
 156 -53 l 2
 156 -113 189 -136 249 -136 c 2
 821 -136 l 2
 881 -136 904 -113 904 -53 c 2
 904 625 l 2
 904 685 881 718 821 718 c 2
 249 718 l 2
1000 -84 m 2
 1000 -174 971 -212 881 -212 c 2
 249 -212 l 2
 159 -212 120 -174 120 -84 c 2
 120 625 l 2
 120 708 168 754 249 754 c 2
 851 754 l 2
 941 754 1000 715 1000 625 c 2
 1000 -84 l 2
EndSplineSet
Position2: "'cpsp' Versalabstaende 1" dx=2 dy=0 dh=4 dv=0
Substitution2: "'c2sc' Versale nach Kapitaelchen 1" b.sc
EndChar

StartChar: C
Encoding: 67 67 26
Width: 1100
VWidth: 999
Flags: HW
HStem: -212 76<179.2 885.174> 34 44<473.301 637.148> 492 42<476.962 628.553> 718 36<188.821 875.472>
VStem: 120 36<-107.953 686.051> 292 109<171.935 372.978> 904 96<-118.923 694.8>
LayerCount: 3
Fore
SplineSet
554 534 m 0
 645 534 717 501 717 501 c 1
 719 498 l 1
 710 462 706 439 704 401 c 1
 696 400 l 1
 665 462 611 492 543 492 c 0
 482 492 401 444 401 292 c 0
 401 182 434 78 550 78 c 0
 620 78 671 94 724 153 c 1
 741 135 l 1
 690 68 608 34 536 34 c 0
 374 34 292 156 292 277 c 0
 292 425 427 534 554 534 c 0
249 718 m 2
 189 718 156 685 156 625 c 2
 156 -53 l 2
 156 -113 189 -136 249 -136 c 2
 821 -136 l 2
 881 -136 904 -113 904 -53 c 2
 904 625 l 2
 904 685 881 718 821 718 c 2
 249 718 l 2
1000 -84 m 2
 1000 -174 971 -212 881 -212 c 2
 249 -212 l 2
 159 -212 120 -174 120 -84 c 2
 120 625 l 2
 120 708 168 754 249 754 c 2
 851 754 l 2
 941 754 1000 715 1000 625 c 2
 1000 -84 l 2
EndSplineSet
Position2: "'cpsp' Versalabstaende 1" dx=2 dy=0 dh=4 dv=0
Substitution2: "'c2sc' Versale nach Kapitaelchen 1" c.sc
EndChar

StartChar: D
Encoding: 68 68 27
Width: 1100
VWidth: 999
Flags: HW
HStem: 79 33<368 565> 534 33<368 533>
VStem: 317 64<118 526> 655 77<215 400>
LayerCount: 3
Fore
SplineSet
413 109 m 2
 413 85 421 79 495 79 c 0
 600 79 671 102 671 254 c 0
 671 369 638 487 476 487 c 0
 439 487 413 483 413 457 c 2
 413 109 l 2
365 524 m 0
 420 524 450 527 504 527 c 0
 648 527 780 411 780 272 c 0
 780 87 624 39 518 39 c 0
 441 39 425 41 365 41 c 0
 339 41 310 38 310 38 c 1
 309 41 l 1
 315 81 317 134 317 191 c 2
 317 374 l 2
 317 431 315 482 309 524 c 1
 311 527 l 1
 311 527 339 524 365 524 c 0
249 718 m 2
 189 718 156 685 156 625 c 2
 156 -53 l 2
 156 -113 189 -136 249 -136 c 2
 821 -136 l 2
 881 -136 904 -113 904 -53 c 2
 904 625 l 2
 904 685 881 718 821 718 c 2
 249 718 l 2
1000 -84 m 2
 1000 -174 971 -212 881 -212 c 2
 249 -212 l 2
 159 -212 120 -174 120 -84 c 2
 120 625 l 2
 120 708 168 754 249 754 c 2
 851 754 l 2
 941 754 1000 715 1000 625 c 2
 1000 -84 l 2
EndSplineSet
Position2: "'cpsp' Versalabstaende 1" dx=2 dy=0 dh=4 dv=0
Substitution2: "'c2sc' Versale nach Kapitaelchen 1" d.sc
EndChar

StartChar: E
Encoding: 69 69 28
Width: 1100
VWidth: 999
Flags: HW
HStem: -212 76<179.2 885.174> 41 47<455.953 670.434> 278 38<453 617.588> 472 21G<459 665> 481 43<456.105 662.434> 718 36<188.821 875.472>
VStem: 120 36<-107.953 686.051> 357 96<88.8829 278 316 479.855> 904 96<-118.923 694.8>
LayerCount: 3
Fore
SplineSet
453 191 m 2
 453 178 454 106 459 88 c 1
 560 88 671 97 671 97 c 1
 672 94 l 1
 672 88 671 75 671 68 c 0
 671 60 672 51 672 41 c 1
 671 38 l 1
 659 40 642 41 626 41 c 2
 405 41 l 2
 379 41 350 38 350 38 c 1
 350 41 l 1
 356 81 357 134 357 191 c 2
 357 374 l 2
 357 431 356 482 350 524 c 1
 351 527 l 1
 351 527 380 524 405 524 c 0
 428 524 618 524 618 524 c 2
 634 524 651 525 663 527 c 1
 665 524 l 1
 664 514 663 504 663 498 c 0
 663 491 664 481 665 475 c 1
 663 472 l 1
 663 472 560 481 459 481 c 1
 454 463 453 387 453 374 c 2
 453 316 l 1
 542 316 576 320 620 323 c 1
 623 321 l 1
 621 314 620 304 620 297 c 0
 620 290 621 279 623 272 c 1
 620 270 l 1
 569 275 489 278 453 278 c 1
 453 191 l 2
249 718 m 2
 189 718 156 685 156 625 c 2
 156 -53 l 2
 156 -113 189 -136 249 -136 c 2
 821 -136 l 2
 881 -136 904 -113 904 -53 c 2
 904 625 l 2
 904 685 881 718 821 718 c 2
 249 718 l 2
1000 -84 m 2
 1000 -174 971 -212 881 -212 c 2
 249 -212 l 2
 159 -212 120 -174 120 -84 c 2
 120 625 l 2
 120 708 168 754 249 754 c 2
 851 754 l 2
 941 754 1000 715 1000 625 c 2
 1000 -84 l 2
EndSplineSet
Position2: "'cpsp' Versalabstaende 1" dx=2 dy=0 dh=4 dv=0
Substitution2: "'c2sc' Versale nach Kapitaelchen 1" e.sc
EndChar

StartChar: F
Encoding: 70 70 29
Width: 1100
VWidth: 999
Flags: HW
HStem: -212 76<179.2 885.174> 278 38<454 618.588> 472 21G<460 666> 481 43<457.105 663.434> 718 36<188.821 875.472>
VStem: 120 36<-107.953 686.051> 358 96<42.9753 278 316 479.855> 904 96<-118.923 694.8>
LayerCount: 3
Fore
SplineSet
617 524 m 2
 635 524 652 525 664 527 c 1
 666 524 l 1
 665 514 664 504 664 498 c 0
 664 491 665 481 666 475 c 1
 664 472 l 1
 664 472 560 481 460 481 c 1
 455 463 454 387 454 374 c 2
 454 316 l 1
 542 316 577 320 621 323 c 1
 624 321 l 1
 622 314 621 304 621 297 c 0
 621 290 622 279 624 272 c 1
 621 270 l 1
 570 275 490 278 454 278 c 1
 454 191 l 2
 454 134 456 83 462 41 c 1
 460 38 l 1
 460 38 432 41 406 41 c 0
 380 41 351 38 351 38 c 1
 350 41 l 1
 356 81 358 134 358 191 c 2
 358 374 l 2
 358 431 356 482 350 524 c 1
 352 527 l 1
 352 527 380 524 406 524 c 2
 617 524 l 2
249 718 m 2
 189 718 156 685 156 625 c 2
 156 -53 l 2
 156 -113 189 -136 249 -136 c 2
 821 -136 l 2
 881 -136 904 -113 904 -53 c 2
 904 625 l 2
 904 685 881 718 821 718 c 2
 249 718 l 2
1000 -84 m 2
 1000 -174 971 -212 881 -212 c 2
 249 -212 l 2
 159 -212 120 -174 120 -84 c 2
 120 625 l 2
 120 708 168 754 249 754 c 2
 851 754 l 2
 941 754 1000 715 1000 625 c 2
 1000 -84 l 2
EndSplineSet
Position2: "'cpsp' Versalabstaende 1" dx=2 dy=0 dh=4 dv=0
Substitution2: "'c2sc' Versale nach Kapitaelchen 1" f.sc
EndChar

StartChar: G
Encoding: 71 71 30
Width: 1100
VWidth: 999
Flags: HW
HStem: -212 46<169.359 930.641> 74 41<489.075 658.576> 440 21G<703.5 727> 532 42<470.668 642.78> 708 46<168.938 931.062>
VStem: 120 46<-162.981 705.906> 284 108<219.789 411.607> 669 96<143.284 308.984> 934 46<-162.981 705.906>
LayerCount: 3
Fore
SplineSet
669 129 m 2
 669 185 668 228 662 271 c 1
 663 274 l 1
 663 274 692 271 717 271 c 0
 743 271 772 274 772 274 c 1
 772 271 l 1
 766 232 765 200 765 144 c 0
 765 119 768 109 772 103 c 1
 772 101 l 1
 722 59 645 34 557 34 c 0
 406 34 284 142 284 271 c 0
 284 436 432 534 561 534 c 0
 652 534 740 501 740 501 c 1
 742 498 l 1
 733 462 729 439 727 401 c 1
 719 400 l 1
 688 462 618 492 550 492 c 0
 449 492 392 418 392 286 c 0
 392 187 441 75 574 75 c 0
 615 75 644 79 669 103 c 1
 669 129 l 2
249 718 m 2
 189 718 156 685 156 625 c 2
 156 -53 l 2
 156 -113 189 -136 249 -136 c 2
 821 -136 l 2
 881 -136 904 -113 904 -53 c 2
 904 625 l 2
 904 685 881 718 821 718 c 2
 249 718 l 2
1000 -84 m 2
 1000 -174 971 -212 881 -212 c 2
 249 -212 l 2
 159 -212 120 -174 120 -84 c 2
 120 625 l 2
 120 708 168 754 249 754 c 2
 851 754 l 2
 941 754 1000 715 1000 625 c 2
 1000 -84 l 2
EndSplineSet
Position2: "'cpsp' Versalabstaende 1" dx=2 dy=0 dh=4 dv=0
Substitution2: "'c2sc' Versale nach Kapitaelchen 1" g.sc
EndChar

StartChar: grave
Encoding: 96 96 31
Width: 1100
VWidth: 999
Flags: HW
LayerCount: 3
Fore
SplineSet
532 513 m 1
 584 421 l 2
 587 415 590 407 590 401 c 0
 590 394 584 389 578 389 c 0
 572 389 564 393 551 404 c 2
 461 483 l 1
 462 491 l 1
 468 498 490 515 517 515 c 0
 521 515 529 514 532 513 c 1
249 718 m 2
 189 718 156 685 156 625 c 2
 156 -53 l 2
 156 -113 189 -136 249 -136 c 2
 821 -136 l 2
 881 -136 904 -113 904 -53 c 2
 904 625 l 2
 904 685 881 718 821 718 c 2
 249 718 l 2
1000 -84 m 2
 1000 -174 971 -212 881 -212 c 2
 249 -212 l 2
 159 -212 120 -174 120 -84 c 2
 120 625 l 2
 120 708 168 754 249 754 c 2
 851 754 l 2
 941 754 1000 715 1000 625 c 2
 1000 -84 l 2
EndSplineSet
Substitution2: "'case' Versalformen 1" grave.cap
Colour: ff00ff
EndChar

StartChar: ograve
Encoding: 242 242 32
Width: 1100
VWidth: 999
Flags: HW
HStem: 83 38<499 588> 382 38<487 583>
VStem: 363 96<174 323> 616 96<180 328>
LayerCount: 3
Fore
SplineSet
544.7 588.1 m 1
 601.8 486.9 l 2
 605.1 480.3 608.5 471.5 608.5 464.9 c 0
 608.5 457.2 601.8 451.7 595.2 451.7 c 0
 588.6 451.7 579.8 456.1 565.5 468.2 c 2
 466.5 555.1 l 1
 467.7 563.9 l 1
 474.3 571.6 498.5 590.3 528.2 590.3 c 0
 532.6 590.3 541.4 589.2 544.7 588.1 c 1
363 197 m 0
 363 300 428 373 536 373 c 0
 662 373 705 282 705 204 c 0
 705 124 649 36 534 36 c 0
 422 36 363 115 363 197 c 0
530 335 m 0
 466 335 459 280 459 215 c 0
 459 157 466 74 544 74 c 0
 578 74 609 98 609 184 c 0
 609 288 594 335 530 335 c 0
249 718 m 2
 189 718 156 685 156 625 c 2
 156 -53 l 2
 156 -113 189 -136 249 -136 c 2
 821 -136 l 2
 881 -136 904 -113 904 -53 c 2
 904 625 l 2
 904 685 881 718 821 718 c 2
 249 718 l 2
1000 -84 m 2
 1000 -174 971 -212 881 -212 c 2
 249 -212 l 2
 159 -212 120 -174 120 -84 c 2
 120 625 l 2
 120 708 168 754 249 754 c 2
 851 754 l 2
 941 754 1000 715 1000 625 c 2
 1000 -84 l 2
EndSplineSet
Substitution2: "'smcp' Gemeine nach Kapitaelchen 1" ograve.sc
AlternateSubs2: "'aalt' Alle Alternativen zeigen 1" ograve.sc
Colour: ff00ff
EndChar

StartChar: oacute
Encoding: 243 243 33
Width: 1100
VWidth: 999
Flags: HW
HStem: 83 38<499 588> 382 38<487 583>
VStem: 363 96<174 323> 616 96<180 328>
LayerCount: 3
Fore
SplineSet
533.3 578.2 m 1
 535.5 579.3 542.1 580.5 546.5 580.5 c 0
 571.8 580.5 587.2 568.4 593.8 560.7 c 1
 601.5 540.8 l 1
 502.5 451.8 l 2
 491.5 441.9 479.4 438.5 471.7 438.5 c 0
 465.1 438.5 458.5 445.2 458.5 450.7 c 0
 458.5 455.1 459.6 462.8 465.1 470.5 c 2
 533.3 578.2 l 1
363 197 m 0
 363 300 428 373 536 373 c 0
 662 373 705 282 705 204 c 0
 705 124 649 36 534 36 c 0
 422 36 363 115 363 197 c 0
530 335 m 0
 466 335 459 280 459 215 c 0
 459 157 466 74 544 74 c 0
 578 74 609 98 609 184 c 0
 609 288 594 335 530 335 c 0
249 718 m 2
 189 718 156 685 156 625 c 2
 156 -53 l 2
 156 -113 189 -136 249 -136 c 2
 821 -136 l 2
 881 -136 904 -113 904 -53 c 2
 904 625 l 2
 904 685 881 718 821 718 c 2
 249 718 l 2
1000 -84 m 2
 1000 -174 971 -212 881 -212 c 2
 249 -212 l 2
 159 -212 120 -174 120 -84 c 2
 120 625 l 2
 120 708 168 754 249 754 c 2
 851 754 l 2
 941 754 1000 715 1000 625 c 2
 1000 -84 l 2
EndSplineSet
Substitution2: "'smcp' Gemeine nach Kapitaelchen 1" oacute.sc
AlternateSubs2: "'aalt' Alle Alternativen zeigen 1" oacute.sc
Colour: ff00ff
EndChar

StartChar: ocircumflex
Encoding: 244 244 34
Width: 1100
VWidth: 999
Flags: HW
HStem: 79 38<499 588> 379 38<487 583>
VStem: 363 96<171 320> 430 190<475 475> 616 96<176 324>
LayerCount: 3
Fore
SplineSet
548 548.8 m 1
 573.3 508.1 604 471.8 634.8 437.7 c 1
 614 422.2 l 1
 578.8 444.2 554.6 460.8 526 490.5 c 1
 495.2 458.6 472 444.2 439 422.2 c 1
 418.2 437.7 l 1
 447.9 471.8 480.8 509.2 505 548.8 c 1
 548 548.8 l 1
363 197 m 0
 363 300 428 373 536 373 c 0
 662 373 705 282 705 204 c 0
 705 124 649 36 534 36 c 0
 422 36 363 115 363 197 c 0
530 335 m 0
 466 335 459 280 459 215 c 0
 459 157 466 74 544 74 c 0
 578 74 609 98 609 184 c 0
 609 288 594 335 530 335 c 0
249 718 m 2
 189 718 156 685 156 625 c 2
 156 -53 l 2
 156 -113 189 -136 249 -136 c 2
 821 -136 l 2
 881 -136 904 -113 904 -53 c 2
 904 625 l 2
 904 685 881 718 821 718 c 2
 249 718 l 2
1000 -84 m 2
 1000 -174 971 -212 881 -212 c 2
 249 -212 l 2
 159 -212 120 -174 120 -84 c 2
 120 625 l 2
 120 708 168 754 249 754 c 2
 851 754 l 2
 941 754 1000 715 1000 625 c 2
 1000 -84 l 2
EndSplineSet
Substitution2: "'smcp' Gemeine nach Kapitaelchen 1" ocircumflex.sc
AlternateSubs2: "'aalt' Alle Alternativen zeigen 1" ocircumflex.sc
Colour: ff00ff
EndChar

StartChar: otilde
Encoding: 245 245 35
Width: 1100
VWidth: 999
Flags: HW
HStem: 77 38<499 588> 376 38<487 583> 479 33<533 598> 515 34<445 513> 544 8
VStem: 363 96<168 317> 616 96<174 322>
LayerCount: 3
Fore
SplineSet
578 486.1 m 0
 596.7 486.1 606.7 492.7 618.8 533.4 c 1
 641.8 525.7 l 1
 630.8 469.6 606.6 436.6 567 436.6 c 0
 547.2 436.6 529.7 448.7 513.2 460.8 c 0
 496.7 471.8 480.2 482.8 464.8 482.8 c 0
 442.8 482.8 434 470.7 425.2 438.8 c 1
 403.2 445.4 l 1
 415.3 501.5 435 532.3 471.3 532.3 c 0
 497.7 532.3 516.5 519.1 533 505.9 c 0
 547.3 494.9 561.5 486.1 578 486.1 c 0
363 197 m 0
 363 300 428 373 536 373 c 0
 662 373 705 282 705 204 c 0
 705 124 649 36 534 36 c 0
 422 36 363 115 363 197 c 0
530 335 m 0
 466 335 459 280 459 215 c 0
 459 157 466 74 544 74 c 0
 578 74 609 98 609 184 c 0
 609 288 594 335 530 335 c 0
249 718 m 2
 189 718 156 685 156 625 c 2
 156 -53 l 2
 156 -113 189 -136 249 -136 c 2
 821 -136 l 2
 881 -136 904 -113 904 -53 c 2
 904 625 l 2
 904 685 881 718 821 718 c 2
 249 718 l 2
1000 -84 m 2
 1000 -174 971 -212 881 -212 c 2
 249 -212 l 2
 159 -212 120 -174 120 -84 c 2
 120 625 l 2
 120 708 168 754 249 754 c 2
 851 754 l 2
 941 754 1000 715 1000 625 c 2
 1000 -84 l 2
EndSplineSet
Substitution2: "'smcp' Gemeine nach Kapitaelchen 1" otilde.sc
AlternateSubs2: "'aalt' Alle Alternativen zeigen 1" otilde.sc
Colour: ff00ff
EndChar

StartChar: odieresis
Encoding: 246 246 36
Width: 1100
VWidth: 999
Flags: HW
HStem: 75 38<499 588> 374 38<487 583> 478 69<436 494 556 614>
VStem: 363 96<166 315> 430 69<483 541> 550 69<483 541> 616 96<172 320>
LayerCount: 3
Fore
SplineSet
556.8 501 m 0
 556.8 526.3 576.6 546 600.8 546 c 0
 625 546 645.8 526.3 645.8 501 c 0
 645.8 476.8 625 457 600.8 457 c 0
 576.6 457 556.8 476.8 556.8 501 c 0
407.2 501 m 0
 407.2 526.3 428 546 452.2 546 c 0
 476.4 546 496.2 526.3 496.2 501 c 0
 496.2 476.8 476.4 457 452.2 457 c 0
 428 457 407.2 476.8 407.2 501 c 0
363 197 m 0
 363 300 428 373 536 373 c 0
 662 373 705 282 705 204 c 0
 705 124 649 36 534 36 c 0
 422 36 363 115 363 197 c 0
530 335 m 0
 466 335 459 280 459 215 c 0
 459 157 466 74 544 74 c 0
 578 74 609 98 609 184 c 0
 609 288 594 335 530 335 c 0
249 718 m 2
 189 718 156 685 156 625 c 2
 156 -53 l 2
 156 -113 189 -136 249 -136 c 2
 821 -136 l 2
 881 -136 904 -113 904 -53 c 2
 904 625 l 2
 904 685 881 718 821 718 c 2
 249 718 l 2
1000 -84 m 2
 1000 -174 971 -212 881 -212 c 2
 249 -212 l 2
 159 -212 120 -174 120 -84 c 2
 120 625 l 2
 120 708 168 754 249 754 c 2
 851 754 l 2
 941 754 1000 715 1000 625 c 2
 1000 -84 l 2
EndSplineSet
Substitution2: "'smcp' Gemeine nach Kapitaelchen 1" odieresis.sc
AlternateSubs2: "'aalt' Alle Alternativen zeigen 1" odieresis.sc
Colour: ff00ff
EndChar

StartChar: divide
Encoding: 247 247 37
Width: 527
VWidth: 999
Flags: HW
HStem: -212 76<-60.7998 645.174> 60 86<238.182 303.644> 190 59<100 427> 285 86<238.746 303.104> 718 36<-51.179 635.472>
VStem: -120 36<-107.953 686.051> 227 87<69.334 134.346 294.018 359.029> 664 96<-118.923 694.8>
LayerCount: 3
Fore
SplineSet
227 326 m 1
 227 329 l 1
 235 349 247 362 270 371 c 1
 272 371 l 1
 294 363 306 351 314 329 c 1
 314 326 l 1
 305 301 294 291 272 285 c 1
 270 285 l 1
 245 291 234 301 227 326 c 1
227 102 m 1
 227 105 l 1
 235 125 247 137 270 146 c 1
 272 146 l 1
 294 138 306 127 314 105 c 1
 314 102 l 1
 305 77 294 66 272 60 c 1
 270 60 l 1
 245 66 234 77 227 102 c 1
427 248 m 1
 427 191 l 1
 100 191 l 1
 100 248 l 1
 427 248 l 1
9 718 m 2
 -51 718 -84 685 -84 625 c 2
 -84 -53 l 2
 -84 -113 -51 -136 9 -136 c 2
 581 -136 l 2
 641 -136 664 -113 664 -53 c 2
 664 625 l 2
 664 685 641 718 581 718 c 2
 9 718 l 2
760 -84 m 2
 760 -174 731 -212 641 -212 c 2
 9 -212 l 2
 -81 -212 -120 -174 -120 -84 c 2
 -120 625 l 2
 -120 708 -72 754 9 754 c 2
 611 754 l 2
 701 754 760 715 760 625 c 2
 760 -84 l 2
EndSplineSet
Colour: ff00ff
EndChar

StartChar: ugrave
Encoding: 249 249 38
Width: 1100
VWidth: 999
Flags: HW
HStem: -212 76<179.2 885.174> 35 48<474.899 551.764> 718 36<188.821 875.472>
VStem: 120 36<-107.953 686.051> 375 89<92.9125 362.036> 588 89<115.094 362.036> 904 96<-118.923 694.8>
LayerCount: 3
Fore
SplineSet
510.7 588.1 m 1
 567.8 486.9 l 2
 571.1 480.3 574.5 471.5 574.5 464.9 c 0
 574.5 457.2 567.8 451.7 561.2 451.7 c 0
 554.6 451.7 545.8 456.1 531.5 468.2 c 2
 432.5 555.1 l 1
 433.7 563.9 l 1
 440.3 571.6 464.5 590.3 494.2 590.3 c 0
 498.6 590.3 507.4 589.2 510.7 588.1 c 1
588 91 m 1
 546 46 523 35 492 35 c 0
 418 35 375 86 375 137 c 2
 375 230 l 2
 375 286 374 322 368 364 c 1
 369 367 l 1
 369 367 394 364 419 364 c 0
 446 364 470 367 470 367 c 1
 471 364 l 1
 464 325 464 286 464 230 c 2
 464 162 l 2
 464 95 489 83 512 83 c 0
 545 83 569 116 588 139 c 1
 588 230 l 2
 588 286 587 322 581 364 c 1
 582 367 l 1
 582 367 607 364 632 364 c 0
 659 364 683 367 683 367 c 1
 684 364 l 1
 677 325 677 286 677 230 c 2
 677 187 l 2
 677 130 683 75 689 43 c 1
 688 40 l 1
 678 42 650 43 640 43 c 0
 629 43 610 42 600 40 c 0
 596 40 593 41 593 43 c 2
 590 91 l 1
 588 91 l 1
249 718 m 2
 189 718 156 685 156 625 c 2
 156 -53 l 2
 156 -113 189 -136 249 -136 c 2
 821 -136 l 2
 881 -136 904 -113 904 -53 c 2
 904 625 l 2
 904 685 881 718 821 718 c 2
 249 718 l 2
1000 -84 m 2
 1000 -174 971 -212 881 -212 c 2
 249 -212 l 2
 159 -212 120 -174 120 -84 c 2
 120 625 l 2
 120 708 168 754 249 754 c 2
 851 754 l 2
 941 754 1000 715 1000 625 c 2
 1000 -84 l 2
EndSplineSet
Substitution2: "'smcp' Gemeine nach Kapitaelchen 1" ugrave.sc
AlternateSubs2: "'aalt' Alle Alternativen zeigen 1" ugrave.sc
Colour: ff00ff
EndChar

StartChar: uacute
Encoding: 250 250 39
Width: 1100
VWidth: 999
Flags: HW
HStem: 83 48<482 557> 88 16<613 620 698 704> 399 15<368 419 419 471 596 647 647 699>
VStem: 375 88<149 410> 603 88<170 410>
LayerCount: 3
Fore
SplineSet
523.3 578.2 m 1
 525.5 579.3 532.1 580.5 536.5 580.5 c 0
 561.8 580.5 577.2 568.4 583.8 560.7 c 1
 591.5 540.8 l 1
 492.5 451.8 l 2
 481.5 441.9 469.4 438.5 461.7 438.5 c 0
 455.1 438.5 448.5 445.2 448.5 450.7 c 0
 448.5 455.1 449.6 462.8 455.1 470.5 c 2
 523.3 578.2 l 1
588 91 m 1
 546 46 523 35 492 35 c 0
 418 35 375 86 375 137 c 2
 375 230 l 2
 375 286 374 322 368 364 c 1
 369 367 l 1
 369 367 394 364 419 364 c 0
 446 364 470 367 470 367 c 1
 471 364 l 1
 464 325 464 286 464 230 c 2
 464 162 l 2
 464 95 489 83 512 83 c 0
 545 83 569 116 588 139 c 1
 588 230 l 2
 588 286 587 322 581 364 c 1
 582 367 l 1
 582 367 607 364 632 364 c 0
 659 364 683 367 683 367 c 1
 684 364 l 1
 677 325 677 286 677 230 c 2
 677 187 l 2
 677 130 683 75 689 43 c 1
 688 40 l 1
 678 42 650 43 640 43 c 0
 629 43 610 42 600 40 c 0
 596 40 593 41 593 43 c 2
 590 91 l 1
 588 91 l 1
249 718 m 2
 189 718 156 685 156 625 c 2
 156 -53 l 2
 156 -113 189 -136 249 -136 c 2
 821 -136 l 2
 881 -136 904 -113 904 -53 c 2
 904 625 l 2
 904 685 881 718 821 718 c 2
 249 718 l 2
1000 -84 m 2
 1000 -174 971 -212 881 -212 c 2
 249 -212 l 2
 159 -212 120 -174 120 -84 c 2
 120 625 l 2
 120 708 168 754 249 754 c 2
 851 754 l 2
 941 754 1000 715 1000 625 c 2
 1000 -84 l 2
EndSplineSet
Substitution2: "'smcp' Gemeine nach Kapitaelchen 1" uacute.sc
AlternateSubs2: "'aalt' Alle Alternativen zeigen 1" uacute.sc
Colour: ff00ff
EndChar

StartChar: ucircumflex
Encoding: 251 251 40
Width: 1100
VWidth: 999
Flags: HW
HStem: 79 48<482 557> 84 16<613 620 698 704> 396 15<368 419 419 471 596 647 647 699>
VStem: 375 88<146 407> 409 190<474 474> 603 88<167 407>
LayerCount: 3
Fore
SplineSet
543 548.8 m 1
 568.3 508.1 599 471.8 629.8 437.7 c 1
 609 422.2 l 1
 573.8 444.2 549.6 460.8 521 490.5 c 1
 490.2 458.6 467 444.2 434 422.2 c 1
 413.2 437.7 l 1
 442.9 471.8 475.8 509.2 500 548.8 c 1
 543 548.8 l 1
588 91 m 1
 546 46 523 35 492 35 c 0
 418 35 375 86 375 137 c 2
 375 230 l 2
 375 286 374 322 368 364 c 1
 369 367 l 1
 369 367 394 364 419 364 c 0
 446 364 470 367 470 367 c 1
 471 364 l 1
 464 325 464 286 464 230 c 2
 464 162 l 2
 464 95 489 83 512 83 c 0
 545 83 569 116 588 139 c 1
 588 230 l 2
 588 286 587 322 581 364 c 1
 582 367 l 1
 582 367 607 364 632 364 c 0
 659 364 683 367 683 367 c 1
 684 364 l 1
 677 325 677 286 677 230 c 2
 677 187 l 2
 677 130 683 75 689 43 c 1
 688 40 l 1
 678 42 650 43 640 43 c 0
 629 43 610 42 600 40 c 0
 596 40 593 41 593 43 c 2
 590 91 l 1
 588 91 l 1
249 718 m 2
 189 718 156 685 156 625 c 2
 156 -53 l 2
 156 -113 189 -136 249 -136 c 2
 821 -136 l 2
 881 -136 904 -113 904 -53 c 2
 904 625 l 2
 904 685 881 718 821 718 c 2
 249 718 l 2
1000 -84 m 2
 1000 -174 971 -212 881 -212 c 2
 249 -212 l 2
 159 -212 120 -174 120 -84 c 2
 120 625 l 2
 120 708 168 754 249 754 c 2
 851 754 l 2
 941 754 1000 715 1000 625 c 2
 1000 -84 l 2
EndSplineSet
Substitution2: "'smcp' Gemeine nach Kapitaelchen 1" ucircumflex.sc
AlternateSubs2: "'aalt' Alle Alternativen zeigen 1" ucircumflex.sc
Colour: ff00ff
EndChar

StartChar: ebreve
Encoding: 277 277 41
Width: 1100
VWidth: 999
Flags: HW
HStem: 80 51<506 621> 270 33<463 588> 380 37<495 574> 463 43<460 563>
VStem: 366 94<183 270 303 312> 411 20<543 567> 588 95<278 344> 593 20<544 567>
LayerCount: 3
Fore
SplineSet
443 570 m 1
 444 530 476 500 524 500 c 0
 559 500 602 522 604 570 c 1
 628 549 l 1
 620 470 562 442 524 442 c 0
 463 442 423 488 418 549 c 1
 443 570 l 1
463 259 m 1
 570 259 l 2
 578 259 581 263 581 269 c 0
 581 323 562 336 534 336 c 0
 517 336 474 326 463 259 c 1
666 129 m 1
 677 123 682 114 682 103 c 1
 653 64 597 36 543 36 c 0
 431 36 366 107 366 193 c 0
 366 307 463 373 534 373 c 0
 634 373 676 302 676 239 c 0
 676 230 671 226 663 226 c 2
 461 226 l 1
 461 120 515 87 558 87 c 0
 599 87 640 101 666 129 c 1
249 718 m 2
 189 718 156 685 156 625 c 2
 156 -53 l 2
 156 -113 189 -136 249 -136 c 2
 821 -136 l 2
 881 -136 904 -113 904 -53 c 2
 904 625 l 2
 904 685 881 718 821 718 c 2
 249 718 l 2
1000 -84 m 2
 1000 -174 971 -212 881 -212 c 2
 249 -212 l 2
 159 -212 120 -174 120 -84 c 2
 120 625 l 2
 120 708 168 754 249 754 c 2
 851 754 l 2
 941 754 1000 715 1000 625 c 2
 1000 -84 l 2
EndSplineSet
Colour: ff00ff
EndChar

StartChar: Edotaccent
Encoding: 278 278 42
Width: 1100
VWidth: 999
Flags: HW
HStem: 115 47<457 630> 352 38<453 616> 546 16<459 665> 555 44<457 625> 640 104<472 547>
VStem: 357 96<163 352 390 554> 458 104<655 730>
LayerCount: 3
Fore
SplineSet
441 636 m 0
 441 664 464 688 493 688 c 0
 522 688 545 664 545 636 c 0
 545 608 522 584 493 584 c 0
 464 584 441 608 441 636 c 0
453 191 m 2
 453 178 454 106 459 88 c 1
 560 88 671 97 671 97 c 1
 672 94 l 1
 672 88 671 75 671 68 c 0
 671 60 672 51 672 41 c 1
 671 38 l 1
 659 40 642 41 626 41 c 2
 405 41 l 2
 379 41 350 38 350 38 c 1
 350 41 l 1
 356 81 357 134 357 191 c 2
 357 374 l 2
 357 431 356 482 350 524 c 1
 351 527 l 1
 351 527 380 524 405 524 c 0
 428 524 618 524 618 524 c 2
 634 524 651 525 663 527 c 1
 665 524 l 1
 664 514 663 504 663 498 c 0
 663 491 664 481 665 475 c 1
 663 472 l 1
 663 472 560 481 459 481 c 1
 454 463 453 387 453 374 c 2
 453 316 l 1
 542 316 576 320 620 323 c 1
 623 321 l 1
 621 314 620 304 620 297 c 0
 620 290 621 279 623 272 c 1
 620 270 l 1
 569 275 489 278 453 278 c 1
 453 191 l 2
249 718 m 2
 189 718 156 685 156 625 c 2
 156 -53 l 2
 156 -113 189 -136 249 -136 c 2
 821 -136 l 2
 881 -136 904 -113 904 -53 c 2
 904 625 l 2
 904 685 881 718 821 718 c 2
 249 718 l 2
1000 -84 m 2
 1000 -174 971 -212 881 -212 c 2
 249 -212 l 2
 159 -212 120 -174 120 -84 c 2
 120 625 l 2
 120 708 168 754 249 754 c 2
 851 754 l 2
 941 754 1000 715 1000 625 c 2
 1000 -84 l 2
EndSplineSet
Position2: "'cpsp' Versalabstaende 1" dx=2 dy=0 dh=4 dv=0
Colour: ff00ff
EndChar

StartChar: edotaccent
Encoding: 279 279 43
Width: 1100
VWidth: 999
Flags: HW
HStem: 82 51<506 621> 272 33<463 588> 382 37<495 574> 488 104<490 565>
VStem: 366 94<185 272 305 314> 476 104<503 578> 588 95<280 346>
LayerCount: 3
Fore
SplineSet
474 509 m 0
 474 537 497 561 526 561 c 0
 555 561 578 537 578 509 c 0
 578 481 555 457 526 457 c 0
 497 457 474 481 474 509 c 0
463 259 m 1
 570 259 l 2
 578 259 581 263 581 269 c 0
 581 323 562 336 534 336 c 0
 517 336 474 326 463 259 c 1
666 129 m 1
 677 123 682 114 682 103 c 1
 653 64 597 36 543 36 c 0
 431 36 366 107 366 193 c 0
 366 307 463 373 534 373 c 0
 634 373 676 302 676 239 c 0
 676 230 671 226 663 226 c 2
 461 226 l 1
 461 120 515 87 558 87 c 0
 599 87 640 101 666 129 c 1
249 718 m 2
 189 718 156 685 156 625 c 2
 156 -53 l 2
 156 -113 189 -136 249 -136 c 2
 821 -136 l 2
 881 -136 904 -113 904 -53 c 2
 904 625 l 2
 904 685 881 718 821 718 c 2
 249 718 l 2
1000 -84 m 2
 1000 -174 971 -212 881 -212 c 2
 249 -212 l 2
 159 -212 120 -174 120 -84 c 2
 120 625 l 2
 120 708 168 754 249 754 c 2
 851 754 l 2
 941 754 1000 715 1000 625 c 2
 1000 -84 l 2
EndSplineSet
Colour: ff00ff
EndChar

StartChar: Eogonek
Encoding: 280 280 44
Width: 1100
VWidth: 999
Flags: HW
HStem: -125 29<529 592> 43 19<581 608> 43 47<457 630> 280 38<453 616> 474 16<459 665> 483 44<457 625>
VStem: 357 96<91 280 318 482> 474 45<-87 -13>
LayerCount: 3
Fore
SplineSet
543 -125 m 0
 504 -125 474 -102 474 -61 c 0
 474 -26.8 502.4 15.5 545.5 41 c 1
 405 41 l 2
 379 41 350 38 350 38 c 1
 350 41 l 1
 356 81 357 134 357 191 c 2
 357 374 l 2
 357 431 356 482 350 524 c 1
 351 527 l 1
 351 527 380 524 405 524 c 0
 428 524 618 524 618 524 c 2
 634 524 651 525 663 527 c 1
 665 524 l 1
 664 514 663 504 663 498 c 0
 663 491 664 481 665 475 c 1
 663 472 l 1
 663 472 560 481 459 481 c 1
 454 463 453 387 453 374 c 2
 453 316 l 1
 542 316 576 320 620 323 c 1
 623 321 l 1
 621 314 620 304 620 297 c 0
 620 290 621 279 623 272 c 1
 620 270 l 1
 569 275 489 278 453 278 c 1
 453 191 l 2
 453 178 454 106 459 88 c 1
 560 88 671 97 671 97 c 1
 672 94 l 1
 672 88 671 75 671 68 c 0
 671 60 672 51 672 41 c 1
 671 38 l 1
 659 40 642 41 626 41 c 2
 600.6 41 l 1
 551.2 30.7 518 -17.4 518 -52 c 0
 518 -76 535 -96 562 -96 c 0
 584 -96 600 -85 614 -69 c 1
 626 -75 l 1
 608 -110 570 -125 543 -125 c 0
249 718 m 2
 189 718 156 685 156 625 c 2
 156 -53 l 2
 156 -113 189 -136 249 -136 c 2
 821 -136 l 2
 881 -136 904 -113 904 -53 c 2
 904 625 l 2
 904 685 881 718 821 718 c 2
 249 718 l 2
1000 -84 m 2
 1000 -174 971 -212 881 -212 c 2
 249 -212 l 2
 159 -212 120 -174 120 -84 c 2
 120 625 l 2
 120 708 168 754 249 754 c 2
 851 754 l 2
 941 754 1000 715 1000 625 c 2
 1000 -84 l 2
EndSplineSet
Position2: "'cpsp' Versalabstaende 1" dx=2 dy=0 dh=4 dv=0
Substitution2: "'c2sc' Versale nach Kapitaelchen 1" eogonek.sc
Colour: ff80cc
EndChar

StartChar: eogonek
Encoding: 281 281 45
Width: 1100
VWidth: 999
Flags: HW
HStem: -121 33<562 614> 16 51<506 621> 206 33<463 588> 316 37<495 574>
VStem: 366 94<119 206 239 248> 508 50<-84 -13> 588 95<215 281>
LayerCount: 3
Fore
SplineSet
463 259 m 1
 570 259 l 2
 578 259 581 263 581 269 c 0
 581 323 562 336 534 336 c 0
 517 336 474 326 463 259 c 1
666 129 m 1
 677 123 682 114 682 103 c 1
 653 64 597 36 543 36 c 0
 431 36 366 107 366 193 c 0
 366 307 463 373 534 373 c 0
 634 373 676 302 676 239 c 0
 676 230 671 226 663 226 c 2
 461 226 l 1
 461 120 515 87 558 87 c 0
 599 87 640 101 666 129 c 1
249 718 m 2
 189 718 156 685 156 625 c 2
 156 -53 l 2
 156 -113 189 -136 249 -136 c 2
 394.6 -136 l 1
 390.9 -128.2 389 -119.2 389 -109 c 0
 389 -57 441 -12 487 18 c 1
 503 6 l 1
 462 -34 439 -61 439 -101 c 0
 439 -117 451 -133 470 -133 c 0
 483 -133 499 -122 510 -111 c 1
 512 -112 l 1
 523 -124 l 1
 519.6 -128.2 516 -132.3 512.1 -136 c 1
 821 -136 l 2
 881 -136 904 -113 904 -53 c 2
 904 625 l 2
 904 685 881 718 821 718 c 2
 249 718 l 2
1000 -84 m 2
 1000 -174 971 -212 881 -212 c 2
 249 -212 l 2
 159 -212 120 -174 120 -84 c 2
 120 625 l 2
 120 708 168 754 249 754 c 2
 851 754 l 2
 941 754 1000 715 1000 625 c 2
 1000 -84 l 2
EndSplineSet
AlternateSubs2: "'aalt' Alle Alternativen zeigen 1" eogonek.sc
Substitution2: "'smcp' Gemeine nach Kapitaelchen 1" eogonek.sc
Colour: ff00ff
EndChar

StartChar: Ecaron
Encoding: 282 282 46
Width: 1100
VWidth: 999
Flags: HW
HStem: -212 76<179.2 885.174> 41 47<455.953 670.434> 278 38<453 617.588> 472 21<459 665> 481 43<456.105 662.434> 718 36<188.821 875.472>
VStem: 120 36<-107.953 686.051> 357 96<88.8829 278 316 479.855> 904 96<-118.923 694.8>
LayerCount: 3
Fore
SplineSet
495 568 m 1
 473 596 447 619 419 640 c 1
 431 655 l 1
 461 642 486 628 511 609 c 1
 539 628 563 643 591 655 c 1
 603 640 l 1
 574 618 550 594 527 568 c 1
 495 568 l 1
453 191 m 2
 453 178 454 106 459 88 c 1
 560 88 671 97 671 97 c 1
 672 94 l 1
 672 88 671 75 671 68 c 0
 671 60 672 51 672 41 c 1
 671 38 l 1
 659 40 642 41 626 41 c 2
 405 41 l 2
 379 41 350 38 350 38 c 1
 350 41 l 1
 356 81 357 134 357 191 c 2
 357 374 l 2
 357 431 356 482 350 524 c 1
 351 527 l 1
 351 527 380 524 405 524 c 0
 428 524 618 524 618 524 c 2
 634 524 651 525 663 527 c 1
 665 524 l 1
 664 514 663 504 663 498 c 0
 663 491 664 481 665 475 c 1
 663 472 l 1
 663 472 560 481 459 481 c 1
 454 463 453 387 453 374 c 2
 453 316 l 1
 542 316 576 320 620 323 c 1
 623 321 l 1
 621 314 620 304 620 297 c 0
 620 290 621 279 623 272 c 1
 620 270 l 1
 569 275 489 278 453 278 c 1
 453 191 l 2
249 718 m 2
 189 718 156 685 156 625 c 2
 156 -53 l 2
 156 -113 189 -136 249 -136 c 2
 821 -136 l 2
 881 -136 904 -113 904 -53 c 2
 904 625 l 2
 904 685 881 718 821 718 c 2
 249 718 l 2
1000 -84 m 2
 1000 -174 971 -212 881 -212 c 2
 249 -212 l 2
 159 -212 120 -174 120 -84 c 2
 120 625 l 2
 120 708 168 754 249 754 c 2
 851 754 l 2
 941 754 1000 715 1000 625 c 2
 1000 -84 l 2
EndSplineSet
Position2: "'cpsp' Versalabstaende 1" dx=2 dy=0 dh=4 dv=0
Substitution2: "'c2sc' Versale nach Kapitaelchen 1" ecaron.sc
Colour: ff00ff
EndChar

StartChar: ecaron
Encoding: 283 283 47
Width: 1100
VWidth: 999
Flags: HW
HStem: -212 76<179.2 885.174> 36 51<502.912 627.15> 226 33<463 580.998> 336 37<491.543 570.209> 718 36<188.821 875.472>
VStem: 120 36<-107.953 686.051> 366 95<132.814 226 259 277.396> 581 95<234.5 314.188> 904 96<-118.923 694.8>
LayerCount: 3
Fore
SplineSet
538 453 m 1
 500 453 l 1
 478 488 450 520 424 550 c 1
 442 564 l 1
 471 543 490 529 518 501 c 1
 544 528 566 543 595 564 c 1
 613 550 l 1
 586 520 559 489 538 453 c 1
463 259 m 1
 570 259 l 2
 578 259 581 263 581 269 c 0
 581 323 562 336 534 336 c 0
 517 336 474 326 463 259 c 1
666 129 m 1
 677 123 682 114 682 103 c 1
 653 64 597 36 543 36 c 0
 431 36 366 107 366 193 c 0
 366 307 463 373 534 373 c 0
 634 373 676 302 676 239 c 0
 676 230 671 226 663 226 c 2
 461 226 l 1
 461 120 515 87 558 87 c 0
 599 87 640 101 666 129 c 1
249 718 m 2
 189 718 156 685 156 625 c 2
 156 -53 l 2
 156 -113 189 -136 249 -136 c 2
 821 -136 l 2
 881 -136 904 -113 904 -53 c 2
 904 625 l 2
 904 685 881 718 821 718 c 2
 249 718 l 2
1000 -84 m 2
 1000 -174 971 -212 881 -212 c 2
 249 -212 l 2
 159 -212 120 -174 120 -84 c 2
 120 625 l 2
 120 708 168 754 249 754 c 2
 851 754 l 2
 941 754 1000 715 1000 625 c 2
 1000 -84 l 2
EndSplineSet
AlternateSubs2: "'aalt' Alle Alternativen zeigen 1" ecaron.sc
Substitution2: "'smcp' Gemeine nach Kapitaelchen 1" ecaron.sc
Colour: ff00ff
EndChar

StartChar: Gcircumflex
Encoding: 284 284 48
Width: 1100
VWidth: 999
Flags: HW
HStem: 102 34<481 649> 568 35<463 617>
VStem: 284 77<270 433> 669 64<173 338>
LayerCount: 3
Fore
SplineSet
557.5 683.3 m 1
 581.7 653.6 611.5 627.2 641.2 605.2 c 1
 628 587.7 l 1
 595 603.1 567.5 618.4 540 639.3 c 1
 509.2 617.3 482.8 602 452 587.7 c 1
 439.8 605.2 l 1
 470.6 628.3 495.9 654.7 522.3 683.3 c 1
 557.5 683.3 l 1
669 129 m 2
 669 185 668 228 662 271 c 1
 663 274 l 1
 663 274 692 271 717 271 c 0
 743 271 772 274 772 274 c 1
 772 271 l 1
 766 232 765 200 765 144 c 0
 765 119 768 109 772 103 c 1
 772 101 l 1
 722 59 645 34 557 34 c 0
 406 34 284 142 284 271 c 0
 284 436 432 534 561 534 c 0
 652 534 740 501 740 501 c 1
 742 498 l 1
 733 462 729 439 727 401 c 1
 719 400 l 1
 688 462 618 492 550 492 c 0
 449 492 392 418 392 286 c 0
 392 187 441 75 574 75 c 0
 615 75 644 79 669 103 c 1
 669 129 l 2
249 718 m 2
 189 718 156 685 156 625 c 2
 156 -53 l 2
 156 -113 189 -136 249 -136 c 2
 821 -136 l 2
 881 -136 904 -113 904 -53 c 2
 904 625 l 2
 904 685 881 718 821 718 c 2
 249 718 l 2
1000 -84 m 2
 1000 -174 971 -212 881 -212 c 2
 249 -212 l 2
 159 -212 120 -174 120 -84 c 2
 120 625 l 2
 120 708 168 754 249 754 c 2
 851 754 l 2
 941 754 1000 715 1000 625 c 2
 1000 -84 l 2
EndSplineSet
Position2: "'cpsp' Versalabstaende 1" dx=2 dy=0 dh=4 dv=0
Colour: ff00ff
EndChar

StartChar: gcircumflex
Encoding: 285 285 49
Width: 1100
VWidth: 999
Flags: HW
HStem: -116 39<430 559> 51 53<448 497> 53 56<451 580> 164 40<449 530> 352 40<446 527>
VStem: 330 81<-58 19> 350 82<221 329> 354 58<107 174> 383 190<449 449> 544 81<224 325> 600 77<-37 34>
LayerCount: 3
Fore
SplineSet
501 547.8 m 1
 526.3 507.1 557 470.8 587.8 436.7 c 1
 567 421.2 l 1
 531.8 443.2 507.6 459.8 479 489.5 c 1
 448.2 457.6 425 443.2 392 421.2 c 1
 371.2 436.7 l 1
 400.9 470.8 433.8 508.2 458 547.8 c 1
 501 547.8 l 1
653 286 m 0
 653 225 605 175 518 175 c 0
 493 175 475 177 460 186 c 0
 458 187 456 188 454 189 c 1
 446 176 442 159 442 144 c 0
 442 111 464 111 485 111 c 0
 489 111 496 112 507 113 c 0
 524 115 541 117 554 117 c 0
 623 117 707 95 707 18 c 0
 707 -63 586 -109 490 -109 c 0
 435 -109 360 -89 360 -24 c 0
 360 9 388 43 426 67 c 1
 404 73 384 93 384 125 c 0
 384 150 395 184 415 202 c 1
 411 207 l 1
 394 220 380 247 380 285 c 0
 380 349 438 399 519 399 c 0
 535 399 550 396 563 392 c 1
 619 395 661 403 697 406 c 1
 700 404 l 1
 698 397 697 387 697 380 c 0
 697 373 698 365 700 358 c 1
 697 356 l 1
 669.9 358.6 636.1 361.2 612.6 363.2 c 1
 636.3 345.8 653 315 653 286 c 0
573 279 m 0
 573 335 556 366 511 366 c 0
 472 366 461 330 461 296 c 0
 461 248 471 207 520 207 c 0
 547 207 573 225 573 279 c 0
249 718 m 2
 189 718 156 685 156 625 c 2
 156 -53 l 2
 156 -113 189 -136 249 -136 c 2
 821 -136 l 2
 881 -136 904 -113 904 -53 c 2
 904 625 l 2
 904 685 881 718 821 718 c 2
 249 718 l 2
1000 -84 m 2
 1000 -174 971 -212 881 -212 c 2
 249 -212 l 2
 159 -212 120 -174 120 -84 c 2
 120 625 l 2
 120 708 168 754 249 754 c 2
 851 754 l 2
 941 754 1000 715 1000 625 c 2
 1000 -84 l 2
477.4 54.5 m 2
 479 54.8 480.5 55 478 55 c 1
 477.4 54.5 l 2
476.7 54 m 1
 449.7 32.5 441 15.6 441 -9 c 0
 441 -60 485 -78 511 -78 c 0
 575 -78 630 -45 630 1 c 0
 630 53 570 57 528 57 c 0
 518.1 57 498.4 54.1 476.7 54 c 1
EndSplineSet
Colour: ff00ff
EndChar

StartChar: Gbreve
Encoding: 286 286 50
Width: 1100
VWidth: 999
Flags: HW
HStem: 102 34<481 649> 568 35<463 617> 630 39<479 596>
VStem: 284 77<270 433> 436 21<684 713> 620 20<686 714> 669 64<173 338>
LayerCount: 3
Fore
SplineSet
600 675 m 1
 589 606 548 580 499 580 c 0
 444 580 400 613 397 675 c 1
 422 675 l 1
 428 646 459 629 499 629 c 0
 536 629 571 646 576 675 c 1
 600 675 l 1
669 129 m 2
 669 185 668 228 662 271 c 1
 663 274 l 1
 663 274 692 271 717 271 c 0
 743 271 772 274 772 274 c 1
 772 271 l 1
 766 232 765 200 765 144 c 0
 765 119 768 109 772 103 c 1
 772 101 l 1
 722 59 645 34 557 34 c 0
 406 34 284 142 284 271 c 0
 284 436 432 534 561 534 c 0
 652 534 740 501 740 501 c 1
 742 498 l 1
 733 462 729 439 727 401 c 1
 719 400 l 1
 688 462 618 492 550 492 c 0
 449 492 392 418 392 286 c 0
 392 187 441 75 574 75 c 0
 615 75 644 79 669 103 c 1
 669 129 l 2
249 718 m 2
 189 718 156 685 156 625 c 2
 156 -53 l 2
 156 -113 189 -136 249 -136 c 2
 821 -136 l 2
 881 -136 904 -113 904 -53 c 2
 904 625 l 2
 904 685 881 718 821 718 c 2
 249 718 l 2
1000 -84 m 2
 1000 -174 971 -212 881 -212 c 2
 249 -212 l 2
 159 -212 120 -174 120 -84 c 2
 120 625 l 2
 120 708 168 754 249 754 c 2
 851 754 l 2
 941 754 1000 715 1000 625 c 2
 1000 -84 l 2
EndSplineSet
Position2: "'cpsp' Versalabstaende 1" dx=2 dy=0 dh=4 dv=0
Substitution2: "'c2sc' Versale nach Kapitaelchen 1" gbreve.sc
Colour: ff00ff
EndChar

StartChar: gbreve
Encoding: 287 287 51
Width: 1100
VWidth: 999
Flags: HW
HStem: -116 39<430 559> 51 53<448 497> 53 56<451 580> 164 40<449 530> 352 40<446 527> 435 43<419 522>
VStem: 330 81<-58 19> 350 82<222 329> 354 58<107 175> 370 20<515 539> 544 81<224 325> 552 20<516 539> 600 77<-37 34>
LayerCount: 3
Fore
SplineSet
397 567 m 1
 398 527 430 497 478 497 c 0
 513 497 556 519 558 567 c 1
 582 546 l 1
 574 467 516 439 478 439 c 0
 417 439 377 485 372 546 c 1
 397 567 l 1
653 286 m 0
 653 225 605 175 518 175 c 0
 493 175 475 177 460 186 c 0
 458 187 456 188 454 189 c 1
 446 176 442 159 442 144 c 0
 442 111 464 111 485 111 c 0
 489 111 496 112 507 113 c 0
 524 115 541 117 554 117 c 0
 623 117 707 95 707 18 c 0
 707 -63 586 -109 490 -109 c 0
 435 -109 360 -89 360 -24 c 0
 360 9 388 43 426 67 c 1
 404 73 384 93 384 125 c 0
 384 150 395 184 415 202 c 1
 411 207 l 1
 394 220 380 247 380 285 c 0
 380 349 438 399 519 399 c 0
 535 399 550 396 563 392 c 1
 619 395 661 403 697 406 c 1
 700 404 l 1
 698 397 697 387 697 380 c 0
 697 373 698 365 700 358 c 1
 697 356 l 1
 669.9 358.6 636.1 361.2 612.6 363.2 c 1
 636.3 345.8 653 315 653 286 c 0
573 279 m 0
 573 335 556 366 511 366 c 0
 472 366 461 330 461 296 c 0
 461 248 471 207 520 207 c 0
 547 207 573 225 573 279 c 0
249 718 m 2
 189 718 156 685 156 625 c 2
 156 -53 l 2
 156 -113 189 -136 249 -136 c 2
 821 -136 l 2
 881 -136 904 -113 904 -53 c 2
 904 625 l 2
 904 685 881 718 821 718 c 2
 249 718 l 2
1000 -84 m 2
 1000 -174 971 -212 881 -212 c 2
 249 -212 l 2
 159 -212 120 -174 120 -84 c 2
 120 625 l 2
 120 708 168 754 249 754 c 2
 851 754 l 2
 941 754 1000 715 1000 625 c 2
 1000 -84 l 2
477.4 54.5 m 2
 479 54.8 480.5 55 478 55 c 1
 477.4 54.5 l 2
476.7 54 m 1
 449.7 32.5 441 15.6 441 -9 c 0
 441 -60 485 -78 511 -78 c 0
 575 -78 630 -45 630 1 c 0
 630 53 570 57 528 57 c 0
 518.1 57 498.4 54.1 476.7 54 c 1
EndSplineSet
AlternateSubs2: "'aalt' Alle Alternativen zeigen 1" gbreve.sc
Substitution2: "'smcp' Gemeine nach Kapitaelchen 1" gbreve.sc
Colour: ff00ff
EndChar

StartChar: Gdotaccent
Encoding: 288 288 52
Width: 1100
VWidth: 999
Flags: HW
HStem: 108 34<481 649> 574 35<463 617> 651 104<518 592>
VStem: 284 77<276 439> 503 104<666 740> 669 64<178 344>
LayerCount: 3
Fore
SplineSet
473 646 m 0
 473 674 496 698 525 698 c 0
 554 698 577 674 577 646 c 0
 577 618 554 594 525 594 c 0
 496 594 473 618 473 646 c 0
669 129 m 2
 669 185 668 228 662 271 c 1
 663 274 l 1
 663 274 692 271 717 271 c 0
 743 271 772 274 772 274 c 1
 772 271 l 1
 766 232 765 200 765 144 c 0
 765 119 768 109 772 103 c 1
 772 101 l 1
 722 59 645 34 557 34 c 0
 406 34 284 142 284 271 c 0
 284 436 432 534 561 534 c 0
 652 534 740 501 740 501 c 1
 742 498 l 1
 733 462 729 439 727 401 c 1
 719 400 l 1
 688 462 618 492 550 492 c 0
 449 492 392 418 392 286 c 0
 392 187 441 75 574 75 c 0
 615 75 644 79 669 103 c 1
 669 129 l 2
249 718 m 2
 189 718 156 685 156 625 c 2
 156 -53 l 2
 156 -113 189 -136 249 -136 c 2
 821 -136 l 2
 881 -136 904 -113 904 -53 c 2
 904 625 l 2
 904 685 881 718 821 718 c 2
 249 718 l 2
1000 -84 m 2
 1000 -174 971 -212 881 -212 c 2
 249 -212 l 2
 159 -212 120 -174 120 -84 c 2
 120 625 l 2
 120 708 168 754 249 754 c 2
 851 754 l 2
 941 754 1000 715 1000 625 c 2
 1000 -84 l 2
EndSplineSet
Position2: "'cpsp' Versalabstaende 1" dx=2 dy=0 dh=4 dv=0
Colour: ff00ff
EndChar

StartChar: gdotaccent
Encoding: 289 289 53
Width: 1100
VWidth: 999
Flags: HW
HStem: -114 39<430 559> 53 53<448 497> 56 56<451 580> 167 40<449 530> 354 40<446 527> 463 104<451 526>
VStem: 330 81<-56 22> 350 82<224 332> 354 58<110 177> 437 104<477 552> 544 81<227 327> 600 77<-34 37>
LayerCount: 3
Fore
SplineSet
431 508 m 0
 431 536 454 560 483 560 c 0
 512 560 535 536 535 508 c 0
 535 480 512 456 483 456 c 0
 454 456 431 480 431 508 c 0
653 286 m 0
 653 225 605 175 518 175 c 0
 493 175 475 177 460 186 c 0
 458 187 456 188 454 189 c 1
 446 176 442 159 442 144 c 0
 442 111 464 111 485 111 c 0
 489 111 496 112 507 113 c 0
 524 115 541 117 554 117 c 0
 623 117 707 95 707 18 c 0
 707 -63 586 -109 490 -109 c 0
 435 -109 360 -89 360 -24 c 0
 360 9 388 43 426 67 c 1
 404 73 384 93 384 125 c 0
 384 150 395 184 415 202 c 1
 411 207 l 1
 394 220 380 247 380 285 c 0
 380 349 438 399 519 399 c 0
 535 399 550 396 563 392 c 1
 619 395 661 403 697 406 c 1
 700 404 l 1
 698 397 697 387 697 380 c 0
 697 373 698 365 700 358 c 1
 697 356 l 1
 669.9 358.6 636.1 361.2 612.6 363.2 c 1
 636.3 345.8 653 315 653 286 c 0
573 279 m 0
 573 335 556 366 511 366 c 0
 472 366 461 330 461 296 c 0
 461 248 471 207 520 207 c 0
 547 207 573 225 573 279 c 0
249 718 m 2
 189 718 156 685 156 625 c 2
 156 -53 l 2
 156 -113 189 -136 249 -136 c 2
 821 -136 l 2
 881 -136 904 -113 904 -53 c 2
 904 625 l 2
 904 685 881 718 821 718 c 2
 249 718 l 2
1000 -84 m 2
 1000 -174 971 -212 881 -212 c 2
 249 -212 l 2
 159 -212 120 -174 120 -84 c 2
 120 625 l 2
 120 708 168 754 249 754 c 2
 851 754 l 2
 941 754 1000 715 1000 625 c 2
 1000 -84 l 2
477.4 54.5 m 2
 479 54.8 480.5 55 478 55 c 1
 477.4 54.5 l 2
476.7 54 m 1
 449.7 32.5 441 15.6 441 -9 c 0
 441 -60 485 -78 511 -78 c 0
 575 -78 630 -45 630 1 c 0
 630 53 570 57 528 57 c 0
 518.1 57 498.4 54.1 476.7 54 c 1
EndSplineSet
Colour: ff00ff
EndChar

StartChar: Gcommaaccent
Encoding: 290 290 54
Width: 1100
VWidth: 999
Flags: HW
HStem: -130 13<507 523> -58 61<507 561> 35 34<481 649> 501 35<463 617>
VStem: 284 77<203 366> 563 24<-90 -38> 669 64<106 271>
LayerCount: 3
Fore
SplineSet
550 10 m 0
 580 10 597 -18 597 -44 c 0
 597 -64 584 -121 517 -124 c 1
 514 -111 l 1
 571 -100 573 -56 573 -52 c 0
 573 -49 572 -46 571 -44 c 1
 563 -49 556 -51 550 -51 c 0
 519 -51 512 -32 512 -20 c 0
 512 -8 523 10 550 10 c 0
669 129 m 2
 669 185 668 228 662 271 c 1
 663 274 l 1
 663 274 692 271 717 271 c 0
 743 271 772 274 772 274 c 1
 772 271 l 1
 766 232 765 200 765 144 c 0
 765 119 768 109 772 103 c 1
 772 101 l 1
 722 59 645 34 557 34 c 0
 406 34 284 142 284 271 c 0
 284 436 432 534 561 534 c 0
 652 534 740 501 740 501 c 1
 742 498 l 1
 733 462 729 439 727 401 c 1
 719 400 l 1
 688 462 618 492 550 492 c 0
 449 492 392 418 392 286 c 0
 392 187 441 75 574 75 c 0
 615 75 644 79 669 103 c 1
 669 129 l 2
249 718 m 2
 189 718 156 685 156 625 c 2
 156 -53 l 2
 156 -113 189 -136 249 -136 c 2
 821 -136 l 2
 881 -136 904 -113 904 -53 c 2
 904 625 l 2
 904 685 881 718 821 718 c 2
 249 718 l 2
1000 -84 m 2
 1000 -174 971 -212 881 -212 c 2
 249 -212 l 2
 159 -212 120 -174 120 -84 c 2
 120 625 l 2
 120 708 168 754 249 754 c 2
 851 754 l 2
 941 754 1000 715 1000 625 c 2
 1000 -84 l 2
EndSplineSet
Position2: "'cpsp' Versalabstaende 1" dx=2 dy=0 dh=4 dv=0
Colour: ff00ff
EndChar

StartChar: gcommaaccent
Encoding: 291 291 55
Width: 1100
VWidth: 999
Flags: HW
HStem: -212 76<179.2 885.174> -109 31<467.437 579.875> 57 60<457.178 475.823 477.03 616.503> 175 32<479.917 556.258> 366 33<475.704 554.01> 482 62<484.42 542.256> 604 13<521.546 539> 718 36<188.821 875.472>
VStem: 120 36<-107.953 686.051> 360 81<-58.8228 28.3205> 380 81<220.21 347.133> 384 58<112.953 188.27> 459 24<537 576.403> 573 80<221.795 345.025> 630 77<-36.8608 41.4526> 904 96<-118.923 694.8>
LayerCount: 3
Fore
SplineSet
506 482 m 0
 476 482 459 510 459 537 c 0
 459 557 472 614 539 617 c 1
 542 604 l 1
 485 593 483 548 483 545 c 0
 483 542 484 539 484 537 c 1
 493 542 500 544 506 544 c 0
 536 544 544 525 544 512 c 0
 544 500 532 482 506 482 c 0
653 286 m 0
 653 225 605 175 518 175 c 0
 493 175 475 177 460 186 c 0
 458 187 456 188 454 189 c 1
 446 176 442 159 442 144 c 0
 442 111 464 111 485 111 c 0
 489 111 496 112 507 113 c 0
 524 115 541 117 554 117 c 0
 623 117 707 95 707 18 c 0
 707 -63 586 -109 490 -109 c 0
 435 -109 360 -89 360 -24 c 0
 360 9 388 43 426 67 c 1
 404 73 384 93 384 125 c 0
 384 150 395 184 415 202 c 1
 411 207 l 1
 394 220 380 247 380 285 c 0
 380 349 438 399 519 399 c 0
 535 399 550 396 563 392 c 1
 619 395 661 403 697 406 c 1
 700 404 l 1
 698 397 697 387 697 380 c 0
 697 373 698 365 700 358 c 1
 697 356 l 1
 669.9 358.6 636.1 361.2 612.6 363.2 c 1
 636.3 345.8 653 315 653 286 c 0
573 279 m 0
 573 335 556 366 511 366 c 0
 472 366 461 330 461 296 c 0
 461 248 471 207 520 207 c 0
 547 207 573 225 573 279 c 0
249 718 m 2
 189 718 156 685 156 625 c 2
 156 -53 l 2
 156 -113 189 -136 249 -136 c 2
 821 -136 l 2
 881 -136 904 -113 904 -53 c 2
 904 625 l 2
 904 685 881 718 821 718 c 2
 249 718 l 2
1000 -84 m 2
 1000 -174 971 -212 881 -212 c 2
 249 -212 l 2
 159 -212 120 -174 120 -84 c 2
 120 625 l 2
 120 708 168 754 249 754 c 2
 851 754 l 2
 941 754 1000 715 1000 625 c 2
 1000 -84 l 2
477.4 54.5 m 2
 479 54.8 480.5 55 478 55 c 1
 477.4 54.5 l 2
476.7 54 m 1
 449.7 32.5 441 15.6 441 -9 c 0
 441 -60 485 -78 511 -78 c 0
 575 -78 630 -45 630 1 c 0
 630 53 570 57 528 57 c 0
 518.1 57 498.4 54.1 476.7 54 c 1
EndSplineSet
Colour: ff00ff
EndChar

StartChar: Hcircumflex
Encoding: 292 292 56
Width: 1100
VWidth: 999
Flags: HW
HStem: 108 16<370 426 426 481 676 732 732 787> 343 39<463 708> 581 15<370 426 426 481 676 732 732 787>
VStem: 378 96<112 592> 684 96<112 592>
LayerCount: 3
Fore
SplineSet
646 374 m 2
 646 431 644 482 638 524 c 1
 640 527 l 1
 640 527 668 524 694 524 c 0
 720 524 749 527 749 527 c 1
 750 524 l 1
 744 485 742 431 742 374 c 2
 742 191 l 2
 742 134 744 83 750 41 c 1
 748 38 l 1
 748 38 720 41 694 41 c 0
 668 41 639 38 639 38 c 1
 638 41 l 1
 644 81 646 134 646 191 c 2
 646 274 l 1
 436 274 l 1
 436 191 l 2
 436 134 438 83 444 41 c 1
 442 38 l 1
 442 38 414 41 388 41 c 0
 362 41 333 38 333 38 c 1
 332 41 l 1
 338 81 340 134 340 191 c 2
 340 374 l 2
 340 431 338 482 332 524 c 1
 334 527 l 1
 334 527 362 524 388 524 c 0
 414 524 443 527 443 527 c 1
 444 524 l 1
 438 485 436 431 436 374 c 2
 436 313 l 1
 646 313 l 1
 646 374 l 2
249 718 m 2
 189 718 156 685 156 625 c 2
 156 -53 l 2
 156 -113 189 -136 249 -136 c 2
 821 -136 l 2
 881 -136 904 -113 904 -53 c 2
 904 625 l 2
 904 685 881 718 821 718 c 2
 249 718 l 2
1000 -84 m 2
 1000 -174 971 -212 881 -212 c 2
 249 -212 l 2
 159 -212 120 -174 120 -84 c 2
 120 625 l 2
 120 708 168 754 249 754 c 2
 851 754 l 2
 941 754 1000 715 1000 625 c 2
 1000 -84 l 2
594.5 682.3 m 1
 618.7 652.6 648.5 626.2 678.2 604.2 c 1
 665 586.7 l 1
 632 602.1 604.5 617.4 577 638.3 c 1
 546.2 616.3 519.8 601 489 586.7 c 1
 476.8 604.2 l 1
 507.6 627.3 532.9 653.7 559.3 682.3 c 1
 594.5 682.3 l 1
EndSplineSet
Position2: "'cpsp' Versalabstaende 1" dx=2 dy=0 dh=4 dv=0
Colour: ff00ff
EndChar

StartChar: hcircumflex
Encoding: 293 293 57
Width: 1100
VWidth: 999
Flags: HW
HStem: 112 16<367 419 419 470 602 653 653 705> 394 50<520 598> 623 15<454 466>
VStem: 374 88<117 354 385 616> 609 88<117 384>
LayerCount: 3
Fore
SplineSet
553.5 704.3 m 1
 577.7 674.6 607.5 648.2 637.2 626.2 c 1
 624 608.7 l 1
 591 624.1 563.5 639.4 536 660.3 c 1
 505.2 638.3 478.8 623 448 608.7 c 1
 435.8 626.2 l 1
 466.6 649.3 491.9 675.7 518.3 704.3 c 1
 553.5 704.3 l 1
594 180 m 2
 594 252 l 2
 594 313 580 325 538 325 c 0
 516 325 499 305 463 270 c 1
 463 180 l 2
 463 123 464 88 470 45 c 1
 469 43 l 1
 469 43 444 45 419 45 c 0
 392 45 368 43 368 43 c 1
 367 45 l 1
 373 85 374 124 374 180 c 2
 374 406 l 2
 374 463 373 515 367 547 c 1
 368 550 l 1
 399 552 445 561 464 568 c 1
 468 568 470 566 470 561 c 0
 465 515 463 476 463 421 c 2
 463 315 l 1
 513 365 542 374 572 374 c 0
 626 374 683 335 683 258 c 2
 683 180 l 2
 683 123 684 88 690 45 c 1
 689 43 l 1
 689 43 664 45 638 45 c 0
 612 45 587 43 587 43 c 1
 587 45 l 1
 593 85 594 124 594 180 c 2
249 718 m 2
 189 718 156 685 156 625 c 2
 156 -53 l 2
 156 -113 189 -136 249 -136 c 2
 821 -136 l 2
 881 -136 904 -113 904 -53 c 2
 904 625 l 2
 904 685 881 718 821 718 c 2
 249 718 l 2
1000 -84 m 2
 1000 -174 971 -212 881 -212 c 2
 249 -212 l 2
 159 -212 120 -174 120 -84 c 2
 120 625 l 2
 120 708 168 754 249 754 c 2
 851 754 l 2
 941 754 1000 715 1000 625 c 2
 1000 -84 l 2
EndSplineSet
Colour: ff00ff
EndChar

StartChar: Hbar
Encoding: 294 294 58
Width: 1100
VWidth: 999
Flags: HW
HStem: 78 16<377 432 432 488 683 738 738 794> 314 39<470 714> 465 26<338 799> 552 15<377 432 432 488 683 738 738 794>
VStem: 384 96<83 562> 690 96<83 562>
LayerCount: 3
Fore
SplineSet
340 374 m 2
 340 431 338 482 332 524 c 1
 334 527 l 1
 334 527 362 524 388 524 c 0
 414 524 443 527 443 527 c 1
 444 524 l 1
 442.4 513.6 441.1 502.2 440 490 c 1
 641.9 490 l 1
 640.9 501.9 639.5 513.2 638 524 c 1
 640 527 l 1
 640 527 668 524 694 524 c 0
 720 524 749 527 749 527 c 1
 750 524 l 1
 748.4 513.6 747.1 502.2 746 490 c 1
 799 490 l 1
 799 465 l 1
 744.2 465 l 1
 742.6 437 742 406 742 374 c 2
 742 191 l 2
 742 134 744 83 750 41 c 1
 748 38 l 1
 748 38 720 41 694 41 c 0
 668 41 639 38 639 38 c 1
 638 41 l 1
 644 81 646 134 646 191 c 2
 646 274 l 1
 436 274 l 1
 436 191 l 2
 436 134 438 83 444 41 c 1
 442 38 l 1
 442 38 414 41 388 41 c 0
 362 41 333 38 333 38 c 1
 332 41 l 1
 338 81 340 134 340 191 c 2
 340 374 l 2
249 718 m 2
 189 718 156 685 156 625 c 2
 156 -53 l 2
 156 -113 189 -136 249 -136 c 2
 821 -136 l 2
 881 -136 904 -113 904 -53 c 2
 904 625 l 2
 904 685 881 718 821 718 c 2
 249 718 l 2
1000 -84 m 2
 1000 -174 971 -212 881 -212 c 2
 249 -212 l 2
 159 -212 120 -174 120 -84 c 2
 120 625 l 2
 120 708 168 754 249 754 c 2
 851 754 l 2
 941 754 1000 715 1000 625 c 2
 1000 -84 l 2
646 313 m 1
 646 374 l 2
 646 406.5 645.4 437 643.7 465 c 1
 438.2 465 l 1
 436.6 437 436 406 436 374 c 2
 436 313 l 1
 646 313 l 1
EndSplineSet
Position2: "'cpsp' Versalabstaende 1" dx=2 dy=0 dh=4 dv=0
Colour: ff80cc
EndChar

StartChar: hbar
Encoding: 295 295 59
Width: 1100
VWidth: 999
Flags: HW
HStem: 85 16<354 406 406 458 589 641 641 692> 367 50<508 585> 484 29<319 555> 595 15<442 453>
VStem: 362 88<89 326 357 588> 596 88<89 356>
LayerCount: 3
Fore
SplineSet
594 180 m 2
 594 252 l 2
 594 313 580 325 538 325 c 0
 516 325 499 305 463 270 c 1
 463 180 l 2
 463 123 464 88 470 45 c 1
 469 43 l 1
 469 43 444 45 419 45 c 0
 392 45 368 43 368 43 c 1
 367 45 l 1
 373 85 374 124 374 180 c 2
 374 406 l 2
 374 433.8 373.7 460.3 372.8 484 c 1
 319 484 l 1
 319 514 l 1
 371.1 514 l 1
 370.1 526.5 368.8 537.6 367 547 c 1
 368 550 l 1
 399 552 445 561 464 568 c 1
 468 568 470 566 470 561 c 0
 468.2 544.8 466.9 529.5 465.8 514 c 1
 555 514 l 1
 555 484 l 1
 464.2 484 l 1
 463.4 464.7 463 444.3 463 421 c 2
 463 315 l 1
 513 365 542 374 572 374 c 0
 626 374 683 335 683 258 c 2
 683 180 l 2
 683 123 684 88 690 45 c 1
 689 43 l 1
 689 43 664 45 638 45 c 0
 612 45 587 43 587 43 c 1
 587 45 l 1
 593 85 594 124 594 180 c 2
249 718 m 2
 189 718 156 685 156 625 c 2
 156 -53 l 2
 156 -113 189 -136 249 -136 c 2
 821 -136 l 2
 881 -136 904 -113 904 -53 c 2
 904 625 l 2
 904 685 881 718 821 718 c 2
 249 718 l 2
1000 -84 m 2
 1000 -174 971 -212 881 -212 c 2
 249 -212 l 2
 159 -212 120 -174 120 -84 c 2
 120 625 l 2
 120 708 168 754 249 754 c 2
 851 754 l 2
 941 754 1000 715 1000 625 c 2
 1000 -84 l 2
EndSplineSet
Colour: ff80cc
EndChar

StartChar: Itilde
Encoding: 296 296 60
Width: 1100
VWidth: 999
Flags: HW
HStem: 108 16<492 548 548 603> 581 15<492 548 548 603> 633 33<542 607> 669 34<453 521> 698 8
VStem: 500 96<112 592>
LayerCount: 3
Fore
SplineSet
612 614.1 m 0
 630.7 614.1 640.7 620.7 652.8 661.4 c 1
 675.8 653.7 l 1
 664.8 597.6 640.6 564.6 601 564.6 c 0
 581.2 564.6 563.7 576.7 547.2 588.8 c 0
 530.7 599.8 514.2 610.8 498.8 610.8 c 0
 476.8 610.8 468 598.7 459.2 566.8 c 1
 437.2 573.4 l 1
 449.3 629.5 469 660.3 505.3 660.3 c 0
 531.7 660.3 550.5 647.1 567 633.9 c 0
 581.3 622.9 595.5 614.1 612 614.1 c 0
502 374 m 2
 502 431 500 482 494 524 c 1
 496 527 l 1
 496 527 524 524 550 524 c 0
 576 524 605 527 605 527 c 1
 606 524 l 1
 600 485 598 431 598 374 c 2
 598 191 l 2
 598 134 600 83 606 41 c 1
 604 38 l 1
 604 38 576 41 550 41 c 0
 524 41 495 38 495 38 c 1
 494 41 l 1
 500 81 502 134 502 191 c 2
 502 374 l 2
249 718 m 2
 189 718 156 685 156 625 c 2
 156 -53 l 2
 156 -113 189 -136 249 -136 c 2
 821 -136 l 2
 881 -136 904 -113 904 -53 c 2
 904 625 l 2
 904 685 881 718 821 718 c 2
 249 718 l 2
1000 -84 m 2
 1000 -174 971 -212 881 -212 c 2
 249 -212 l 2
 159 -212 120 -174 120 -84 c 2
 120 625 l 2
 120 708 168 754 249 754 c 2
 851 754 l 2
 941 754 1000 715 1000 625 c 2
 1000 -84 l 2
EndSplineSet
Position2: "'cpsp' Versalabstaende 1" dx=2 dy=0 dh=4 dv=0
Colour: ff00ff
EndChar

StartChar: itilde
Encoding: 297 297 61
Width: 306
VWidth: 999
Flags: HW
HStem: 76 16<100 152 152 203> 393 15<187 199> 473 33<149 208> 509 34<69 131> 538 8
VStem: 107 88<81 385>
LayerCount: 3
Fore
SplineSet
211.1 486.1 m 0
 227.9 486.1 236.9 492.7 247.8 533.4 c 1
 268.6 525.7 l 1
 258.7 469.6 236.8 436.6 201.2 436.6 c 0
 183.4 436.6 167.5 448.7 152.7 460.8 c 0
 137.9 471.8 123.1 482.8 109.2 482.8 c 0
 89.4 482.8 81.4 470.7 73.5 438.8 c 1
 53.7 445.4 l 1
 64.6 501.5 82.4 532.3 115.1 532.3 c 0
 138.9 532.3 155.8 519.1 170.6 505.9 c 0
 183.5 494.9 196.3 486.1 211.1 486.1 c 0
109 214 m 2
 109 270 107 313 101 346 c 1
 103 348 l 1
 133 350 179 359 198 367 c 1
 202 367 205 365 205 359 c 0
 199 313 197 282 197 226 c 2
 197 173 l 2
 197 115 199 80 205 37 c 1
 203 35 l 1
 203 35 178 37 153 37 c 0
 127 37 102 35 102 35 c 1
 101 37 l 1
 107 78 109 116 109 173 c 2
 109 214 l 2
-131 718 m 2
 -191 718 -224 685 -224 625 c 2
 -224 -53 l 2
 -224 -113 -191 -136 -131 -136 c 2
 441 -136 l 2
 501 -136 524 -113 524 -53 c 2
 524 625 l 2
 524 685 501 718 441 718 c 2
 -131 718 l 2
620 -84 m 2
 620 -174 591 -212 501 -212 c 2
 -131 -212 l 2
 -221 -212 -260 -174 -260 -84 c 2
 -260 625 l 2
 -260 708 -212 754 -131 754 c 2
 471 754 l 2
 561 754 620 715 620 625 c 2
 620 -84 l 2
EndSplineSet
Colour: ff00ff
EndChar

StartChar: Imacron
Encoding: 298 298 62
Width: 1100
VWidth: 999
Flags: HW
HStem: 105 16<492 548 548 603> 578 15<492 548 548 603> 657 33<427 636>
VStem: 426 211<657 690> 500 96<109 589>
LayerCount: 3
Fore
SplineSet
659 619 m 2
 454 619 l 2
 445 619 442 626 442 633 c 0
 442 642 451 657 461 657 c 2
 668 657 l 2
 676 657 679 650 679 644 c 0
 679 634 670 619 659 619 c 2
502 374 m 2
 502 431 500 482 494 524 c 1
 496 527 l 1
 496 527 524 524 550 524 c 0
 576 524 605 527 605 527 c 1
 606 524 l 1
 600 485 598 431 598 374 c 2
 598 191 l 2
 598 134 600 83 606 41 c 1
 604 38 l 1
 604 38 576 41 550 41 c 0
 524 41 495 38 495 38 c 1
 494 41 l 1
 500 81 502 134 502 191 c 2
 502 374 l 2
249 718 m 2
 189 718 156 685 156 625 c 2
 156 -53 l 2
 156 -113 189 -136 249 -136 c 2
 821 -136 l 2
 881 -136 904 -113 904 -53 c 2
 904 625 l 2
 904 685 881 718 821 718 c 2
 249 718 l 2
1000 -84 m 2
 1000 -174 971 -212 881 -212 c 2
 249 -212 l 2
 159 -212 120 -174 120 -84 c 2
 120 625 l 2
 120 708 168 754 249 754 c 2
 851 754 l 2
 941 754 1000 715 1000 625 c 2
 1000 -84 l 2
EndSplineSet
Position2: "'cpsp' Versalabstaende 1" dx=2 dy=0 dh=4 dv=0
Colour: ff00ff
EndChar

StartChar: imacron
Encoding: 299 299 63
Width: 306
VWidth: 999
Flags: HW
HStem: 70 16<99 151 151 203> 387 15<187 198> 476 33<44 232>
VStem: 43 190<476 509> 107 88<75 379>
LayerCount: 3
Fore
SplineSet
251.9 473 m 2
 67.4 473 l 2
 59.3 473 56.6 480 56.6 487 c 0
 56.6 496 64.7 511 73.7 511 c 2
 260 511 l 2
 267.2 511 269.9 504 269.9 498 c 0
 269.9 488 261.8 473 251.9 473 c 2
109 214 m 2
 109 270 107 313 101 346 c 1
 103 348 l 1
 133 350 179 359 198 367 c 1
 202 367 205 365 205 359 c 0
 199 313 197 282 197 226 c 2
 197 173 l 2
 197 115 199 80 205 37 c 1
 203 35 l 1
 203 35 178 37 153 37 c 0
 127 37 102 35 102 35 c 1
 101 37 l 1
 107 78 109 116 109 173 c 2
 109 214 l 2
-131 718 m 2
 -191 718 -224 685 -224 625 c 2
 -224 -53 l 2
 -224 -113 -191 -136 -131 -136 c 2
 441 -136 l 2
 501 -136 524 -113 524 -53 c 2
 524 625 l 2
 524 685 501 718 441 718 c 2
 -131 718 l 2
620 -84 m 2
 620 -174 591 -212 501 -212 c 2
 -131 -212 l 2
 -221 -212 -260 -174 -260 -84 c 2
 -260 625 l 2
 -260 708 -212 754 -131 754 c 2
 471 754 l 2
 561 754 620 715 620 625 c 2
 620 -84 l 2
EndSplineSet
Colour: ff00ff
EndChar

StartChar: Ibreve
Encoding: 300 300 64
Width: 1100
VWidth: 999
Flags: HW
HStem: 108 16<489 545 545 600> 581 15<489 545 545 600> 629 39<470 587>
VStem: 427 21<684 713> 497 96<112 592> 610 20<686 714>
LayerCount: 3
Fore
SplineSet
642 674 m 1
 631 605 590 579 541 579 c 0
 486 579 442 612 439 674 c 1
 464 674 l 1
 470 645 501 628 541 628 c 0
 578 628 613 645 618 674 c 1
 642 674 l 1
502 374 m 2
 502 431 500 482 494 524 c 1
 496 527 l 1
 496 527 524 524 550 524 c 0
 576 524 605 527 605 527 c 1
 606 524 l 1
 600 485 598 431 598 374 c 2
 598 191 l 2
 598 134 600 83 606 41 c 1
 604 38 l 1
 604 38 576 41 550 41 c 0
 524 41 495 38 495 38 c 1
 494 41 l 1
 500 81 502 134 502 191 c 2
 502 374 l 2
249 718 m 2
 189 718 156 685 156 625 c 2
 156 -53 l 2
 156 -113 189 -136 249 -136 c 2
 821 -136 l 2
 881 -136 904 -113 904 -53 c 2
 904 625 l 2
 904 685 881 718 821 718 c 2
 249 718 l 2
1000 -84 m 2
 1000 -174 971 -212 881 -212 c 2
 249 -212 l 2
 159 -212 120 -174 120 -84 c 2
 120 625 l 2
 120 708 168 754 249 754 c 2
 851 754 l 2
 941 754 1000 715 1000 625 c 2
 1000 -84 l 2
EndSplineSet
Position2: "'cpsp' Versalabstaende 1" dx=2 dy=0 dh=4 dv=0
Colour: ff00ff
EndChar

StartChar: ibreve
Encoding: 301 301 65
Width: 306
VWidth: 999
Flags: HW
HStem: 79 16<100 152 152 203> 396 15<187 199> 459 43<93 185>
VStem: 48 18<539 563> 107 88<83 388> 212 18<540 563>
LayerCount: 3
Fore
SplineSet
95.1 571 m 1
 96 531 124.8 501 168 501 c 0
 199.5 501 238.2 523 240 571 c 1
 261.6 550 l 1
 254.4 471 202.2 443 168 443 c 0
 113.1 443 77.1 489 72.6 550 c 1
 95.1 571 l 1
109 214 m 2
 109 270 107 313 101 346 c 1
 103 348 l 1
 133 350 179 359 198 367 c 1
 202 367 205 365 205 359 c 0
 199 313 197 282 197 226 c 2
 197 173 l 2
 197 115 199 80 205 37 c 1
 203 35 l 1
 203 35 178 37 153 37 c 0
 127 37 102 35 102 35 c 1
 101 37 l 1
 107 78 109 116 109 173 c 2
 109 214 l 2
-131 718 m 2
 -191 718 -224 685 -224 625 c 2
 -224 -53 l 2
 -224 -113 -191 -136 -131 -136 c 2
 441 -136 l 2
 501 -136 524 -113 524 -53 c 2
 524 625 l 2
 524 685 501 718 441 718 c 2
 -131 718 l 2
620 -84 m 2
 620 -174 591 -212 501 -212 c 2
 -131 -212 l 2
 -221 -212 -260 -174 -260 -84 c 2
 -260 625 l 2
 -260 708 -212 754 -131 754 c 2
 471 754 l 2
 561 754 620 715 620 625 c 2
 620 -84 l 2
EndSplineSet
Colour: ff00ff
EndChar

StartChar: Iogonek
Encoding: 302 302 66
Width: 1100
VWidth: 999
Flags: HW
HStem: -126 29<463 526> 40 16<480 536 536 591> 42 19<515 542> 514 15<480 536 536 591>
VStem: 407 45<-88 -14> 488 96<45 524>
LayerCount: 3
Fore
SplineSet
477 -126 m 0
 437 -126 407 -103 407 -62 c 0
 407 -23.8 443 24.5 495 48.2 c 1
 500.2 87.3 502 137.3 502 191 c 2
 502 374 l 2
 502 431 500 482 494 524 c 1
 496 527 l 1
 496 527 524 524 550 524 c 0
 576 524 605 527 605 527 c 1
 606 524 l 1
 600 485 598 431 598 374 c 2
 598 191 l 2
 598 134 600 83 606 41 c 1
 604 38 l 1
 604 38 576 41 550 41 c 0
 546.4 41 542.8 40.9 539.2 40.8 c 0
 487.2 32.6 452 -17.2 452 -52 c 0
 452 -76 469 -97 496 -97 c 0
 518 -97 534 -86 548 -70 c 1
 560 -76 l 1
 542 -111 504 -126 477 -126 c 0
249 718 m 2
 189 718 156 685 156 625 c 2
 156 -53 l 2
 156 -113 189 -136 249 -136 c 2
 821 -136 l 2
 881 -136 904 -113 904 -53 c 2
 904 625 l 2
 904 685 881 718 821 718 c 2
 249 718 l 2
1000 -84 m 2
 1000 -174 971 -212 881 -212 c 2
 249 -212 l 2
 159 -212 120 -174 120 -84 c 2
 120 625 l 2
 120 708 168 754 249 754 c 2
 851 754 l 2
 941 754 1000 715 1000 625 c 2
 1000 -84 l 2
EndSplineSet
Position2: "'cpsp' Versalabstaende 1" dx=2 dy=0 dh=4 dv=0
Colour: ff80cc
EndChar

StartChar: iogonek
Encoding: 303 303 67
Width: 1100
VWidth: 999
Flags: HW
HStem: -112 29<454 516> 54 16<478 530 530 581> 56 19<504 532> 371 15<565 577> 455 104<492 567>
VStem: 398 45<-74 -0> 478 104<469 544> 485 88<59 363>
LayerCount: 3
Fore
SplineSet
467 -112 m 0
 427 -112 398 -89 398 -48 c 0
 398 -12.9 427.5 30.9 472.7 56.1 c 1
 477.4 92.7 479 128.6 479 180 c 2
 479 221 l 2
 479 277 477 320 471 353 c 1
 473 355 l 1
 503 357 549 366 568 374 c 1
 572 374 575 372 575 366 c 0
 569 320 567 289 567 233 c 2
 567 180 l 2
 567 122 569 87 575 44 c 1
 573 42 l 1
 573 42 548 44 523 44 c 0
 513.4 44 504 43.7 495.9 43.4 c 1
 463 24.6 443 -11.4 443 -39 c 0
 443 -63 459 -83 486 -83 c 0
 508 -83 524 -72 538 -56 c 1
 550 -62 l 1
 532 -97 494 -112 467 -112 c 0
249 718 m 2
 189 718 156 685 156 625 c 2
 156 -53 l 2
 156 -113 189 -136 249 -136 c 2
 821 -136 l 2
 881 -136 904 -113 904 -53 c 2
 904 625 l 2
 904 685 881 718 821 718 c 2
 249 718 l 2
1000 -84 m 2
 1000 -174 971 -212 881 -212 c 2
 249 -212 l 2
 159 -212 120 -174 120 -84 c 2
 120 625 l 2
 120 708 168 754 249 754 c 2
 851 754 l 2
 941 754 1000 715 1000 625 c 2
 1000 -84 l 2
473 518 m 0
 473 546 496 570 525 570 c 0
 554 570 577 546 577 518 c 0
 577 490 554 466 525 466 c 0
 496 466 473 490 473 518 c 0
EndSplineSet
Colour: ff80cc
EndChar

StartChar: Idotaccent
Encoding: 304 304 68
Width: 1100
VWidth: 999
Flags: HW
HStem: 114 16<493 549 549 604> 587 15<493 549 549 604> 649 104<508 582>
VStem: 493 104<663 738> 501 96<118 598>
LayerCount: 3
Fore
SplineSet
511 643 m 0
 511 671 534 695 563 695 c 0
 592 695 615 671 615 643 c 0
 615 615 592 591 563 591 c 0
 534 591 511 615 511 643 c 0
502 374 m 2
 502 431 500 482 494 524 c 1
 496 527 l 1
 496 527 524 524 550 524 c 0
 576 524 605 527 605 527 c 1
 606 524 l 1
 600 485 598 431 598 374 c 2
 598 191 l 2
 598 134 600 83 606 41 c 1
 604 38 l 1
 604 38 576 41 550 41 c 0
 524 41 495 38 495 38 c 1
 494 41 l 1
 500 81 502 134 502 191 c 2
 502 374 l 2
249 718 m 2
 189 718 156 685 156 625 c 2
 156 -53 l 2
 156 -113 189 -136 249 -136 c 2
 821 -136 l 2
 881 -136 904 -113 904 -53 c 2
 904 625 l 2
 904 685 881 718 821 718 c 2
 249 718 l 2
1000 -84 m 2
 1000 -174 971 -212 881 -212 c 2
 249 -212 l 2
 159 -212 120 -174 120 -84 c 2
 120 625 l 2
 120 708 168 754 249 754 c 2
 851 754 l 2
 941 754 1000 715 1000 625 c 2
 1000 -84 l 2
EndSplineSet
Substitution2: "'c2sc' Versale nach Kapitaelchen 1" idotaccent.sc
Position2: "'cpsp' Versalabstaende 1" dx=2 dy=0 dh=4 dv=0
Colour: ff00ff
EndChar

StartChar: ampersand
Encoding: 38 38 230
Width: 1100
Flags: HW
HStem: 73 46<710 770> 73 31<453 545> 382 26<683 717 786 822> 540 31<520 585>
VStem: 330 88<142 251> 428 75<420 519> 598 70<441 529>
DStem2: 636 241 597 172 0.571149 -0.820847<-142.298 9.32685 76.824 157.05>
LayerCount: 3
Fore
SplineSet
494 434 m 0
 494 418 505 385 525 357 c 1
 557 382 589 407 589 437 c 0
 589 477 573 501 544 501 c 0
 519 501 494 481 494 434 c 0
588 133 m 1
 552 182 498 256 481 283 c 1
 425 247 409 216 409 169 c 0
 409 103 445 65 483 65 c 0
 524 65 553 83 588 133 c 1
630 198 m 1
 674 267 689 320 694 365 c 1
 702 363 727 363 735 363 c 0
 742 363 770 363 777 365 c 1
 748 315 676 184 660 159 c 1
 681 125 704 80 727 80 c 0
 748 80 762 87 780 123 c 1
 804 106 l 1
 769 42 741 34 708 34 c 0
 672 34 651 46 615 100 c 1
 581 63 543 34 477 34 c 0
 387 34 321 68 321 154 c 0
 321 209 351 249 465 315 c 1
 435 361 419 397 419 432 c 0
 419 477 466 532 552 532 c 0
 621 532 659 501 659 444 c 0
 659 406 612 357 548 321 c 1
 560 299 584 262 630 198 c 1
249 718 m 2
 189 718 156 685 156 625 c 2
 156 -53 l 2
 156 -113 189 -136 249 -136 c 2
 821 -136 l 2
 881 -136 904 -113 904 -53 c 2
 904 625 l 2
 904 685 881 718 821 718 c 2
 249 718 l 2
1000 -84 m 2
 1000 -174 971 -212 881 -212 c 2
 249 -212 l 2
 159 -212 120 -174 120 -84 c 2
 120 625 l 2
 120 708 168 754 249 754 c 2
 851 754 l 2
 941 754 1000 715 1000 625 c 2
 1000 -84 l 2
EndSplineSet
Substitution2: "'salt' Stilistische Alternativformen 1" ampersand.alt
Substitution2: "'smcp' Gemeine nach Kapitaelchen 1" ampersand.alt
Substitution2: "'c2sc' Versale nach Kapitaelchen 1" ampersand.alt
AlternateSubs2: "'aalt' Alle Alternativen zeigen 1" ampersand.alt
EndChar

StartChar: quotesingle
Encoding: 39 39 231
Width: 1100
Flags: HW
HStem: 449 167<510 534 520 534>
LayerCount: 3
Fore
SplineSet
520 399 m 1
 509 402 l 1
 509 402 485 522 485 526 c 0
 485 544 501 567 534 567 c 0
 565 567 567 553 567 539 c 0
 567 528 540 404 540 404 c 1
 520 399 l 1
249 718 m 2
 189 718 156 685 156 625 c 2
 156 -53 l 2
 156 -113 189 -136 249 -136 c 2
 821 -136 l 2
 881 -136 904 -113 904 -53 c 2
 904 625 l 2
 904 685 881 718 821 718 c 2
 249 718 l 2
1000 -84 m 2
 1000 -174 971 -212 881 -212 c 2
 249 -212 l 2
 159 -212 120 -174 120 -84 c 2
 120 625 l 2
 120 708 168 754 249 754 c 2
 851 754 l 2
 941 754 1000 715 1000 625 c 2
 1000 -84 l 2
EndSplineSet
EndChar

StartChar: comma
Encoding: 44 44 232
Width: 1100
VWidth: 999
Flags: HW
HStem: -114 20<487 511> -6 86<506 556>
VStem: 557 32<-59 20>
LayerCount: 3
Fore
SplineSet
489 32 m 1
 489 36 l 1
 497 57 509 70 533 80 c 1
 537 80 l 1
 566 69 590 47 590 -6 c 0
 590 -64 540 -105 491 -114 c 1
 485 -109 484 -102 487 -94 c 1
 530 -82 557 -46 557 -28 c 0
 557 -8 544 -6 533 -6 c 1
 508 -1 496 5 489 32 c 1
249 718 m 2
 189 718 156 685 156 625 c 2
 156 -53 l 2
 156 -113 189 -136 249 -136 c 2
 821 -136 l 2
 881 -136 904 -113 904 -53 c 2
 904 625 l 2
 904 685 881 718 821 718 c 2
 249 718 l 2
1000 -84 m 2
 1000 -174 971 -212 881 -212 c 2
 249 -212 l 2
 159 -212 120 -174 120 -84 c 2
 120 625 l 2
 120 708 168 754 249 754 c 2
 851 754 l 2
 941 754 1000 715 1000 625 c 2
 1000 -84 l 2
EndSplineSet
EndChar

StartChar: hyphen
Encoding: 45 45 233
Width: 1100
VWidth: 999
Flags: HW
HStem: 239 47<441 632>
VStem: 436 201<240 286>
LayerCount: 3
Fore
SplineSet
617 239 m 2
 448 239 l 2
 441 239 436 245 436 252 c 0
 436 264 446 286 455 286 c 2
 627 286 l 2
 634 286 638 279 638 273 c 0
 638 264 627 239 617 239 c 2
249 718 m 2
 189 718 156 685 156 625 c 2
 156 -53 l 2
 156 -113 189 -136 249 -136 c 2
 821 -136 l 2
 881 -136 904 -113 904 -53 c 2
 904 625 l 2
 904 685 881 718 821 718 c 2
 249 718 l 2
1000 -84 m 2
 1000 -174 971 -212 881 -212 c 2
 249 -212 l 2
 159 -212 120 -174 120 -84 c 2
 120 625 l 2
 120 708 168 754 249 754 c 2
 851 754 l 2
 941 754 1000 715 1000 625 c 2
 1000 -84 l 2
EndSplineSet
Substitution2: "'c2sc' Versale nach Kapitaelchen 1" hyphen.sc
AlternateSubs2: "'aalt' Alle Alternativen zeigen 1" hyphen.sc
Substitution2: "'smcp' Gemeine nach Kapitaelchen 1" hyphen.sc
Substitution2: "'case' Versalformen 1" hyphen.cap
EndChar

StartChar: period
Encoding: 46 46 234
Width: 334
VWidth: 999
Flags: HW
HStem: 4 92<138 196>
VStem: 120 93<20 79>
LayerCount: 3
Fore
SplineSet
120 79 m 1
 120 82 l 1
 129 104 141 117 166 127 c 1
 168 127 l 1
 192 118 205 106 214 82 c 1
 214 79 l 1
 204 52 192 40 168 34 c 1
 166 34 l 1
 139 40 128 52 120 79 c 1
-91 718 m 2
 -151 718 -184 685 -184 625 c 2
 -184 -53 l 2
 -184 -113 -151 -136 -91 -136 c 2
 481 -136 l 2
 541 -136 564 -113 564 -53 c 2
 564 625 l 2
 564 685 541 718 481 718 c 2
 -91 718 l 2
660 -84 m 2
 660 -174 631 -212 541 -212 c 2
 -91 -212 l 2
 -181 -212 -220 -174 -220 -84 c 2
 -220 625 l 2
 -220 708 -172 754 -91 754 c 2
 511 754 l 2
 601 754 660 715 660 625 c 2
 660 -84 l 2
EndSplineSet
EndChar

StartChar: zero
Encoding: 48 48 235
Width: 1100
VWidth: 487
Flags: HW
HStem: 64 34<505 566> 468 37<506 573>
VStem: 387 89<179 383> 598 88<176 390>
LayerCount: 3
Fore
SplineSet
538 432 m 0
 506 432 476 411 476 236 c 0
 476 174 478 62 536 62 c 0
 596 62 598 191 598 264 c 0
 598 341 598 432 538 432 c 0
536 28 m 0
 444 28 387 129 387 244 c 0
 387 384 463 468 538 468 c 0
 614 468 687 389 687 250 c 0
 687 84 607 28 536 28 c 0
249 718 m 2
 189 718 156 685 156 625 c 2
 156 -53 l 2
 156 -113 189 -136 249 -136 c 2
 821 -136 l 2
 881 -136 904 -113 904 -53 c 2
 904 625 l 2
 904 685 881 718 821 718 c 2
 249 718 l 2
1000 -84 m 2
 1000 -174 971 -212 881 -212 c 2
 249 -212 l 2
 159 -212 120 -174 120 -84 c 2
 120 625 l 2
 120 708 168 754 249 754 c 2
 851 754 l 2
 941 754 1000 715 1000 625 c 2
 1000 -84 l 2
EndSplineSet
AlternateSubs2: "'aalt' Alle Alternativen zeigen 1" zero.oldstyle zero.fitted zero.slash zero.slashfitted perthousandzero
Substitution2: "'zero' gestrichene Null 1" zero.slash
Substitution2: "'sups' Hochgestellte 1" zero.superior
Substitution2: "'sinf' Wissenschaftliche Indices 1" zero.inferior
Substitution2: "'pnum' Proportionalziffern 1" zero.fitted
Substitution2: "'onum' Minuskelziffern 1" zero.taboldstyle
EndChar

StartChar: I
Encoding: 73 73 236
Width: 1100
VWidth: 999
Flags: HW
HStem: 78 16G<494 550 550 606> 552 15G<494 550 550 606>
VStem: 502 96<83 562>
LayerCount: 3
Fore
SplineSet
502 374 m 2
 502 431 500 482 494 524 c 1
 496 527 l 1
 496 527 524 524 550 524 c 0
 576 524 605 527 605 527 c 1
 606 524 l 1
 600 485 598 431 598 374 c 2
 598 191 l 2
 598 134 600 83 606 41 c 1
 604 38 l 1
 604 38 576 41 550 41 c 0
 524 41 495 38 495 38 c 1
 494 41 l 1
 500 81 502 134 502 191 c 2
 502 374 l 2
249 718 m 2
 189 718 156 685 156 625 c 2
 156 -53 l 2
 156 -113 189 -136 249 -136 c 2
 821 -136 l 2
 881 -136 904 -113 904 -53 c 2
 904 625 l 2
 904 685 881 718 821 718 c 2
 249 718 l 2
1000 -84 m 2
 1000 -174 971 -212 881 -212 c 2
 249 -212 l 2
 159 -212 120 -174 120 -84 c 2
 120 625 l 2
 120 708 168 754 249 754 c 2
 851 754 l 2
 941 754 1000 715 1000 625 c 2
 1000 -84 l 2
EndSplineSet
Position2: "'cpsp' Versalabstaende 1" dx=2 dy=0 dh=4 dv=0
Substitution2: "'c2sc' Versale nach Kapitaelchen 1" i.sc
EndChar

StartChar: J
Encoding: 74 74 237
Width: 1100
VWidth: 999
Flags: HW
HStem: -77 52<396 485> 529 15G<506 561 561 617>
VStem: 513 96<24 540>
LayerCount: 3
Fore
SplineSet
513 112 m 2
 513 374 l 2
 513 430 512 481 506 524 c 1
 507 526 l 1
 507 526 536 524 561 524 c 0
 588 524 616 526 616 526 c 1
 617 524 l 1
 611 484 609 430 609 374 c 2
 609 128 l 2
 609 42 607 12 562 -38 c 1
 521 -86 459 -95 412 -95 c 0
 398 -95 377 -92 371 -89 c 1
 370 -86 l 1
 378 -72 386 -31 391 -11 c 1
 407 -10 l 1
 415 -25 429 -44 450 -44 c 0
 510 -44 513 46 513 112 c 2
249 718 m 2
 189 718 156 685 156 625 c 2
 156 -53 l 2
 156 -113 189 -136 249 -136 c 2
 821 -136 l 2
 881 -136 904 -113 904 -53 c 2
 904 625 l 2
 904 685 881 718 821 718 c 2
 249 718 l 2
1000 -84 m 2
 1000 -174 971 -212 881 -212 c 2
 249 -212 l 2
 159 -212 120 -174 120 -84 c 2
 120 625 l 2
 120 708 168 754 249 754 c 2
 851 754 l 2
 941 754 1000 715 1000 625 c 2
 1000 -84 l 2
EndSplineSet
Substitution2: "'ss02' Stilgruppe 2 1" J.alt
Position2: "'cpsp' Versalabstaende 1" dx=2 dy=0 dh=4 dv=0
Substitution2: "'c2sc' Versale nach Kapitaelchen 1" j.sc
EndChar

StartChar: K
Encoding: 75 75 238
Width: 1100
VWidth: 999
Flags: HW
HStem: 78 16G<331 386 386 442 602 642 753 760> 324 19<426 445> 552 15G<331 386 386 442 613 652 726 753>
VStem: 338 96<83 562>
LayerCount: 3
Fore
SplineSet
342 375 m 2
 342 432 340 483 334 525 c 1
 336 528 l 1
 336 528 364 525 390 525 c 0
 416 525 445 528 445 528 c 1
 446 525 l 1
 440 486 438 432 438 375 c 2
 438 304.7 l 1
 441.3 305.8 445 307.5 448 310 c 0
 514 368 580 451 647 528 c 1
 656 525 696 525 706 525 c 0
 717 525 747 525 759 528 c 1
 693 470 582 366 531 307 c 1
 531 306 l 1
 767 39 l 1
 752 42 719 42 705 42 c 0
 692 42 649 42 636 39 c 1
 569 123 476 249 446 279 c 0
 443.9 280.7 440.9 282 438 283 c 1
 438 192 l 2
 438 135 440 84 446 42 c 1
 444 39 l 1
 444 39 416 42 390 42 c 0
 364 42 335 39 335 39 c 1
 334 42 l 1
 340 82 342 135 342 192 c 2
 342 375 l 2
249 718 m 2
 189 718 156 685 156 625 c 2
 156 -53 l 2
 156 -113 189 -136 249 -136 c 2
 821 -136 l 2
 881 -136 904 -113 904 -53 c 2
 904 625 l 2
 904 685 881 718 821 718 c 2
 249 718 l 2
1000 -84 m 2
 1000 -174 971 -212 881 -212 c 2
 249 -212 l 2
 159 -212 120 -174 120 -84 c 2
 120 625 l 2
 120 708 168 754 249 754 c 2
 851 754 l 2
 941 754 1000 715 1000 625 c 2
 1000 -84 l 2
EndSplineSet
Position2: "'cpsp' Versalabstaende 1" dx=2 dy=0 dh=4 dv=0
AlternateSubs2: "'aalt' Alle Alternativen zeigen 1" K.alt k.sc
Substitution2: "'ss02' Stilgruppe 2 1" K.alt
Substitution2: "'c2sc' Versale nach Kapitaelchen 1" k.sc
Colour: ff80cc
EndChar

StartChar: L
Encoding: 76 76 239
Width: 1100
VWidth: 999
Flags: HW
HStem: -212 76<179.2 885.174> 41 47<492.953 707.433> 718 36<188.821 875.472>
VStem: 120 36<-107.953 686.051> 394 96<88.8829 522.025> 904 96<-118.923 694.8>
LayerCount: 3
Fore
SplineSet
490 191 m 2
 490 178 491 106 496 88 c 1
 597 88 708 97 708 97 c 1
 709 94 l 1
 708 88 708 77 708 69 c 0
 708 62 708 51 709 41 c 1
 708 38 l 1
 696 40 678 41 663 41 c 2
 442 41 l 2
 417 41 387 38 387 38 c 1
 387 41 l 1
 393 81 394 134 394 191 c 2
 394 374 l 2
 394 431 392 482 386 524 c 1
 387 527 l 1
 387 527 417 524 442 524 c 0
 468 524 497 527 497 527 c 1
 498 524 l 1
 492 485 490 431 490 374 c 2
 490 191 l 2
249 718 m 2
 189 718 156 685 156 625 c 2
 156 -53 l 2
 156 -113 189 -136 249 -136 c 2
 821 -136 l 2
 881 -136 904 -113 904 -53 c 2
 904 625 l 2
 904 685 881 718 821 718 c 2
 249 718 l 2
1000 -84 m 2
 1000 -174 971 -212 881 -212 c 2
 249 -212 l 2
 159 -212 120 -174 120 -84 c 2
 120 625 l 2
 120 708 168 754 249 754 c 2
 851 754 l 2
 941 754 1000 715 1000 625 c 2
 1000 -84 l 2
EndSplineSet
Position2: "'cpsp' Versalabstaende 1" dx=2 dy=0 dh=4 dv=0
Substitution2: "'c2sc' Versale nach Kapitaelchen 1" l.sc
EndChar

StartChar: M
Encoding: 77 77 240
Width: 1100
Flags: HW
HStem: 80 16G<245 253 309 314 482 566 748 759 832 838> 421 15G<335 339>
LayerCount: 3
Fore
SplineSet
309 538 m 1
 361 538 l 1
 419.3 416.9 479.3 300.9 544.1 180.5 c 1
 737 538 l 1
 785 538 l 1
 806 356 820 202 843 39 c 1
 832 41 809 41 798 41 c 0
 787 41 765 41 753 39 c 1
 743 163 734 278 719 396 c 1
 656 280 593 166 538 41 c 1
 508 41 l 1
 458.4 147.9 399.7 259.4 343.1 370.2 c 1
 329.6 256.2 313.9 111.6 313 39 c 1
 305 41 285 41 277 41 c 0
 268 41 249 41 241 39 c 1
 265 197 294 387 309 538 c 1
249 718 m 2
 189 718 156 685 156 625 c 2
 156 -53 l 2
 156 -113 189 -136 249 -136 c 2
 821 -136 l 2
 881 -136 904 -113 904 -53 c 2
 904 625 l 2
 904 685 881 718 821 718 c 2
 249 718 l 2
1000 -84 m 2
 1000 -174 971 -212 881 -212 c 2
 249 -212 l 2
 159 -212 120 -174 120 -84 c 2
 120 625 l 2
 120 708 168 754 249 754 c 2
 851 754 l 2
 941 754 1000 715 1000 625 c 2
 1000 -84 l 2
EndSplineSet
Position2: "'cpsp' Versalabstaende 1" dx=2 dy=0 dh=4 dv=0
Substitution2: "'c2sc' Versale nach Kapitaelchen 1" m.sc
EndChar

StartChar: N
Encoding: 78 78 241
Width: 1100
VWidth: 999
Flags: HW
HStem: -212 76<179.2 885.174> 525 2<670 717.148> 718 36<188.821 875.472>
VStem: 120 36<-107.953 686.051> 322 54<42.9761 372.719> 691 55<169.249 522.979> 904 96<-118.923 694.8>
DStem2: 394 526 390 382 0.61246 -0.790501<111.382 457.675>
LayerCount: 3
Fore
SplineSet
322 375 m 2
 322 431 320 482 314 525 c 1
 316 527 l 1
 316 527 344 525 369 525 c 0
 372 525 394 526 394 526 c 1
 652 193 l 2
 684.3 151.3 691 133 691 174 c 2
 691 375 l 2
 691 431 689 482 683 525 c 1
 670 527 l 1
 670 527 700 525 718 525 c 0
 735 525 738 527 738 527 c 1
 754 525 l 1
 748 485 746 431 746 375 c 2
 746 57 l 2
 746 42 726 33 716 33 c 0
 679 33 661.2 39.2 625 85 c 2
 390 382 l 2
 361.7 417.8 376 416 376 370 c 2
 376 191 l 2
 376 135 378 83 384 41 c 1
 382 39 l 1
 382 39 367 41 349 41 c 0
 332 41 315 39 315 39 c 1
 314 41 l 1
 320 81 322 135 322 191 c 2
 322 375 l 2
249 718 m 2
 189 718 156 685 156 625 c 2
 156 -53 l 2
 156 -113 189 -136 249 -136 c 2
 821 -136 l 2
 881 -136 904 -113 904 -53 c 2
 904 625 l 2
 904 685 881 718 821 718 c 2
 249 718 l 2
1000 -84 m 2
 1000 -174 971 -212 881 -212 c 2
 249 -212 l 2
 159 -212 120 -174 120 -84 c 2
 120 625 l 2
 120 708 168 754 249 754 c 2
 851 754 l 2
 941 754 1000 715 1000 625 c 2
 1000 -84 l 2
EndSplineSet
Position2: "'cpsp' Versalabstaende 1" dx=2 dy=0 dh=4 dv=0
Substitution2: "'c2sc' Versale nach Kapitaelchen 1" n.sc
EndChar

StartChar: O
Encoding: 79 79 242
Width: 1100
VWidth: 999
Flags: HW
HStem: -212 76<179.2 885.174> 34 39<478.784 621.753> 495 39<462.905 608.092> 718 36<188.821 875.472>
VStem: 120 36<-107.953 686.051> 286 106<171.979 383.673> 687 106<175.022 396.771> 904 96<-118.923 694.8>
LayerCount: 3
Fore
SplineSet
528 495 m 0
 456 495 392 444 392 286 c 0
 392 142 463 73 553 73 c 0
 639 73 687 139 687 274 c 0
 687 430 634 495 528 495 c 0
793 288 m 0
 793 138 699 34 538 34 c 0
 390 34 286 132 286 274 c 0
 286 420 385 534 538 534 c 0
 697 534 793 436 793 288 c 0
249 718 m 2
 189 718 156 685 156 625 c 2
 156 -53 l 2
 156 -113 189 -136 249 -136 c 2
 821 -136 l 2
 881 -136 904 -113 904 -53 c 2
 904 625 l 2
 904 685 881 718 821 718 c 2
 249 718 l 2
1000 -84 m 2
 1000 -174 971 -212 881 -212 c 2
 249 -212 l 2
 159 -212 120 -174 120 -84 c 2
 120 625 l 2
 120 708 168 754 249 754 c 2
 851 754 l 2
 941 754 1000 715 1000 625 c 2
 1000 -84 l 2
EndSplineSet
Position2: "'cpsp' Versalabstaende 1" dx=2 dy=0 dh=4 dv=0
Substitution2: "'c2sc' Versale nach Kapitaelchen 1" o.sc
EndChar

StartChar: P
Encoding: 80 80 243
Width: 1100
VWidth: 999
Flags: HW
HStem: -212 76<179.2 885.174> 253 32<463.636 578.1> 498 32<441.076 581.199> 718 36<188.821 875.472>
VStem: 120 36<-107.953 686.051> 369 94<43.0215 260 286.732 493.486> 606 105<335.916 464.917> 904 96<-118.923 694.8>
LayerCount: 3
Fore
SplineSet
463 465 m 2
 463 292 l 1
 473 287 496 285 515 285 c 0
 588 285 606 311 606 392 c 0
 606 487 575 498 523 498 c 0
 469 498 463 487 463 465 c 2
369 375 m 2
 369 431 367 482 361 525 c 1
 363 527 l 1
 363 527 390 525 415 525 c 0
 438 525 509 530 528 530 c 0
 667 530 711 450 711 406 c 0
 711 342 655 253 519 253 c 0
 492 253 480 255 463 260 c 1
 463 191 l 2
 463 135 465 84 471 41 c 1
 469 39 l 1
 469 39 441 41 415 41 c 0
 389 41 362 39 362 39 c 1
 361 41 l 1
 367 82 369 135 369 191 c 2
 369 375 l 2
249 718 m 2
 189 718 156 685 156 625 c 2
 156 -53 l 2
 156 -113 189 -136 249 -136 c 2
 821 -136 l 2
 881 -136 904 -113 904 -53 c 2
 904 625 l 2
 904 685 881 718 821 718 c 2
 249 718 l 2
1000 -84 m 2
 1000 -174 971 -212 881 -212 c 2
 249 -212 l 2
 159 -212 120 -174 120 -84 c 2
 120 625 l 2
 120 708 168 754 249 754 c 2
 851 754 l 2
 941 754 1000 715 1000 625 c 2
 1000 -84 l 2
EndSplineSet
Position2: "'cpsp' Versalabstaende 1" dx=2 dy=0 dh=4 dv=0
Substitution2: "'c2sc' Versale nach Kapitaelchen 1" p.sc
EndChar

StartChar: Q
Encoding: 81 81 244
Width: 1100
VWidth: 999
Flags: HW
HStem: 46 40<487 617> 508 40<470 604>
VStem: 287 106<195 383> 688 106<203 396>
LayerCount: 3
Fore
SplineSet
508 495 m 0
 436 495 372 444 372 286 c 0
 372 142 443 73 533 73 c 0
 619 73 667 139 667 274 c 0
 667 430 614 495 508 495 c 0
249 718 m 2
 189 718 156 685 156 625 c 2
 156 -53 l 2
 156 -113 189 -136 249 -136 c 2
 821 -136 l 2
 881 -136 904 -113 904 -53 c 2
 904 625 l 2
 904 685 881 718 821 718 c 2
 249 718 l 2
1000 -84 m 2
 1000 -174 971 -212 881 -212 c 2
 249 -212 l 2
 159 -212 120 -174 120 -84 c 2
 120 625 l 2
 120 708 168 754 249 754 c 2
 851 754 l 2
 941 754 1000 715 1000 625 c 2
 1000 -84 l 2
622.3 51.3 m 1
 591.7 40 556.8 34 518 34 c 0
 370 34 266 132 266 274 c 0
 266 420 365 534 518 534 c 0
 677 534 773 436 773 288 c 0
 773 201.5 741.7 130.3 684.3 85.5 c 1
 726.1 60.7 782.8 24.7 856 0 c 1
 856 -5 l 1
 829 -19 800 -43 785 -54 c 1
 705.7 -8.7 708.4 4.5 622.3 51.3 c 1
EndSplineSet
Position2: "'cpsp' Versalabstaende 1" dx=2 dy=0 dh=4 dv=0
Substitution2: "'c2sc' Versale nach Kapitaelchen 1" q.sc
Colour: ff80cc
EndChar

StartChar: R
Encoding: 82 82 245
Width: 1100
VWidth: 999
Flags: HW
HStem: -212 76<179.2 885.174> 256 39<454 567.238> 494 36<431.813 576.366> 718 36<188.821 875.472>
VStem: 120 36<-107.953 686.051> 358 96<43.0215 256 295 489.097> 597 104<325.315 471.072> 904 96<-118.923 694.8>
LayerCount: 3
Fore
SplineSet
516 494 m 0
 463 494 454 483 454 461 c 2
 454 295 l 1
 490 295 l 2
 563 295 597 306 597 400 c 0
 597 488 562 494 516 494 c 0
454 256 m 1
 454 191 l 2
 454 135 455 84 461 41 c 1
 460 39 l 1
 460 39 431 41 406 41 c 0
 380 41 351 39 351 39 c 1
 350 41 l 1
 356 82 358 135 358 191 c 2
 358 375 l 2
 358 431 356 482 350 525 c 1
 352 527 l 1
 352 527 380 525 406 525 c 0
 428 525 497 530 515 530 c 0
 608 530 701 504 701 400 c 0
 701 321.3 650.6 285.4 588.1 269.1 c 1
 636.1 206.2 716.7 84.1 755 41 c 1
 753 39 l 1
 738 41 713 41 698 41 c 0
 684 41 662 41 647 39 c 1
 639 64 604.9 118.9 567 173 c 0
 546.5 202.3 524.5 232.5 502.3 257.1 c 1
 485.7 256.2 469.4 256 454 256 c 1
249 718 m 2
 189 718 156 685 156 625 c 2
 156 -53 l 2
 156 -113 189 -136 249 -136 c 2
 821 -136 l 2
 881 -136 904 -113 904 -53 c 2
 904 625 l 2
 904 685 881 718 821 718 c 2
 249 718 l 2
1000 -84 m 2
 1000 -174 971 -212 881 -212 c 2
 249 -212 l 2
 159 -212 120 -174 120 -84 c 2
 120 625 l 2
 120 708 168 754 249 754 c 2
 851 754 l 2
 941 754 1000 715 1000 625 c 2
 1000 -84 l 2
EndSplineSet
Position2: "'cpsp' Versalabstaende 1" dx=2 dy=0 dh=4 dv=0
AlternateSubs2: "'aalt' Alle Alternativen zeigen 1" R.alt r.sc
Substitution2: "'ss02' Stilgruppe 2 1" R.alt
Substitution2: "'c2sc' Versale nach Kapitaelchen 1" r.sc
EndChar

StartChar: S
Encoding: 83 83 246
Width: 1100
VWidth: 999
Flags: HW
HStem: -212 76<179.2 885.174> 34 38<443.251 567.381> 498 36<470.864 577.116> 718 36<188.821 875.472>
VStem: 120 36<-107.953 686.051> 365 87<367.835 472.565> 590 96<106.371 228.085> 904 96<-118.923 694.8>
LayerCount: 3
Fore
SplineSet
512 72 m 0
 563 72 590 101 590 154 c 0
 590 214 571 237 525 255 c 0
 457.2 281.5 365 321 365 405 c 0
 365 484 439 534 524 534 c 0
 615 534 658 501 658 501 c 1
 659 498 l 1
 652 476 647 439 644 412 c 1
 637 412 l 1
 616 458 571 498 517 498 c 0
 476 498 452 471 452 425 c 0
 452 363 505.1 340.3 536 329 c 0
 599 306 686 268 686 180 c 0
 686 104 626 34 506 34 c 0
 414 34 354 67 354 67 c 1
 352 70 l 1
 358 92 364 130 368 157 c 1
 375 158 l 1
 396 112 458 72 512 72 c 0
249 718 m 2
 189 718 156 685 156 625 c 2
 156 -53 l 2
 156 -113 189 -136 249 -136 c 2
 821 -136 l 2
 881 -136 904 -113 904 -53 c 2
 904 625 l 2
 904 685 881 718 821 718 c 2
 249 718 l 2
1000 -84 m 2
 1000 -174 971 -212 881 -212 c 2
 249 -212 l 2
 159 -212 120 -174 120 -84 c 2
 120 625 l 2
 120 708 168 754 249 754 c 2
 851 754 l 2
 941 754 1000 715 1000 625 c 2
 1000 -84 l 2
EndSplineSet
Position2: "'cpsp' Versalabstaende 1" dx=2 dy=0 dh=4 dv=0
Substitution2: "'c2sc' Versale nach Kapitaelchen 1" s.sc
EndChar

StartChar: T
Encoding: 84 84 247
Width: 1100
VWidth: 999
Flags: HW
HStem: -212 76<179.2 885.174> 464 21G<324 477 585 738> 473 51<326.566 479.895 582.105 735.434> 718 36<188.821 875.472>
VStem: 120 36<-107.953 686.051> 483 96<42.9753 472.115> 904 96<-118.923 694.8>
LayerCount: 3
Fore
SplineSet
483 368 m 2
 483 380 482 455 477 473 c 1
 376 473 326 464 326 464 c 1
 324 467 l 1
 326 479 326 503 324 524 c 1
 326 527 l 1
 338 525 355 524 370 524 c 2
 692 524 l 2
 707 524 724 525 736 527 c 1
 738 524 l 1
 736 503 736 479 738 467 c 1
 736 464 l 1
 736 464 686 473 585 473 c 1
 580 455 579 380 579 368 c 2
 579 191 l 2
 579 134 580 83 586 41 c 1
 585 38 l 1
 585 38 556 41 531 41 c 0
 505 41 476 38 476 38 c 1
 476 41 l 1
 482 81 483 134 483 191 c 2
 483 368 l 2
249 718 m 2
 189 718 156 685 156 625 c 2
 156 -53 l 2
 156 -113 189 -136 249 -136 c 2
 821 -136 l 2
 881 -136 904 -113 904 -53 c 2
 904 625 l 2
 904 685 881 718 821 718 c 2
 249 718 l 2
1000 -84 m 2
 1000 -174 971 -212 881 -212 c 2
 249 -212 l 2
 159 -212 120 -174 120 -84 c 2
 120 625 l 2
 120 708 168 754 249 754 c 2
 851 754 l 2
 941 754 1000 715 1000 625 c 2
 1000 -84 l 2
EndSplineSet
Position2: "'cpsp' Versalabstaende 1" dx=2 dy=0 dh=4 dv=0
Substitution2: "'c2sc' Versale nach Kapitaelchen 1" t.sc
EndChar

StartChar: U
Encoding: 85 85 248
Width: 1100
VWidth: 999
Flags: HW
HStem: -212 76<179.2 885.174> 34 45<483.459 628.202> 718 36<188.821 875.472>
VStem: 120 36<-107.953 686.051> 342 96<130.216 523.979> 676 64<139.167 523.979> 904 96<-118.923 694.8>
LayerCount: 3
Fore
SplineSet
676 376 m 2
 676 432 674 483 668 526 c 1
 670 528 l 1
 670 528 690 526 708 526 c 0
 725 526 746 528 746 528 c 1
 747 526 l 1
 741 486 740 432 740 376 c 2
 740 263 l 2
 740 123 683 34 534 34 c 0
 456 34 342 66 342 219 c 2
 342 376 l 2
 342 432 341 483 335 526 c 1
 336 528 l 1
 336 528 365 526 390 526 c 0
 416 526 445 528 445 528 c 1
 446 526 l 1
 440 486 438 432 438 376 c 2
 438 244 l 2
 438 187 441 79 550 79 c 0
 665 79 676 166 676 250 c 2
 676 376 l 2
249 718 m 2
 189 718 156 685 156 625 c 2
 156 -53 l 2
 156 -113 189 -136 249 -136 c 2
 821 -136 l 2
 881 -136 904 -113 904 -53 c 2
 904 625 l 2
 904 685 881 718 821 718 c 2
 249 718 l 2
1000 -84 m 2
 1000 -174 971 -212 881 -212 c 2
 249 -212 l 2
 159 -212 120 -174 120 -84 c 2
 120 625 l 2
 120 708 168 754 249 754 c 2
 851 754 l 2
 941 754 1000 715 1000 625 c 2
 1000 -84 l 2
EndSplineSet
Position2: "'cpsp' Versalabstaende 1" dx=2 dy=0 dh=4 dv=0
Substitution2: "'c2sc' Versale nach Kapitaelchen 1" u.sc
EndChar

StartChar: V
Encoding: 86 86 249
Width: 1100
Flags: HW
HStem: 72 16G<474 582> 551 15G<310 322 415 425 674 692 729 762>
LayerCount: 3
Fore
SplineSet
249 718 m 2
 189 718 156 685 156 625 c 2
 156 -53 l 2
 156 -113 189 -136 249 -136 c 2
 821 -136 l 2
 881 -136 904 -113 904 -53 c 2
 904 625 l 2
 904 685 881 718 821 718 c 2
 249 718 l 2
1000 -84 m 2
 1000 -174 971 -212 881 -212 c 2
 249 -212 l 2
 159 -212 120 -174 120 -84 c 2
 120 625 l 2
 120 708 168 754 249 754 c 2
 851 754 l 2
 941 754 1000 715 1000 625 c 2
 1000 -84 l 2
549.2 180.8 m 1
 600.9 299.6 663.4 444.8 687 533 c 1
 696 531 732 531 740 531 c 0
 749 531 758 531 767 533 c 1
 691 367 618 206 546 39 c 1
 509 39 l 1
 440 203 341 457 303 533 c 1
 316 531 351 531 364 531 c 0
 377 531 408 531 421 533 c 1
 427.6 508.4 462.2 387.5 549.2 180.8 c 1
EndSplineSet
Position2: "'cpsp' Versalabstaende 1" dx=2 dy=0 dh=4 dv=0
Substitution2: "'c2sc' Versale nach Kapitaelchen 1" v.sc
AlternateSubs2: "'aalt' Alle Alternativen zeigen 1" V.alt
EndChar

StartChar: W
Encoding: 87 87 250
Width: 1100
Flags: HW
HStem: 72 16G<357 451 613 720> 551 15G<192 205 294 304 448 460 553 563 813 830 867 901>
LayerCount: 3
Fore
SplineSet
249 718 m 2
 189 718 156 685 156 625 c 2
 156 -53 l 2
 156 -113 189 -136 249 -136 c 2
 821 -136 l 2
 881 -136 904 -113 904 -53 c 2
 904 530.8 l 1
 684 39 l 1
 647 39 l 1
 550.2 275.4 l 1
 444 39 l 1
 391 39 l 1
 322 203 223 457 186 533 c 1
 199 531 234 531 247 531 c 0
 259 531 287 531 300 533 c 1
 306.8 507.6 344.1 378.6 440.5 156.2 c 1
 521.6 345.7 l 1
 488.1 428 458.7 498.7 442 533 c 1
 454 531 490 531 502 531 c 0
 515 531 547 531 559 533 c 1
 566.6 508.3 600.2 387.5 688.1 180.7 c 1
 739.8 299.6 802.4 444.8 826 533 c 1
 835 531 856 531 864 531 c 0
 871.7 531 894.3 532.8 904 532.8 c 1
 904 625 l 2
 904 685 881 718 821 718 c 2
 249 718 l 2
1000 -84 m 2
 1000 -174 971 -212 881 -212 c 2
 249 -212 l 2
 159 -212 120 -174 120 -84 c 2
 120 625 l 2
 120 708 168 754 249 754 c 2
 851 754 l 2
 941 754 1000 715 1000 625 c 2
 1000 -84 l 2
EndSplineSet
Position2: "'cpsp' Versalabstaende 1" dx=2 dy=0 dh=4 dv=0
Substitution2: "'c2sc' Versale nach Kapitaelchen 1" w.sc
AlternateSubs2: "'aalt' Alle Alternativen zeigen 1" W.alt
EndChar

StartChar: X
Encoding: 88 88 251
Width: 1100
Flags: HMW
HStem: 79 21<309 352 433 449 605 621 734 769> 520 20<614 639 710 754>
DStem2: 398 155 422 135 0.593199 0.805056<-26.4267 172.53 246.653 439.717> 449 488 493 325 0.578967 -0.815351<-26.6196 162.358 218.978 419.486>
LayerCount: 3
Fore
SplineSet
746 38 m 1
 732 41 700 41 686 41 c 0
 673 41 641 41 627 38 c 1
 590.3 109 558.9 166.9 519.4 233.9 c 1
 479.8 173 439.4 106.8 402 38 c 1
 394 41 380 41 371 41 c 0
 362 41 332 41 323 38 c 1
 490 282.9 l 1
 335 527 l 1
 347 524 380 524 392 524 c 0
 405 524 437 524 451 527 c 1
 470.5 486.5 498.8 437.9 545 362.5 c 1
 592.4 431.4 610.7 460.3 647 527 c 1
 655 524 686 524 694 524 c 0
 702 524 717 524 725 527 c 1
 574 315.5 l 1
 746 38 l 1
249 718 m 2
 189 718 156 685 156 625 c 2
 156 -53 l 2
 156 -113 189 -136 249 -136 c 2
 821 -136 l 2
 881 -136 904 -113 904 -53 c 2
 904 625 l 2
 904 685 881 718 821 718 c 2
 249 718 l 2
1000 -84 m 2
 1000 -174 971 -212 881 -212 c 2
 249 -212 l 2
 159 -212 120 -174 120 -84 c 2
 120 625 l 2
 120 708 168 754 249 754 c 2
 851 754 l 2
 941 754 1000 715 1000 625 c 2
 1000 -84 l 2
EndSplineSet
Position2: "'cpsp' Versalabstaende 1" dx=2 dy=0 dh=4 dv=0
Substitution2: "'c2sc' Versale nach Kapitaelchen 1" x.sc
EndChar

StartChar: Y
Encoding: 89 89 252
Width: 1100
Flags: HW
HStem: 78 16G<480 483 580 584> 552 15G<316 325 420 447 654 678 707 747>
VStem: 482 98<112 327>
LayerCount: 3
Fore
SplineSet
249 718 m 2
 189 718 156 685 156 625 c 2
 156 -53 l 2
 156 -113 189 -136 249 -136 c 2
 821 -136 l 2
 881 -136 904 -113 904 -53 c 2
 904 625 l 2
 904 685 881 718 821 718 c 2
 249 718 l 2
1000 -84 m 2
 1000 -174 971 -212 881 -212 c 2
 249 -212 l 2
 159 -212 120 -174 120 -84 c 2
 120 625 l 2
 120 708 168 754 249 754 c 2
 851 754 l 2
 941 754 1000 715 1000 625 c 2
 1000 -84 l 2
580.2 254.3 m 1
 580.8 180 582.7 73.9 586 38 c 1
 574 41 542 41 531 41 c 0
 520 41 489 41 477 38 c 1
 481.2 79.8 481.9 174 482 247 c 1
 454 296.1 340 482 310 527 c 1
 322 524 356 524 368 524 c 0
 381 524 414 524 427 527 c 1
 464.8 452.3 506 385.3 550.6 309.5 c 1
 592 374.6 638.1 453.3 674 527 c 1
 682 524 711 524 721 524 c 0
 730 524 742 524 752 527 c 1
 662.2 388.3 610.2 314.2 580.2 254.3 c 1
EndSplineSet
Position2: "'cpsp' Versalabstaende 1" dx=2 dy=0 dh=4 dv=0
Substitution2: "'c2sc' Versale nach Kapitaelchen 1" y.sc
EndChar

StartChar: Z
Encoding: 90 90 253
Width: 1100
VWidth: 999
Flags: HW
HStem: -212 46<169.359 930.641> 81 55<528.105 746> 81 47<446 655.632> 509 56<350 572.603> 516.8 48.2<406.333 619> 708 46<168.938 931.062>
VStem: 120 46<-162.981 705.906> 934 46<-162.981 705.906>
DStem2: 326 110 450 135 0.584227 0.811591<84.8633 501.342>
LayerCount: 3
Fore
SplineSet
619 476.8 m 1
 537 475.8 453.8 471.7 350 469 c 1
 348 472 l 1
 349 478 350 489 350 496 c 0
 350 504 349 514 348 525 c 1
 350 527 l 1
 362 526 379 525 396 525 c 2
 654 525 l 2
 678 525 737 528 749 529 c 0
 752 529 754 528 754 525 c 0
 754 516 746 505 731 484 c 2
 450 95 l 1
 450 95 446 92 446 88 c 1
 544 88 746 96 746 96 c 1
 748 94 l 1
 747 88 746 77 746 70 c 0
 746 62 747 52 748 41 c 1
 746 39 l 1
 734 40 720 41 693 41 c 2
 406 41 l 2
 383 41 309 39 309 39 c 1
 306 42 l 1
 315 52 322 64 326 70 c 2
 619 476.8 l 1
249 718 m 2
 189 718 156 685 156 625 c 2
 156 -53 l 2
 156 -113 189 -136 249 -136 c 2
 821 -136 l 2
 881 -136 904 -113 904 -53 c 2
 904 625 l 2
 904 685 881 718 821 718 c 2
 249 718 l 2
1000 -84 m 2
 1000 -174 971 -212 881 -212 c 2
 249 -212 l 2
 159 -212 120 -174 120 -84 c 2
 120 625 l 2
 120 708 168 754 249 754 c 2
 851 754 l 2
 941 754 1000 715 1000 625 c 2
 1000 -84 l 2
EndSplineSet
Layer: 2
SplineSet
-16 -134 m 6
 -16 628 l 6
 -16 672 21 707 63 707 c 6
 575 707 l 6
 617 707 654 672 654 628 c 6
 654 -134 l 6
 654 -178 616 -212 575 -212 c 6
 63 -212 l 6
 22 -212 -16 -178 -16 -134 c 6
575 661 m 6
 63 661 l 6
 49 661 30 650 30 628 c 6
 30 -133 l 6
 30 -152 46 -166 63 -166 c 6
 575 -166 l 6
 592 -166 608 -152 608 -133 c 6
 608 628 l 6
 608 650 589 661 575 661 c 6
EndSplineSet
Position2: "'cpsp' Versalabstaende 1" dx=2 dy=0 dh=4 dv=0
Substitution2: "'c2sc' Versale nach Kapitaelchen 1" z.sc
EndChar

StartChar: bracketleft
Encoding: 91 91 254
Width: 1100
VWidth: 999
Flags: HW
HStem: -80 28<549 631> 562 29<547 631>
VStem: 442 80<-31 540>
LayerCount: 3
Fore
SplineSet
442 -80 m 1
 442 591 l 1
 631 591 l 1
 631 562 l 1
 529 554 521 543 521 478 c 2
 521 33 l 2
 521 -32 528 -43 631 -52 c 1
 631 -80 l 1
 442 -80 l 1
249 718 m 2
 189 718 156 685 156 625 c 2
 156 -53 l 2
 156 -113 189 -136 249 -136 c 2
 821 -136 l 2
 881 -136 904 -113 904 -53 c 2
 904 625 l 2
 904 685 881 718 821 718 c 2
 249 718 l 2
1000 -84 m 2
 1000 -174 971 -212 881 -212 c 2
 249 -212 l 2
 159 -212 120 -174 120 -84 c 2
 120 625 l 2
 120 708 168 754 249 754 c 2
 851 754 l 2
 941 754 1000 715 1000 625 c 2
 1000 -84 l 2
EndSplineSet
Substitution2: "'c2sc' Versale nach Kapitaelchen 1" bracketleft.sc
AlternateSubs2: "'aalt' Alle Alternativen zeigen 1" bracketleft.sc
Substitution2: "'case' Versalformen 1" bracketleft.sc
EndChar

StartChar: backslash
Encoding: 92 92 255
Width: 1100
VWidth: 999
Flags: HMW
HStem: 597 8G<438 474>
DStem2: 472 605 438 605 0.294569 -0.95563<0 575.841>
LayerCount: 3
Fore
SplineSet
491 565 m 1
 664 5 l 1
 611 5 l 1
 438 565 l 1
 491 565 l 1
249 718 m 2
 189 718 156 685 156 625 c 2
 156 -53 l 2
 156 -113 189 -136 249 -136 c 2
 821 -136 l 2
 881 -136 904 -113 904 -53 c 2
 904 625 l 2
 904 685 881 718 821 718 c 2
 249 718 l 2
1000 -84 m 2
 1000 -174 971 -212 881 -212 c 2
 249 -212 l 2
 159 -212 120 -174 120 -84 c 2
 120 625 l 2
 120 708 168 754 249 754 c 2
 851 754 l 2
 941 754 1000 715 1000 625 c 2
 1000 -84 l 2
EndSplineSet
EndChar

StartChar: bracketright
Encoding: 93 93 256
Width: 1100
VWidth: 999
Flags: HW
HStem: -212 46<169.359 930.641> -80 28<469 549.068> 562 29<469 550.627> 708 46<168.938 931.062>
VStem: 120 46<-162.981 705.906> 579 79<-33.6958 544.532> 934 46<-162.981 705.906>
LayerCount: 3
Fore
SplineSet
658 -80 m 1
 469 -80 l 1
 469 -52 l 1
 572 -43 579 -32 579 33 c 2
 579 478 l 2
 579 543 571 554 469 562 c 1
 469 591 l 1
 658 591 l 1
 658 -80 l 1
249 718 m 2
 189 718 156 685 156 625 c 2
 156 -53 l 2
 156 -113 189 -136 249 -136 c 2
 821 -136 l 2
 881 -136 904 -113 904 -53 c 2
 904 625 l 2
 904 685 881 718 821 718 c 2
 249 718 l 2
1000 -84 m 2
 1000 -174 971 -212 881 -212 c 2
 249 -212 l 2
 159 -212 120 -174 120 -84 c 2
 120 625 l 2
 120 708 168 754 249 754 c 2
 851 754 l 2
 941 754 1000 715 1000 625 c 2
 1000 -84 l 2
EndSplineSet
Substitution2: "'c2sc' Versale nach Kapitaelchen 1" bracketright.sc
AlternateSubs2: "'aalt' Alle Alternativen zeigen 1" bracketright.sc
Substitution2: "'case' Versalformen 1" bracketright.sc
Colour: ff00ff
EndChar

StartChar: uni02C4
Encoding: 708 708 257
Width: 518
VWidth: 999
Flags: HW
LayerCount: 3
Fore
SplineSet
319 362 m 1
 252 195 l 1
 209 195 l 1
 304 423 l 1
 336 423 l 1
 430 195 l 1
 387 195 l 1
 319 362 l 1
EndSplineSet
Colour: ff00ff
EndChar

StartChar: underscore
Encoding: 95 95 258
Width: 1100
VWidth: 999
Flags: HW
HStem: -148 38<365 722>
LayerCount: 3
Fore
SplineSet
732 21 m 1
 732 -18 l 1
 375 -18 l 1
 375 21 l 1
 732 21 l 1
249 718 m 2
 189 718 156 685 156 625 c 2
 156 -53 l 2
 156 -113 189 -136 249 -136 c 2
 821 -136 l 2
 881 -136 904 -113 904 -53 c 2
 904 625 l 2
 904 685 881 718 821 718 c 2
 249 718 l 2
1000 -84 m 2
 1000 -174 971 -212 881 -212 c 2
 249 -212 l 2
 159 -212 120 -174 120 -84 c 2
 120 625 l 2
 120 708 168 754 249 754 c 2
 851 754 l 2
 941 754 1000 715 1000 625 c 2
 1000 -84 l 2
EndSplineSet
EndChar

StartChar: a
Encoding: 97 97 259
Width: 1100
VWidth: 999
Flags: HW
HStem: -212 76<179.2 885.174> 36 48<467.504 544.014 618.5 698.581> 332 41<465.184 562.304> 718 36<188.821 875.472>
VStem: 120 36<-107.953 686.051> 374 90<84.5338 168.541> 576 83<106.606 208 245.002 319.583> 904 96<-118.923 694.8>
DStem2: 506 229 516 192 0.97185 0.2356<-47.2497 63.0819>
AnchorPoint: "ogonek" 693 66 basechar 0
AnchorPoint: "unten_anhang" 482 50 basechar 0
AnchorPoint: "unten_punkt" 504 -27 basechar 0
AnchorPoint: "top_punkt" 515 466 basechar 0
AnchorPoint: "top_akzent" 514 537 basechar 0
LayerCount: 3
Fore
SplineSet
576 208 m 1
 516 192 l 2
 474 180.8 464 155 464 124 c 0
 464 104 476 81 499 81 c 0
 520 81 544 98 563 113 c 0
 569 118 576 123 576 133 c 2
 576 208 l 1
656 107 m 0
 656 92 665 84 674 84 c 0
 684 84 694 95 701 100 c 1
 703 98 l 1
 711 94 715 86 719 78 c 1
 695 48 664 36 635 36 c 0
 602 36 581 56 575 80 c 1
 574 80 l 1
 536 46 499 36 470 36 c 0
 417 36 374 62 374 117 c 0
 374 168 434.1 211.6 506 229 c 2
 572 245 l 2
 574 245 576 248 576 254 c 0
 576 311 557 332 517 332 c 0
 483 332 452 307 432 273 c 1
 415 274 l 1
 395 323 l 1
 398 326 l 1
 416 342 470 373 524 373 c 0
 591 373 659 348 659 251 c 0
 659 243 656 129 656 107 c 0
249 718 m 2
 189 718 156 685 156 625 c 2
 156 -53 l 2
 156 -113 189 -136 249 -136 c 2
 821 -136 l 2
 881 -136 904 -113 904 -53 c 2
 904 625 l 2
 904 685 881 718 821 718 c 2
 249 718 l 2
1000 -84 m 2
 1000 -174 971 -212 881 -212 c 2
 249 -212 l 2
 159 -212 120 -174 120 -84 c 2
 120 625 l 2
 120 708 168 754 249 754 c 2
 851 754 l 2
 941 754 1000 715 1000 625 c 2
 1000 -84 l 2
EndSplineSet
Substitution2: "'sups' Hochgestellte 1" a.superior
AlternateSubs2: "'aalt' Alle Alternativen zeigen 1" a.sc
Substitution2: "'sinf' Wissenschaftliche Indices 1" a.inferior
Substitution2: "'smcp' Gemeine nach Kapitaelchen 1" a.sc
EndChar

StartChar: b
Encoding: 98 98 260
Width: 1100
VWidth: 999
Flags: HW
HStem: 78 40<486 578> 368 47<499 587> 594 15G<459 471>
VStem: 379 88<136 349 374 587> 618 92<191 332>
AnchorPoint: "unten_punkt" 545 5 basechar 0
AnchorPoint: "top_punkt" 558 500 basechar 0
LayerCount: 3
Fore
SplineSet
468 113 m 1
 482 94 500 78 524 78 c 0
 595 78 618 128 618 214 c 0
 618 286 592 328 546 328 c 0
 538 328 497 326 468 296 c 1
 468 113 l 1
468 421 m 2
 468 334 l 1
 493 362 525 375 561 375 c 0
 626 375 710 319 710 227 c 0
 710 108 605 38 528 38 c 0
 496 38 474 47 452 66 c 1
 441 56 423 47 416 37 c 1
 409 37 380 38 375 40 c 1
 378 57 379 70 379 99 c 2
 379 407 l 2
 379 464 377 516 372 548 c 1
 373 550 l 1
 403 553 449 562 468 569 c 1
 473 569 475 567 475 562 c 0
 469 516 468 476 468 421 c 2
249 718 m 2
 189 718 156 685 156 625 c 2
 156 -53 l 2
 156 -113 189 -136 249 -136 c 2
 821 -136 l 2
 881 -136 904 -113 904 -53 c 2
 904 625 l 2
 904 685 881 718 821 718 c 2
 249 718 l 2
1000 -84 m 2
 1000 -174 971 -212 881 -212 c 2
 249 -212 l 2
 159 -212 120 -174 120 -84 c 2
 120 625 l 2
 120 708 168 754 249 754 c 2
 851 754 l 2
 941 754 1000 715 1000 625 c 2
 1000 -84 l 2
EndSplineSet
Substitution2: "'sinf' Wissenschaftliche Indices 1" b.inferior
Substitution2: "'sups' Hochgestellte 1" b.superior
AlternateSubs2: "'aalt' Alle Alternativen zeigen 1" b.sc
Substitution2: "'smcp' Gemeine nach Kapitaelchen 1" b.sc
EndChar

StartChar: c
Encoding: 99 99 261
Width: 1100
VWidth: 999
Flags: HW
HStem: 46 49<500 595> 342 40<488 578>
VStem: 356 92<155 285>
AnchorPoint: "ogonek" 620 92 basechar 0
AnchorPoint: "unten_anhang" 540 56 basechar 0
AnchorPoint: "unten_punkt" 528 -31 basechar 0
AnchorPoint: "top_punkt" 535 466 basechar 0
AnchorPoint: "top_akzent" 533 537 basechar 0
LayerCount: 3
Fore
SplineSet
538 332 m 0
 488 332 448 296 448 219 c 0
 448 140 491 85 548 85 c 0
 578 85 607 95 636 131 c 1
 638 131 l 1
 648 125 653 119 654 112 c 1
 635 71 587 36 530 36 c 0
 420 36 356 103 356 200 c 0
 356 306 438 373 539 373 c 0
 576 373 624 361 647 349 c 1
 648 347 l 1
 631 271 l 1
 618 270 l 1
 598 304 567 332 538 332 c 0
249 718 m 2
 189 718 156 685 156 625 c 2
 156 -53 l 2
 156 -113 189 -136 249 -136 c 2
 821 -136 l 2
 881 -136 904 -113 904 -53 c 2
 904 625 l 2
 904 685 881 718 821 718 c 2
 249 718 l 2
1000 -84 m 2
 1000 -174 971 -212 881 -212 c 2
 249 -212 l 2
 159 -212 120 -174 120 -84 c 2
 120 625 l 2
 120 708 168 754 249 754 c 2
 851 754 l 2
 941 754 1000 715 1000 625 c 2
 1000 -84 l 2
EndSplineSet
Substitution2: "'sinf' Wissenschaftliche Indices 1" c.inferior
Substitution2: "'sups' Hochgestellte 1" c.superior
Substitution2: "'smcp' Gemeine nach Kapitaelchen 1" c.sc
AlternateSubs2: "'aalt' Alle Alternativen zeigen 1" c.sc
EndChar

StartChar: d
Encoding: 100 100 262
Width: 1100
VWidth: 999
Flags: HW
HStem: 78 50<443 521> 84 16G<575 583 660 667> 375 40<447 545> 594 15G<645 657>
VStem: 318 92<166 309> 566 88<156 354 399 587>
AnchorPoint: "top_akzent" 482 570 basechar 0
AnchorPoint: "top_punkt" 482 498 basechar 0
AnchorPoint: "ogonek" 552 101 basechar 0
AnchorPoint: "unten_punkt" 512 6 basechar 0
LayerCount: 3
Fore
SplineSet
566 131 m 1
 566 287 l 1
 548 316 537 332 502 332 c 0
 466 332 410 321 410 209 c 0
 410 115 445 85 485 85 c 0
 516 85 538 97 566 131 c 1
566 91 m 1
 539 56 502 35 466 35 c 0
 385 35 318 103 318 195 c 0
 318 297 412 372 510 372 c 0
 525 372 548 365 566 356 c 1
 566 405 l 2
 566 461 564 513 558 545 c 1
 560 548 l 1
 590 550 636 559 655 567 c 1
 660 567 662 564 662 559 c 0
 656 513 654 473 654 418 c 2
 654 187 l 2
 654 131 661 75 667 43 c 1
 665 41 l 1
 656 42 627 43 618 43 c 0
 607 43 588 42 578 41 c 0
 573 41 571 41 571 43 c 2
 567 91 l 1
 566 91 l 1
249 718 m 2
 189 718 156 685 156 625 c 2
 156 -53 l 2
 156 -113 189 -136 249 -136 c 2
 821 -136 l 2
 881 -136 904 -113 904 -53 c 2
 904 625 l 2
 904 685 881 718 821 718 c 2
 249 718 l 2
1000 -84 m 2
 1000 -174 971 -212 881 -212 c 2
 249 -212 l 2
 159 -212 120 -174 120 -84 c 2
 120 625 l 2
 120 708 168 754 249 754 c 2
 851 754 l 2
 941 754 1000 715 1000 625 c 2
 1000 -84 l 2
EndSplineSet
Substitution2: "'sinf' Wissenschaftliche Indices 1" d.inferior
Substitution2: "'sups' Hochgestellte 1" d.superior
AlternateSubs2: "'aalt' Alle Alternativen zeigen 1" d.sc
Substitution2: "'smcp' Gemeine nach Kapitaelchen 1" d.sc
EndChar

StartChar: e
Encoding: 101 101 263
Width: 1100
VWidth: 999
Flags: HW
HStem: -212 76<179.2 885.174> 36 51<502.912 627.15> 226 33<463 580.998> 336 37<491.543 570.209> 718 36<188.821 875.472>
VStem: 120 36<-107.953 686.051> 366 95<132.814 226 259 277.396> 581 95<234.5 314.188> 904 96<-118.923 694.8>
AnchorPoint: "ogonek" 657 84 basechar 0
AnchorPoint: "top_akzent" 534 537 basechar 0
AnchorPoint: "top_punkt" 539 466 basechar 0
AnchorPoint: "unten_punkt" 533 -27 basechar 0
LayerCount: 3
Fore
SplineSet
463 259 m 1
 570 259 l 2
 578 259 581 263 581 269 c 0
 581 323 562 336 534 336 c 0
 517 336 474 326 463 259 c 1
666 129 m 1
 677 123 682 114 682 103 c 1
 653 64 597 36 543 36 c 0
 431 36 366 107 366 193 c 0
 366 307 463 373 534 373 c 0
 634 373 676 302 676 239 c 0
 676 230 671 226 663 226 c 2
 461 226 l 1
 461 120 515 87 558 87 c 0
 599 87 640 101 666 129 c 1
249 718 m 2
 189 718 156 685 156 625 c 2
 156 -53 l 2
 156 -113 189 -136 249 -136 c 2
 821 -136 l 2
 881 -136 904 -113 904 -53 c 2
 904 625 l 2
 904 685 881 718 821 718 c 2
 249 718 l 2
1000 -84 m 2
 1000 -174 971 -212 881 -212 c 2
 249 -212 l 2
 159 -212 120 -174 120 -84 c 2
 120 625 l 2
 120 708 168 754 249 754 c 2
 851 754 l 2
 941 754 1000 715 1000 625 c 2
 1000 -84 l 2
EndSplineSet
Substitution2: "'sups' Hochgestellte 1" e.superior
AlternateSubs2: "'aalt' Alle Alternativen zeigen 1" e.sc
Substitution2: "'sinf' Wissenschaftliche Indices 1" e.inferior
Substitution2: "'smcp' Gemeine nach Kapitaelchen 1" e.sc
EndChar

StartChar: f
Encoding: 102 102 264
Width: 1100
VWidth: 999
Flags: HW
HStem: -212 76<179.2 885.174> 327 40<378 431 519 606> 517 51<532.039 629.138> 718 36<188.821 875.472>
VStem: 120 36<-107.953 686.051> 431 88<47.0215 327 367 474.657> 904 96<-118.923 694.8>
AnchorPoint: "unten_anhang" 475 94 basechar 0
AnchorPoint: "unten_punkt" 474 4 basechar 0
LayerCount: 3
Fore
SplineSet
482 511 m 0
 514 544 569 568 616 568 c 0
 630 568 644 565 650 562 c 1
 650 559 l 1
 642 545 635 504 630 484 c 1
 621 483 l 1
 613 498 600 517 578 517 c 0
 537 517 516 488 516 446 c 0
 516 430 519 393 519 374 c 2
 519 367 l 1
 600 367 l 2
 604 367 606 365 606 362 c 2
 606 337 l 2
 606 330 596 327 589 327 c 2
 519 327 l 1
 519 195 l 2
 519 139 520 88 527 45 c 1
 525 43 l 1
 525 43 501 45 475 45 c 0
 449 45 424 43 424 43 c 1
 423 45 l 1
 430 85 431 139 431 195 c 2
 431 327 l 1
 381 327 l 2
 378 327 378 328 378 331 c 2
 378 352 l 2
 378 358 381 367 395 367 c 2
 431 367 l 1
 431 389 l 2
 431 448 450 477 482 511 c 0
249 718 m 2
 189 718 156 685 156 625 c 2
 156 -53 l 2
 156 -113 189 -136 249 -136 c 2
 821 -136 l 2
 881 -136 904 -113 904 -53 c 2
 904 625 l 2
 904 685 881 718 821 718 c 2
 249 718 l 2
1000 -84 m 2
 1000 -174 971 -212 881 -212 c 2
 249 -212 l 2
 159 -212 120 -174 120 -84 c 2
 120 625 l 2
 120 708 168 754 249 754 c 2
 851 754 l 2
 941 754 1000 715 1000 625 c 2
 1000 -84 l 2
EndSplineSet
Substitution2: "'sinf' Wissenschaftliche Indices 1" f.inferior
Substitution2: "'sups' Hochgestellte 1" f.superior
Substitution2: "'smcp' Gemeine nach Kapitaelchen 1" f.sc
AlternateSubs2: "'aalt' Alle Alternativen zeigen 1" f.sc
EndChar

StartChar: g
Encoding: 103 103 265
Width: 1100
VWidth: 999
Flags: HW
HStem: -212 76<179.2 885.174> -109 31<467.437 579.875> 57 60<457.178 475.823 477.03 616.503> 175 32<479.917 556.258> 366 33<475.704 554.01> 718 36<188.821 875.472>
VStem: 120 36<-107.953 686.051> 360 81<-58.8228 28.3205> 380 81<220.21 347.133> 384 58<112.953 188.27> 573 80<221.795 345.025> 630 77<-36.8608 41.4526> 904 96<-118.923 694.8>
AnchorPoint: "unten_punkt" 475 -40 basechar 0
AnchorPoint: "top_akzent" 471 510 basechar 0
AnchorPoint: "top_punkt" 471 438 basechar 0
LayerCount: 3
Fore
SplineSet
653 286 m 0
 653 225 605 175 518 175 c 0
 493 175 475 177 460 186 c 0
 458 187 456 188 454 189 c 1
 446 176 442 159 442 144 c 0
 442 111 464 111 485 111 c 0
 489 111 496 112 507 113 c 0
 524 115 541 117 554 117 c 0
 623 117 707 95 707 18 c 0
 707 -63 586 -109 490 -109 c 0
 435 -109 360 -89 360 -24 c 0
 360 9 388 43 426 67 c 1
 404 73 384 93 384 125 c 0
 384 150 395 184 415 202 c 1
 411 207 l 1
 394 220 380 247 380 285 c 0
 380 349 438 399 519 399 c 0
 535 399 550 396 563 392 c 1
 619 395 661 403 697 406 c 1
 700 404 l 1
 698 397 697 387 697 380 c 0
 697 373 698 365 700 358 c 1
 697 356 l 1
 669.9 358.6 636.1 361.2 612.6 363.2 c 1
 636.3 345.8 653 315 653 286 c 0
573 279 m 0
 573 335 556 366 511 366 c 0
 472 366 461 330 461 296 c 0
 461 248 471 207 520 207 c 0
 547 207 573 225 573 279 c 0
249 718 m 2
 189 718 156 685 156 625 c 2
 156 -53 l 2
 156 -113 189 -136 249 -136 c 2
 821 -136 l 2
 881 -136 904 -113 904 -53 c 2
 904 625 l 2
 904 685 881 718 821 718 c 2
 249 718 l 2
1000 -84 m 2
 1000 -174 971 -212 881 -212 c 2
 249 -212 l 2
 159 -212 120 -174 120 -84 c 2
 120 625 l 2
 120 708 168 754 249 754 c 2
 851 754 l 2
 941 754 1000 715 1000 625 c 2
 1000 -84 l 2
477.4 54.5 m 2
 479 54.8 480.5 55 478 55 c 1
 477.4 54.5 l 2
476.7 54 m 1
 449.7 32.5 441 15.6 441 -9 c 0
 441 -60 485 -78 511 -78 c 0
 575 -78 630 -45 630 1 c 0
 630 53 570 57 528 57 c 0
 518.1 57 498.4 54.1 476.7 54 c 1
EndSplineSet
Substitution2: "'sinf' Wissenschaftliche Indices 1" g.inferior
Substitution2: "'sups' Hochgestellte 1" g.superior
AlternateSubs2: "'aalt' Alle Alternativen zeigen 1" g.sc
Substitution2: "'smcp' Gemeine nach Kapitaelchen 1" g.sc
EndChar

StartChar: h
Encoding: 104 104 266
Width: 1100
VWidth: 999
Flags: HW
HStem: -212 76<179.2 885.174> 325 49<506.518 585.72> 548 20G<454.5 466> 718 36<188.821 875.472>
VStem: 120 36<-107.953 686.051> 367 103<423.566 550> 374 89<47.0099 290.763 315 545.485> 594 89<47.0099 318.633> 904 96<-118.923 694.8>
AnchorPoint: "ogonek" 659 94 basechar 0
AnchorPoint: "top_punkt" 566 499 basechar 0
AnchorPoint: "top_akzent" 565 571 basechar 0
AnchorPoint: "unten_punkt" 535 4 basechar 0
LayerCount: 3
Fore
SplineSet
594 180 m 2
 594 252 l 2
 594 313 580 325 538 325 c 0
 516 325 499 305 463 270 c 1
 463 180 l 2
 463 123 464 88 470 45 c 1
 469 43 l 1
 469 43 444 45 419 45 c 0
 392 45 368 43 368 43 c 1
 367 45 l 1
 373 85 374 124 374 180 c 2
 374 406 l 2
 374 463 373 515 367 547 c 1
 368 550 l 1
 399 552 445 561 464 568 c 1
 468 568 470 566 470 561 c 0
 465 515 463 476 463 421 c 2
 463 315 l 1
 513 365 542 374 572 374 c 0
 626 374 683 335 683 258 c 2
 683 180 l 2
 683 123 684 88 690 45 c 1
 689 43 l 1
 689 43 664 45 638 45 c 0
 612 45 587 43 587 43 c 1
 587 45 l 1
 593 85 594 124 594 180 c 2
249 718 m 2
 189 718 156 685 156 625 c 2
 156 -53 l 2
 156 -113 189 -136 249 -136 c 2
 821 -136 l 2
 881 -136 904 -113 904 -53 c 2
 904 625 l 2
 904 685 881 718 821 718 c 2
 249 718 l 2
1000 -84 m 2
 1000 -174 971 -212 881 -212 c 2
 249 -212 l 2
 159 -212 120 -174 120 -84 c 2
 120 625 l 2
 120 708 168 754 249 754 c 2
 851 754 l 2
 941 754 1000 715 1000 625 c 2
 1000 -84 l 2
EndSplineSet
Substitution2: "'sinf' Wissenschaftliche Indices 1" h.inferior
Substitution2: "'salt' Stilistische Alternativformen 1" h.alt
Substitution2: "'sups' Hochgestellte 1" h.superior
AlternateSubs2: "'aalt' Alle Alternativen zeigen 1" h.sc h.alt
Substitution2: "'smcp' Gemeine nach Kapitaelchen 1" h.sc
EndChar

StartChar: i
Encoding: 105 105 267
Width: 1100
VWidth: 999
Flags: HW
HStem: -212 76<179.2 885.174> 44 330<479.765 570> 466 104<483.248 566.752> 718 36<188.821 875.472>
VStem: 120 36<-107.953 686.051> 473 104<96.478 355 475.794 560.206> 479 88<46.0099 351.446> 904 96<-118.923 694.8>
AnchorPoint: "unten_anhang" 531 92 basechar 0
AnchorPoint: "ogonek" 585 91 basechar 0
AnchorPoint: "unten_punkt" 530 3 basechar 0
LayerCount: 3
Fore
SplineSet
249 718 m 2
 189 718 156 685 156 625 c 2
 156 -53 l 2
 156 -113 189 -136 249 -136 c 2
 821 -136 l 2
 881 -136 904 -113 904 -53 c 2
 904 625 l 2
 904 685 881 718 821 718 c 2
 249 718 l 2
1000 -84 m 2
 1000 -174 971 -212 881 -212 c 2
 249 -212 l 2
 159 -212 120 -174 120 -84 c 2
 120 625 l 2
 120 708 168 754 249 754 c 2
 851 754 l 2
 941 754 1000 715 1000 625 c 2
 1000 -84 l 2
473 518 m 0
 473 546 496 570 525 570 c 0
 554 570 577 546 577 518 c 0
 577 490 554 466 525 466 c 0
 496 466 473 490 473 518 c 0
479 221 m 2
 479 277 477 320 471 353 c 1
 473 355 l 1
 503 357 549 366 568 374 c 1
 572 374 575 372 575 366 c 0
 569 320 567 289 567 233 c 2
 567 180 l 2
 567 122 569 87 575 44 c 1
 573 42 l 1
 573 42 548 44 523 44 c 0
 497 44 472 42 472 42 c 1
 471 44 l 1
 477 85 479 123 479 180 c 2
 479 221 l 2
EndSplineSet
Substitution2: "'smcp' Gemeine nach Kapitaelchen i > i.sc 1" i.sc
Substitution2: "'smcp' Gemeine nach Kapitaelchen i > idotaccent.sc" idotaccent.sc
Substitution2: "'sinf' Wissenschaftliche Indices 1" i.inferior
Substitution2: "'sups' Hochgestellte 1" i.superior
AlternateSubs2: "'aalt' Alle Alternativen zeigen 1" i.sc
Colour: ff00ff
EndChar

StartChar: j
Encoding: 106 106 268
Width: 1100
VWidth: 999
Flags: HW
HStem: -103 55<371 439> -97 72<348 378> 371 15<530 541> 455 104<456 531>
VStem: 442 104<470 544> 450 88<-20 364>
LayerCount: 3
Fore
SplineSet
249 718 m 2
 189 718 156 685 156 625 c 2
 156 -53 l 2
 156 -113 189 -136 249 -136 c 2
 821 -136 l 2
 881 -136 904 -113 904 -53 c 2
 904 625 l 2
 904 685 881 718 821 718 c 2
 249 718 l 2
1000 -84 m 2
 1000 -174 971 -212 881 -212 c 2
 249 -212 l 2
 159 -212 120 -174 120 -84 c 2
 120 625 l 2
 120 708 168 754 249 754 c 2
 851 754 l 2
 941 754 1000 715 1000 625 c 2
 1000 -84 l 2
494 528 m 0
 494 556 517 580 546 580 c 0
 575 580 598 556 598 528 c 0
 598 500 575 476 546 476 c 0
 517 476 494 500 494 528 c 0
502 18 m 0
 502 30 500 48 500 130 c 2
 500 234 l 2
 500 291 498 334 492 366 c 1
 494 369 l 1
 524 371 570 380 589 388 c 1
 593 388 596 385 596 380 c 0
 590 334 588 303 588 246 c 2
 588 57 l 2
 588 3 575 -18 550 -54 c 0
 525 -89 473 -102 429 -102 c 0
 416 -102 395 -98 390 -96 c 1
 389 -93 l 1
 397 -80 396 -35 401 -16 c 1
 416 -15 l 1
 424 -29 429 -47 449 -47 c 0
 489 -47 502 -21 502 18 c 0
EndSplineSet
Substitution2: "'sinf' Wissenschaftliche Indices 1" j.inferior
Substitution2: "'sups' Hochgestellte 1" j.superior
Substitution2: "'smcp' Gemeine nach Kapitaelchen 1" j.sc
AlternateSubs2: "'aalt' Alle Alternativen zeigen 1" j.sc idotaccent.sc
Colour: ff00ff
EndChar

StartChar: k
Encoding: 107 107 269
Width: 1100
VWidth: 999
Flags: HW
HStem: 85 16G<394 446 446 497 595 628 741 746> 242 26<484 505> 396 15G<722 730> 595 15<481 493>
VStem: 401 88<89 588>
AnchorPoint: "unten_anhang" 431 94 basechar 0
AnchorPoint: "top_punkt" 537 500 basechar 0
AnchorPoint: "top_akzent" 536 571 basechar 0
AnchorPoint: "unten_punkt" 527 7 basechar 0
LayerCount: 3
Fore
SplineSet
249 718 m 2
 189 718 156 685 156 625 c 2
 156 -53 l 2
 156 -113 189 -136 249 -136 c 2
 821 -136 l 2
 881 -136 904 -113 904 -53 c 2
 904 625 l 2
 904 685 881 718 821 718 c 2
 249 718 l 2
1000 -84 m 2
 1000 -174 971 -212 881 -212 c 2
 249 -212 l 2
 159 -212 120 -174 120 -84 c 2
 120 625 l 2
 120 708 168 754 249 754 c 2
 851 754 l 2
 941 754 1000 715 1000 625 c 2
 1000 -84 l 2
381 197 m 2
 381 408 l 2
 381 465 379 517 373 549 c 1
 375 552 l 1
 405 554 451 563 470 570 c 1
 475 570 477 568 477 563 c 0
 471 517 469 478 469 422 c 2
 469 228.4 l 1
 475.1 229.5 480.9 232.7 488 239 c 0
 518 262 572 322 605 369 c 1
 625 369 695 369 709 371 c 1
 710 369 l 1
 662 327 600 256 570 225 c 1
 642 139 670 106 726 47 c 1
 725 45 l 1
 718 46 674 47 662 47 c 0
 649 47 613 46 602 45 c 1
 549 119 534 144 486 195 c 0
 480.9 199.4 474.2 201.1 469 201.7 c 1
 469 197 l 2
 469 140 470 90 477 47 c 1
 475 45 l 1
 475 45 451 47 425 47 c 0
 399 47 374 45 374 45 c 1
 373 47 l 1
 380 87 381 141 381 197 c 2
EndSplineSet
Substitution2: "'sinf' Wissenschaftliche Indices 1" k.inferior
Substitution2: "'sups' Hochgestellte 1" k.superior
AlternateSubs2: "'aalt' Alle Alternativen zeigen 1" k.sc
Substitution2: "'smcp' Gemeine nach Kapitaelchen 1" k.sc
Colour: ff80cc
EndChar

StartChar: l.superior
Encoding: 737 737 270
Width: 161
VWidth: 917
Flags: HW
HStem: 411 17<32 42 116 126> 664 16<27 56>
VStem: 60 37<429 663>
LayerCount: 3
Fore
SplineSet
60 626 m 2
 60 658 56 663 46 663 c 2
 30 664 l 2
 29 664 27 664 27 666 c 2
 26 679 l 1
 46 681 80 687 92 692 c 1
 97 692 98 691 98 687 c 2
 98 687 97 667 97 636 c 2
 97 449 l 2
 97 434 103 430 116 429 c 1
 122 428 l 2
 123 428 126 427 126 424 c 2
 126 411 l 1
 126 411 97 412 78 412 c 0
 60 412 32 411 32 411 c 1
 32 424 l 2
 32 426 33 428 36 428 c 2
 42 429 l 2
 60 431 60 433 60 449 c 2
 60 626 l 2
EndSplineSet
Colour: ff00ff
EndChar

StartChar: m
Encoding: 109 109 271
Width: 1100
VWidth: 999
Flags: HW
HStem: 52 16G<277 329 329 381 487 539 539 591 698 750 750 802> 334 50<419 483 626 697>
VStem: 285 88<56 297> 495 88<56 281> 706 88<56 324>
AnchorPoint: "unten_anhang" 329 61 basechar 0
AnchorPoint: "top_punkt" 550 467 basechar 0
AnchorPoint: "top_akzent" 549 538 basechar 0
AnchorPoint: "unten_punkt" 545 -24 basechar 0
LayerCount: 3
Fore
SplineSet
706 180 m 2
 706 257 l 2
 706 307 698 324 658 324 c 0
 628 324 619 311 583 271 c 1
 583 262 583 259 583 248 c 2
 583 180 l 2
 583 122 584 87 591 44 c 1
 589 42 l 1
 589 42 565 44 539 44 c 0
 513 44 488 42 488 42 c 1
 487 44 l 1
 494 85 495 123 495 180 c 2
 495 255 l 2
 495 306 476 324 448 324 c 0
 421 324 409 307 373 270 c 1
 373 180 l 2
 373 122 374 87 381 44 c 1
 379 42 l 1
 379 42 355 44 329 44 c 0
 303 44 278 42 278 42 c 1
 277 44 l 1
 284 85 285 123 285 180 c 2
 285 221 l 2
 285 277 283 321 277 353 c 1
 279 355 l 1
 309 357 353 366 372 374 c 1
 377 374 379 372 379 366 c 1
 375 344 372 314 372 314 c 1
 373 314 l 1
 409 352 428 374 475 374 c 0
 517 374 573 348 578 314 c 1
 621 360 644 374 685 374 c 0
 766 374 794 321 794 254 c 2
 794 180 l 2
 794 122 795 87 802 44 c 1
 800 42 l 1
 800 42 776 44 750 44 c 0
 724 44 699 42 699 42 c 1
 698 44 l 1
 704 85 706 123 706 180 c 2
249 718 m 2
 189 718 156 685 156 625 c 2
 156 -53 l 2
 156 -113 189 -136 249 -136 c 2
 821 -136 l 2
 881 -136 904 -113 904 -53 c 2
 904 625 l 2
 904 685 881 718 821 718 c 2
 249 718 l 2
1000 -84 m 2
 1000 -174 971 -212 881 -212 c 2
 249 -212 l 2
 159 -212 120 -174 120 -84 c 2
 120 625 l 2
 120 708 168 754 249 754 c 2
 851 754 l 2
 941 754 1000 715 1000 625 c 2
 1000 -84 l 2
EndSplineSet
Substitution2: "'sinf' Wissenschaftliche Indices 1" m.inferior
Substitution2: "'sups' Hochgestellte 1" m.superior
AlternateSubs2: "'aalt' Alle Alternativen zeigen 1" m.sc
Substitution2: "'smcp' Gemeine nach Kapitaelchen 1" m.sc
EndChar

StartChar: n
Encoding: 110 110 272
Width: 1100
VWidth: 999
Flags: HW
HStem: -212 76<179.2 885.174> 324 50<513.814 596.007> 718 36<188.821 875.472>
VStem: 120 36<-107.953 686.051> 378 101<223.616 298.412 312.023 355> 385 89<46.0099 291.84> 604 89<46.0099 317.273> 904 96<-118.923 694.8>
AnchorPoint: "unten_anhang" 430 61 basechar 0
AnchorPoint: "top_punkt" 546 467 basechar 0
AnchorPoint: "unten_punkt" 546 -29 basechar 0
AnchorPoint: "top_akzent" 546 539 basechar 0
LayerCount: 3
Fore
SplineSet
693 180 m 2
 693 122 694 87 700 44 c 1
 699 42 l 1
 699 42 674 44 648 44 c 0
 622 44 598 42 598 42 c 1
 597 44 l 1
 604 85 604 123 604 180 c 2
 604 246 l 2
 604 299 597 324 557 324 c 0
 524 324 512 313 474 268 c 1
 474 180 l 2
 474 122 475 87 481 44 c 1
 480 42 l 1
 480 42 455 44 430 44 c 0
 403 44 378 42 378 42 c 1
 378 44 l 1
 384 85 385 123 385 180 c 2
 385 221 l 2
 385 277 384 321 378 353 c 1
 379 355 l 1
 410 357 453 366 472 374 c 1
 477 374 479 372 479 366 c 1
 475 344 472 312 472 312 c 1
 474 312 l 1
 522 368 541 374 580 374 c 0
 647 374 693 322 693 255 c 2
 693 180 l 2
249 718 m 2
 189 718 156 685 156 625 c 2
 156 -53 l 2
 156 -113 189 -136 249 -136 c 2
 821 -136 l 2
 881 -136 904 -113 904 -53 c 2
 904 625 l 2
 904 685 881 718 821 718 c 2
 249 718 l 2
1000 -84 m 2
 1000 -174 971 -212 881 -212 c 2
 249 -212 l 2
 159 -212 120 -174 120 -84 c 2
 120 625 l 2
 120 708 168 754 249 754 c 2
 851 754 l 2
 941 754 1000 715 1000 625 c 2
 1000 -84 l 2
EndSplineSet
Substitution2: "'sinf' Wissenschaftliche Indices 1" n.inferior
AlternateSubs2: "'aalt' Alle Alternativen zeigen 1" n.sc
Substitution2: "'sups' Hochgestellte 1" n.superior
Substitution2: "'smcp' Gemeine nach Kapitaelchen 1" n.sc
EndChar

StartChar: o
Encoding: 111 111 273
Width: 1100
VWidth: 999
Flags: HW
HStem: -212 76<179.2 885.174> 36 38<494.054 584.681> 335 38<483.205 580.515> 718 36<188.821 875.472>
VStem: 120 36<-107.953 686.051> 363 96<115.833 287.865> 609 96<119.743 292.728> 904 96<-118.923 694.8>
AnchorPoint: "unten_anhang" 538 51 basechar 0
AnchorPoint: "ogonek" 648 87 basechar 0
AnchorPoint: "unten_punkt" 544 -27 basechar 0
AnchorPoint: "top_punkt" 543 466 basechar 0
AnchorPoint: "top_akzent" 535 537 basechar 0
LayerCount: 3
Fore
SplineSet
363 197 m 0
 363 300 428 373 536 373 c 0
 662 373 705 282 705 204 c 0
 705 124 649 36 534 36 c 0
 422 36 363 115 363 197 c 0
530 335 m 0
 466 335 459 280 459 215 c 0
 459 157 466 74 544 74 c 0
 578 74 609 98 609 184 c 0
 609 288 594 335 530 335 c 0
249 718 m 2
 189 718 156 685 156 625 c 2
 156 -53 l 2
 156 -113 189 -136 249 -136 c 2
 821 -136 l 2
 881 -136 904 -113 904 -53 c 2
 904 625 l 2
 904 685 881 718 821 718 c 2
 249 718 l 2
1000 -84 m 2
 1000 -174 971 -212 881 -212 c 2
 249 -212 l 2
 159 -212 120 -174 120 -84 c 2
 120 625 l 2
 120 708 168 754 249 754 c 2
 851 754 l 2
 941 754 1000 715 1000 625 c 2
 1000 -84 l 2
EndSplineSet
Substitution2: "'sups' Hochgestellte 1" o.superior
AlternateSubs2: "'aalt' Alle Alternativen zeigen 1" o.sc
Substitution2: "'sinf' Wissenschaftliche Indices 1" o.inferior
Substitution2: "'smcp' Gemeine nach Kapitaelchen 1" o.sc
EndChar

StartChar: p
Encoding: 112 112 274
Width: 1100
VWidth: 999
Flags: HW
HStem: -212 76<179.2 885.174> 48 40<470.125 578.462> 336 49<493.244 580.964> 718 36<188.821 875.472>
VStem: 120 36<-107.953 686.051> 362 102<97.625 312.397 326.02 366> 370 88<-116.025 64 100.318 307.42 326 362.491> 605 101<145.912 303.996> 904 96<-118.923 694.8>
AnchorPoint: "top_punkt" 518 439 basechar 0
AnchorPoint: "top_akzent" 517 510 basechar 0
LayerCount: 3
Fore
SplineSet
458 274 m 1
 458 120 l 1
 484 89 508 88 520 88 c 0
 601 88 605 150 605 212 c 0
 605 296 582 336 536 336 c 0
 511 336 475 314 458 274 c 1
370 32 m 2
 370 232 l 2
 370 288 368 332 362 364 c 1
 364 366 l 1
 394 368 439 377 458 385 c 1
 462 385 464 382 464 377 c 0
 460 354 457 326 457 326 c 1
 459 326 l 1
 494 378 532 385 556 385 c 0
 629 385 706 311 706 232 c 0
 706 126 622 48 525 48 c 0
 498 48 478 54 458 64 c 1
 458 32 l 2
 458 -25 459 -76 466 -118 c 1
 464 -121 l 1
 464 -121 440 -118 414 -118 c 0
 388 -118 363 -121 363 -121 c 1
 362 -118 l 1
 369 -78 370 -24 370 32 c 2
249 718 m 2
 189 718 156 685 156 625 c 2
 156 -53 l 2
 156 -113 189 -136 249 -136 c 2
 821 -136 l 2
 881 -136 904 -113 904 -53 c 2
 904 625 l 2
 904 685 881 718 821 718 c 2
 249 718 l 2
1000 -84 m 2
 1000 -174 971 -212 881 -212 c 2
 249 -212 l 2
 159 -212 120 -174 120 -84 c 2
 120 625 l 2
 120 708 168 754 249 754 c 2
 851 754 l 2
 941 754 1000 715 1000 625 c 2
 1000 -84 l 2
EndSplineSet
Substitution2: "'sinf' Wissenschaftliche Indices 1" p.inferior
Substitution2: "'sups' Hochgestellte 1" p.superior
AlternateSubs2: "'aalt' Alle Alternativen zeigen 1" p.sc
Substitution2: "'smcp' Gemeine nach Kapitaelchen 1" p.sc
EndChar

StartChar: q
Encoding: 113 113 275
Width: 1100
VWidth: 999
Flags: HW
HStem: -150 16G<584 636 636 688> 18 47<481 580> 315 40<469 562>
VStem: 343 100<119 254> 592 88<-146 43 73 286>
AnchorPoint: "top_punkt" 502 438 basechar 0
AnchorPoint: "top_akzent" 501 510 basechar 0
LayerCount: 3
Fore
SplineSet
592 294 m 1
 571 327 548 345 517 345 c 0
 457 345 444 304 444 226 c 0
 444 113 490 96 534 96 c 0
 548 96 572 97 592 112 c 1
 592 294 l 1
592 32 m 2
 592 73 l 1
 580 63 559 48 516 48 c 0
 408 48 343 141 343 211 c 0
 343 310 428 385 520 385 c 0
 556 385 603 377 628 355 c 1
 639 373 l 2
 644 382 658 387 664 387 c 0
 672 387 680 379 680 369 c 2
 680 32 l 2
 680 -25 681 -75 688 -118 c 1
 686 -120 l 1
 686 -120 662 -118 636 -118 c 0
 610 -118 585 -120 585 -120 c 1
 584 -118 l 1
 590 -78 592 -24 592 32 c 2
249 718 m 2
 189 718 156 685 156 625 c 2
 156 -53 l 2
 156 -113 189 -136 249 -136 c 2
 821 -136 l 2
 881 -136 904 -113 904 -53 c 2
 904 625 l 2
 904 685 881 718 821 718 c 2
 249 718 l 2
1000 -84 m 2
 1000 -174 971 -212 881 -212 c 2
 249 -212 l 2
 159 -212 120 -174 120 -84 c 2
 120 625 l 2
 120 708 168 754 249 754 c 2
 851 754 l 2
 941 754 1000 715 1000 625 c 2
 1000 -84 l 2
EndSplineSet
Substitution2: "'sinf' Wissenschaftliche Indices 1" q.inferior
Substitution2: "'sups' Hochgestellte 1" q.superior
AlternateSubs2: "'aalt' Alle Alternativen zeigen 1" q.sc
Substitution2: "'smcp' Gemeine nach Kapitaelchen 1" q.sc
EndChar

StartChar: r
Encoding: 114 114 276
Width: 1100
VWidth: 999
Flags: HMW
HStem: 52 16G<421 469 469 524> 322 62<564 629>
VStem: 428 88<56 300>
AnchorPoint: "unten_anhang" 469 60 basechar 0
AnchorPoint: "top_punkt" 530 468 basechar 0
AnchorPoint: "top_akzent" 529 539 basechar 0
AnchorPoint: "unten_punkt" 487 -26 basechar 0
LayerCount: 3
Fore
SplineSet
517 310 m 1
 536 339 575 374 610 374 c 0
 624 374 628 372 641 368 c 1
 644 366 l 1
 629 296 l 1
 623 294 l 1
 610 305 594 305 580 305 c 0
 568 305 517 300 517 242 c 2
 517 180 l 2
 517 122 518 87 524 44 c 1
 523 42 l 1
 523 42 494 44 469 44 c 0
 442 44 421 42 421 42 c 1
 421 44 l 1
 427 85 428 123 428 180 c 2
 428 221 l 2
 428 277 423 320 417 353 c 1
 418 355 l 1
 449 357 491 366 510 374 c 1
 514 374 517 372 517 366 c 0
 516 344 515 310 515 310 c 1
 517 310 l 1
249 718 m 2
 189 718 156 685 156 625 c 2
 156 -53 l 2
 156 -113 189 -136 249 -136 c 2
 821 -136 l 2
 881 -136 904 -113 904 -53 c 2
 904 625 l 2
 904 685 881 718 821 718 c 2
 249 718 l 2
1000 -84 m 2
 1000 -174 971 -212 881 -212 c 2
 249 -212 l 2
 159 -212 120 -174 120 -84 c 2
 120 625 l 2
 120 708 168 754 249 754 c 2
 851 754 l 2
 941 754 1000 715 1000 625 c 2
 1000 -84 l 2
EndSplineSet
Substitution2: "'sinf' Wissenschaftliche Indices 1" r.inferior
Substitution2: "'sups' Hochgestellte 1" r.superior
AlternateSubs2: "'aalt' Alle Alternativen zeigen 1" r.sc
Substitution2: "'smcp' Gemeine nach Kapitaelchen 1" r.sc
EndChar

StartChar: s.superior
Encoding: 738 738 277
Width: 253
VWidth: 625
Flags: HW
HStem: 393 19<92 150> 583 19<103 155>
VStem: 52 16<438 468> 58 36<526 579> 159 40<416 471> 178 17<533 555>
LayerCount: 3
Fore
SplineSet
52 468 m 1
 69 468 l 1
 70 457 74 437 86 425 c 1
 92 421 106 412 123 412 c 0
 141 412 159 420 159 440 c 0
 159 456 153 471 116 487 c 1
 81 501 58 513 58 547 c 0
 58 578 92 602 128 602 c 0
 152 602 181 595 189 589 c 1
 196 533 l 1
 178 532 l 1
 168 576 142 583 128 583 c 0
 110 583 94 574 94 553 c 0
 94 535 101 529 127 518 c 0
 165 501.9 200 488 200 451 c 0
 200 405 150 393 124 393 c 0
 102 393 86 403 70 403 c 0
 68 403 61 403 56 402 c 1
 56 420 55 444 52 468 c 1
EndSplineSet
Colour: ff00ff
EndChar

StartChar: t
Encoding: 116 116 278
Width: 1100
VWidth: 999
Flags: HMW
HStem: 64 52<483 577> 353 40<387 437 525 612> 490 15G<513 525>
VStem: 437 88<117 353 393 482>
AnchorPoint: "unten_anhang" 510 69 basechar 0
AnchorPoint: "ogonek" 578 82 basechar 0
AnchorPoint: "unten_punkt" 526 -9 basechar 0
LayerCount: 3
Fore
SplineSet
390 323 m 2
 384 323 380 328 380 334 c 0
 380 344 388 363 396 363 c 2
 437 363 l 1
 437 406 437 414 432 446 c 1
 433 448 l 1
 463 450 504 467 522 474 c 1
 527 474 529 472 529 467 c 0
 526 424 525 419 525 363 c 1
 606 363 l 2
 609 363 612 361 612 358 c 2
 612 333 l 2
 612 326 601 323 594 323 c 2
 525 323 l 1
 525 245 l 2
 525 200 523 162 523 139 c 0
 523 108 528 85 548 85 c 0
 567 85 579 87 599 99 c 1
 607 94 613 84 613 72 c 1
 584 46 539 34 507 34 c 0
 459 34 435 72 435 107 c 0
 435 130 437 192 437 237 c 2
 437 323 l 1
 390 323 l 2
249 718 m 2
 189 718 156 685 156 625 c 2
 156 -53 l 2
 156 -113 189 -136 249 -136 c 2
 821 -136 l 2
 881 -136 904 -113 904 -53 c 2
 904 625 l 2
 904 685 881 718 821 718 c 2
 249 718 l 2
1000 -84 m 2
 1000 -174 971 -212 881 -212 c 2
 249 -212 l 2
 159 -212 120 -174 120 -84 c 2
 120 625 l 2
 120 708 168 754 249 754 c 2
 851 754 l 2
 941 754 1000 715 1000 625 c 2
 1000 -84 l 2
EndSplineSet
Substitution2: "'sinf' Wissenschaftliche Indices 1" t.inferior
Substitution2: "'sups' Hochgestellte 1" t.superior
AlternateSubs2: "'aalt' Alle Alternativen zeigen 1" t.sc
Substitution2: "'smcp' Gemeine nach Kapitaelchen 1" t.sc
EndChar

StartChar: u
Encoding: 117 117 279
Width: 1100
VWidth: 999
Flags: HW
HStem: -212 76<179.2 885.174> 35 48<474.899 551.764> 718 36<188.821 875.472>
VStem: 120 36<-107.953 686.051> 375 89<92.9125 362.036> 588 89<115.094 362.036> 904 96<-118.923 694.8>
AnchorPoint: "unten_anhang" 500 53 basechar 0
AnchorPoint: "ogonek" 555 58 basechar 0
AnchorPoint: "unten_punkt" 519 -30 basechar 0
AnchorPoint: "top_punkt" 560 465 basechar 0
AnchorPoint: "top_akzent" 560 537 basechar 0
LayerCount: 3
Fore
SplineSet
588 91 m 1
 546 46 523 35 492 35 c 0
 418 35 375 86 375 137 c 2
 375 230 l 2
 375 286 374 322 368 364 c 1
 369 367 l 1
 369 367 394 364 419 364 c 0
 446 364 470 367 470 367 c 1
 471 364 l 1
 464 325 464 286 464 230 c 2
 464 162 l 2
 464 95 489 83 512 83 c 0
 545 83 569 116 588 139 c 1
 588 230 l 2
 588 286 587 322 581 364 c 1
 582 367 l 1
 582 367 607 364 632 364 c 0
 659 364 683 367 683 367 c 1
 684 364 l 1
 677 325 677 286 677 230 c 2
 677 187 l 2
 677 130 683 75 689 43 c 1
 688 40 l 1
 678 42 650 43 640 43 c 0
 629 43 610 42 600 40 c 0
 596 40 593 41 593 43 c 2
 590 91 l 1
 588 91 l 1
249 718 m 2
 189 718 156 685 156 625 c 2
 156 -53 l 2
 156 -113 189 -136 249 -136 c 2
 821 -136 l 2
 881 -136 904 -113 904 -53 c 2
 904 625 l 2
 904 685 881 718 821 718 c 2
 249 718 l 2
1000 -84 m 2
 1000 -174 971 -212 881 -212 c 2
 249 -212 l 2
 159 -212 120 -174 120 -84 c 2
 120 625 l 2
 120 708 168 754 249 754 c 2
 851 754 l 2
 941 754 1000 715 1000 625 c 2
 1000 -84 l 2
EndSplineSet
Substitution2: "'sinf' Wissenschaftliche Indices 1" u.inferior
Substitution2: "'sups' Hochgestellte 1" u.superior
Substitution2: "'smcp' Gemeine nach Kapitaelchen 1" u.sc
AlternateSubs2: "'aalt' Alle Alternativen zeigen 1" u.sc
EndChar

StartChar: v
Encoding: 118 118 280
Width: 1100
Flags: HMW
HStem: 51 16G<433 458 508 531> 363 15G<324 343 390 409 576 595 625 646>
AnchorPoint: "unten_punkt" 525 -31 basechar 0
AnchorPoint: "top_akzent" 541 538 basechar 0
AnchorPoint: "top_punkt" 542 467 basechar 0
LayerCount: 3
Fore
SplineSet
454 41 m 1
 412 151 368 257 318 368 c 1
 330 365 356 365 368 365 c 0
 379 365 414 365 424 368 c 1
 451 282 483 197 520 111 c 1
 522 111 l 1
 556 185 590 283 620 368 c 1
 627 365 652 365 660 365 c 0
 667 365 688 365 695 368 c 1
 646 257 596 151 557 41 c 1
 550 44 518 44 511 44 c 0
 503 44 462 44 454 41 c 1
249 718 m 2
 189 718 156 685 156 625 c 2
 156 -53 l 2
 156 -113 189 -136 249 -136 c 2
 821 -136 l 2
 881 -136 904 -113 904 -53 c 2
 904 625 l 2
 904 685 881 718 821 718 c 2
 249 718 l 2
1000 -84 m 2
 1000 -174 971 -212 881 -212 c 2
 249 -212 l 2
 159 -212 120 -174 120 -84 c 2
 120 625 l 2
 120 708 168 754 249 754 c 2
 851 754 l 2
 941 754 1000 715 1000 625 c 2
 1000 -84 l 2
EndSplineSet
Substitution2: "'sinf' Wissenschaftliche Indices 1" v.inferior
Substitution2: "'sups' Hochgestellte 1" v.superior
Substitution2: "'smcp' Gemeine nach Kapitaelchen 1" v.sc
AlternateSubs2: "'aalt' Alle Alternativen zeigen 1" v.sc
EndChar

StartChar: w
Encoding: 119 119 281
Width: 1100
Flags: HW
HStem: -212 76<179.2 885.174> 44 67<425.471 448.028 649.454 673.741> 718 36<188.821 875.472>
VStem: 120 36<-107.953 686.051> 904 96<-118.923 694.8>
AnchorPoint: "top_punkt" 472 468 basechar 0
AnchorPoint: "top_akzent" 471 538 basechar 0
AnchorPoint: "unten_punkt" 476 -30 basechar 0
LayerCount: 3
Fore
SplineSet
370 40 m 1
 328 150 285 256 235 367 c 1
 247 364 277 364 289 364 c 0
 299 364 331 364 340 367 c 1
 368 281 397 196 434 110 c 1
 439 110 l 1
 459.5 155.8 481.9 210.3 502.7 265.2 c 1
 458 368 l 1
 470 365 500 365 512 365 c 0
 523 365 554 365 564 368 c 1
 591 281 621 197 658 111 c 1
 664 111 l 1
 699 185 730 283 760 368 c 1
 767 365 794 365 801 365 c 0
 808 365 826 365 833 368 c 1
 784 257 732 151 693 41 c 1
 686 44 640 44 633 44 c 0
 626 44 599 44 592 41 c 1
 530.2 198.7 l 1
 509 145.8 489.5 91.2 471 40 c 1
 464 43 417 43 410 43 c 0
 402 43 378 43 370 40 c 1
249 718 m 2
 189 718 156 685 156 625 c 2
 156 -53 l 2
 156 -113 189 -136 249 -136 c 2
 821 -136 l 2
 881 -136 904 -113 904 -53 c 2
 904 625 l 2
 904 685 881 718 821 718 c 2
 249 718 l 2
1000 -84 m 2
 1000 -174 971 -212 881 -212 c 2
 249 -212 l 2
 159 -212 120 -174 120 -84 c 2
 120 625 l 2
 120 708 168 754 249 754 c 2
 851 754 l 2
 941 754 1000 715 1000 625 c 2
 1000 -84 l 2
EndSplineSet
Substitution2: "'sinf' Wissenschaftliche Indices 1" w.inferior
Substitution2: "'sups' Hochgestellte 1" w.superior
Substitution2: "'smcp' Gemeine nach Kapitaelchen 1" w.sc
AlternateSubs2: "'aalt' Alle Alternativen zeigen 1" w.sc
EndChar

StartChar: x.superior
Encoding: 739 739 282
Width: 307
VWidth: 608
Flags: HW
HStem: 399 16<50 82 115 134 170 188 234 266> 582 16<53 81 130 147 180 201 230 261>
VStem: 50 216
DStem2: 93 435 120 429 0.60368 0.797227<1.11167 64.921 110.723 178.002> 163 520 140 491 0.574946 -0.818192<-64.6681 0 34.4636 96.3713>
LayerCount: 3
Fore
SplineSet
50 291 m 2
 50 296 53 297 58 297 c 0
 72 297 78 299 93 316 c 2
 93 316 138 370 140 372 c 1
 87 448 l 2
 80 457 72 463 63 463 c 0
 54 463 52 465 52 468 c 2
 52 478 l 1
 53 479 l 1
 68 479 80 479 98 479 c 0
 113 479 129 479 147 479 c 1
 148 477 l 1
 148 468 l 2
 148 465 144 463 137 463 c 0
 132 463 130 460 130 457 c 0
 130 453 132 448 135 443 c 2
 163 401 l 1
 193 443 198 451 198 451 c 1
 201 453 202 455 202 457 c 0
 202 461 198 463 188 463 c 0
 184 463 180 464 180 468 c 2
 180 478 l 1
 181 479 l 1
 195 479 207 478 220 478 c 0
 234 478 245 479 261 479 c 1
 262 477 l 1
 262 469 l 2
 262 465 262 463 252 463 c 0
 237 463 233 459 218 440 c 1
 176 382 l 1
 223 317 l 2
 231 307 240 297 256 297 c 0
 265 297 266 293 266 291 c 2
 266 281 l 1
 265 279 l 1
 251 280 238 280 223 280 c 0
 206 280 180 279 170 279 c 1
 169 280 l 1
 169 287 l 2
 169 292 171 297 178 297 c 0
 183 297 188 297 188 301 c 0
 188 303 186 305 184 309 c 2
 184 309 156 346 153 352 c 1
 141 336 120 310 120 310 c 2
 117 305 115 303 115 300 c 0
 115 297 120 297 128 297 c 0
 134 297 135 294 135 291 c 2
 135 281 l 1
 134 279 l 1
 119 280 107 280 95 280 c 0
 78 280 64 279 51 279 c 1
 50 281 l 1
 50 291 l 2
EndSplineSet
Colour: ff00ff
EndChar

StartChar: y
Encoding: 121 121 283
Width: 1100
Flags: HW
HStem: -153 16G<416 430 486 504> 333 15G<361 370 455 474 618 635 695 704>
AnchorPoint: "top_akzent" 534 507 basechar 0
AnchorPoint: "top_punkt" 541 437 basechar 0
LayerCount: 3
Fore
SplineSet
356 388 m 1
 366 386 399 386 409 386 c 0
 419 386 450 386 460 388 c 1
 484.3 313.2 515.2 239.2 547.4 161.6 c 1
 578.3 233 607.9 314.9 632 388 c 1
 639 386 668 386 675 386 c 0
 683 386 700 386 707 388 c 1
 683 338 518 -20 490 -113 c 1
 482 -111 461 -110 453 -110 c 0
 446 -110 420 -111 413 -113 c 1
 447 -57 473 -6 497 50 c 1
 494 55 l 1
 466 131 385 323 356 388 c 1
249 718 m 2
 189 718 156 685 156 625 c 2
 156 -53 l 2
 156 -113 189 -136 249 -136 c 2
 821 -136 l 2
 881 -136 904 -113 904 -53 c 2
 904 625 l 2
 904 685 881 718 821 718 c 2
 249 718 l 2
1000 -84 m 2
 1000 -174 971 -212 881 -212 c 2
 249 -212 l 2
 159 -212 120 -174 120 -84 c 2
 120 625 l 2
 120 708 168 754 249 754 c 2
 851 754 l 2
 941 754 1000 715 1000 625 c 2
 1000 -84 l 2
EndSplineSet
Substitution2: "'sinf' Wissenschaftliche Indices 1" y.inferior
Substitution2: "'sups' Hochgestellte 1" y.superior
Substitution2: "'smcp' Gemeine nach Kapitaelchen 1" y.sc
AlternateSubs2: "'aalt' Alle Alternativen zeigen 1" y.sc
EndChar

StartChar: z
Encoding: 122 122 284
Width: 1100
VWidth: 999
Flags: HMW
HStem: 54 38<429 591> 338 38<372 534>
DStem2: 358 78 429 92 0.560999 0.827816<50.704 314.152>
AnchorPoint: "top_akzent" 492 539 basechar 0
AnchorPoint: "top_punkt" 492 467 basechar 0
AnchorPoint: "unten_anhang" 483 57 basechar 0
AnchorPoint: "unten_punkt" 482 -29 basechar 0
LayerCount: 3
Fore
SplineSet
530 321 m 1
 445 320 363 313 363 313 c 1
 362 316 l 1
 363 322 363 335 363 342 c 0
 363 349 363 356 362 366 c 1
 363 368 l 1
 375 367 390 366 405 366 c 2
 587 366 l 2
 609 366 644 371 647 371 c 0
 650 371 651 369 651 366 c 1
 647 361 642 353 629 334 c 2
 462 88 l 1
 551 89 645 97 645 97 c 1
 646 94 l 1
 645 88 645 75 645 68 c 0
 645 61 645 54 646 44 c 1
 645 42 l 1
 633 43 618 44 603 44 c 2
 433 44 l 2
 412 44 344 42 344 42 c 1
 342 45 l 1
 348 52 351.9 59.1 358 68 c 2
 530 321 l 1
249 718 m 2
 189 718 156 685 156 625 c 2
 156 -53 l 2
 156 -113 189 -136 249 -136 c 2
 821 -136 l 2
 881 -136 904 -113 904 -53 c 2
 904 625 l 2
 904 685 881 718 821 718 c 2
 249 718 l 2
1000 -84 m 2
 1000 -174 971 -212 881 -212 c 2
 249 -212 l 2
 159 -212 120 -174 120 -84 c 2
 120 625 l 2
 120 708 168 754 249 754 c 2
 851 754 l 2
 941 754 1000 715 1000 625 c 2
 1000 -84 l 2
EndSplineSet
Substitution2: "'sinf' Wissenschaftliche Indices 1" z.inferior
Substitution2: "'sups' Hochgestellte 1" z.superior
Substitution2: "'smcp' Gemeine nach Kapitaelchen 1" z.sc
AlternateSubs2: "'aalt' Alle Alternativen zeigen 1" z.sc
EndChar

StartChar: braceleft
Encoding: 123 123 285
Width: 1100
VWidth: 999
Flags: HW
HStem: -212 76<179.2 885.174> -67 23<580.728 605> 599 23<580.988 605> 718 36<187.929 875.472>
VStem: 120 36<-107.953 686.071> 470 83<-23.6149 247.33 304.257 578.88> 904 96<-118.923 694.8>
LayerCount: 3
Fore
SplineSet
553 507 m 2
 553 381 l 2
 553 313 528 293 491 277 c 1
 535 258 553 227 553 163 c 2
 553 51 l 2
 553 -3 572 -44 605 -44 c 1
 605 -67 l 1
 529 -66 470 -42 470 55 c 2
 470 179 l 2
 470 225 456 258 416 267 c 1
 416 285 l 1
 458 297 470 335 470 372 c 2
 470 507 l 2
 470 594 530 620 605 622 c 1
 605 599 l 1
 577 591 553 575 553 507 c 2
249 718 m 2
 189 718 156 685 156 625 c 2
 156 -53 l 2
 156 -113 189 -136 249 -136 c 2
 821 -136 l 2
 881 -136 904 -113 904 -53 c 2
 904 625 l 2
 904 685 881 718 821 718 c 2
 249 718 l 2
1000 -84 m 2
 1000 -174 971 -212 881 -212 c 2
 249 -212 l 2
 159 -212 120 -174 120 -84 c 2
 120 625 l 2
 120 708 168 754 249 754 c 2
 851 754 l 2
 941 754 1000 715 1000 625 c 2
 1000 -84 l 2
EndSplineSet
Substitution2: "'c2sc' Versale nach Kapitaelchen 1" braceleft.sc
Substitution2: "'case' Versalformen 1" braceleft.sc
AlternateSubs2: "'aalt' Alle Alternativen zeigen 1" braceleft.sc
EndChar

StartChar: bar
Encoding: 124 124 286
Width: 1100
VWidth: 999
Flags: HW
HStem: -116 16G<448 492> 567 15G<448 492>
VStem: 448 45<-116 582>
LayerCount: 3
Fore
SplineSet
562 -106 m 1
 518 -106 l 1
 518 592 l 1
 562 592 l 1
 562 -106 l 1
249 718 m 2
 189 718 156 685 156 625 c 2
 156 -53 l 2
 156 -113 189 -136 249 -136 c 2
 821 -136 l 2
 881 -136 904 -113 904 -53 c 2
 904 625 l 2
 904 685 881 718 821 718 c 2
 249 718 l 2
1000 -84 m 2
 1000 -174 971 -212 881 -212 c 2
 249 -212 l 2
 159 -212 120 -174 120 -84 c 2
 120 625 l 2
 120 708 168 754 249 754 c 2
 851 754 l 2
 941 754 1000 715 1000 625 c 2
 1000 -84 l 2
EndSplineSet
EndChar

StartChar: braceright
Encoding: 125 125 287
Width: 1100
VWidth: 999
Flags: HW
HStem: -98 23<383 407> 568 23<383 407>
VStem: 435 83<-47 213 285 539>
LayerCount: 3
Fore
SplineSet
537 487 m 2
 537 555 513 571 485 579 c 1
 485 602 l 1
 560 600 620 574 620 487 c 2
 620 352 l 2
 620 315 632 277 674 265 c 1
 674 247 l 1
 634 238 620 205 620 159 c 2
 620 35 l 2
 620 -62 561 -86 485 -87 c 1
 485 -64 l 1
 518 -64 537 -23 537 31 c 2
 537 143 l 2
 537 207 555 238 599 257 c 1
 562 273 537 293 537 361 c 2
 537 487 l 2
249 718 m 2
 189 718 156 685 156 625 c 2
 156 -53 l 2
 156 -113 189 -136 249 -136 c 2
 821 -136 l 2
 881 -136 904 -113 904 -53 c 2
 904 625 l 2
 904 685 881 718 821 718 c 2
 249 718 l 2
1000 -84 m 2
 1000 -174 971 -212 881 -212 c 2
 249 -212 l 2
 159 -212 120 -174 120 -84 c 2
 120 625 l 2
 120 708 168 754 249 754 c 2
 851 754 l 2
 941 754 1000 715 1000 625 c 2
 1000 -84 l 2
EndSplineSet
Substitution2: "'c2sc' Versale nach Kapitaelchen 1" braceright.sc
Substitution2: "'case' Versalformen 1" braceright.sc
AlternateSubs2: "'aalt' Alle Alternativen zeigen 1" braceright.sc
Colour: ff00ff
EndChar

StartChar: asciitilde
Encoding: 126 126 288
Width: 1100
VWidth: 999
Flags: HW
HStem: -212 76<179.2 885.174> 235 60<552.689 653.398> 285 62<437.895 537.449> 718 36<188.821 875.472>
VStem: 120 36<-107.953 686.051> 388 16<233.625 240.396> 675 20<325.116 332.85> 904 96<-118.923 694.8>
LayerCount: 3
Fore
SplineSet
388 238 m 1
 398 289 440 347 488 347 c 0
 506 347 526 334 546 321 c 0
 566 308 587 295 604 295 c 0
 626 295 657 301 675 340 c 1
 695 329 l 1
 671 245 620 235 601 235 c 0
 581 235 561 247 542 260 c 0
 522 274 503 285 483 285 c 0
 456 285 423 264 404 228 c 1
 388 238 l 1
249 718 m 2
 189 718 156 685 156 625 c 2
 156 -53 l 2
 156 -113 189 -136 249 -136 c 2
 821 -136 l 2
 881 -136 904 -113 904 -53 c 2
 904 625 l 2
 904 685 881 718 821 718 c 2
 249 718 l 2
1000 -84 m 2
 1000 -174 971 -212 881 -212 c 2
 249 -212 l 2
 159 -212 120 -174 120 -84 c 2
 120 625 l 2
 120 708 168 754 249 754 c 2
 851 754 l 2
 941 754 1000 715 1000 625 c 2
 1000 -84 l 2
EndSplineSet
EndChar

StartChar: uni00A0
Encoding: 160 160 289
Width: 3330
VWidth: 999
Flags: HW
HStem: -212 76<159.2 3115.17> 718 36<168.821 3105.47>
VStem: 100 36<-107.953 686.051> 3134 96<-118.923 694.8>
LayerCount: 3
Fore
SplineSet
229 718 m 2
 169 718 136 685 136 625 c 2
 136 -53 l 2
 136 -113 169 -136 229 -136 c 2
 3051 -136 l 2
 3111 -136 3134 -113 3134 -53 c 2
 3134 625 l 2
 3134 685 3111 718 3051 718 c 2
 229 718 l 2
3230 -84 m 2
 3230 -174 3201 -212 3111 -212 c 2
 229 -212 l 2
 139 -212 100 -174 100 -84 c 2
 100 625 l 2
 100 708 148 754 229 754 c 2
 3081 754 l 2
 3171 754 3230 715 3230 625 c 2
 3230 -84 l 2
EndSplineSet
Colour: ff00ff
EndChar

StartChar: exclamdown
Encoding: 161 161 290
Width: 1100
VWidth: 999
Flags: HW
HStem: -137 15<94 114> 273 92<74 132>
VStem: 57 93<291 349> 59 91<-125 27>
LayerCount: 3
Fore
SplineSet
519 -32 m 0
 497 -32 473 -15 473 22 c 0
 473 71 486 103 494 167 c 0
 505 248 506 293 507 304 c 0
 508 312 511 319 519 319 c 0
 528 319 530 313 530 309 c 0
 532 293 536 226 543 167 c 0
 551 101 564 75 564 22 c 0
 564 -18 537 -32 519 -32 c 0
568 422 m 1
 568 419 l 1
 559 397 547 384 522 374 c 1
 520 374 l 1
 496 383 483 395 474 419 c 1
 474 422 l 1
 484 449 496 461 520 467 c 1
 522 467 l 1
 549 461 560 449 568 422 c 1
249 718 m 2
 189 718 156 685 156 625 c 2
 156 -53 l 2
 156 -113 189 -136 249 -136 c 2
 821 -136 l 2
 881 -136 904 -113 904 -53 c 2
 904 625 l 2
 904 685 881 718 821 718 c 2
 249 718 l 2
1000 -84 m 2
 1000 -174 971 -212 881 -212 c 2
 249 -212 l 2
 159 -212 120 -174 120 -84 c 2
 120 625 l 2
 120 708 168 754 249 754 c 2
 851 754 l 2
 941 754 1000 715 1000 625 c 2
 1000 -84 l 2
EndSplineSet
Substitution2: "'c2sc' Versale nach Kapitaelchen 1" exclamdown.sc
Substitution2: "'case' Versalformen 1" exclamdown.sc
AlternateSubs2: "'aalt' Alle Alternativen zeigen 1" exclamdown.sc
Colour: ff00ff
EndChar

StartChar: cent
Encoding: 162 162 291
Width: 480
VWidth: 999
Flags: HW
HStem: 62 16G<230 255> 133 43<234 325> 400 36<229 316> 489 15G<230 255>
VStem: 109 83<221 348> 230 26<62 504>
LayerCount: 3
Fore
SplineSet
490 484 m 1
 515 484 l 1
 515 404.6 l 1
 547.3 403.5 586.8 393.3 606.3 383.1 c 1
 607.2 381.3 l 1
 591.9 312.9 l 1
 580.2 312 l 1
 563.8 340 539 363.4 515 367.2 c 1
 515 145.5 l 2
 515.7 145.5 516.5 145.5 517.2 145.5 c 0
 544.2 145.5 570.3 154.5 596.4 186.9 c 1
 598.2 186.9 l 1
 607.2 181.5 611.7 176.1 612.6 169.8 c 1
 597.1 136.3 560.1 107.3 515 102.2 c 1
 515 42 l 1
 490 42 l 1
 490 101.7 l 1
 397.7 106 344.4 165 344.4 249 c 0
 344.4 337.6 408.1 396 490 403.8 c 1
 490 484 l 1
209 718 m 2
 149 718 116 685 116 625 c 2
 116 -53 l 2
 116 -113 149 -136 209 -136 c 2
 781 -136 l 2
 841 -136 864 -113 864 -53 c 2
 864 625 l 2
 864 685 841 718 781 718 c 2
 209 718 l 2
960 -84 m 2
 960 -174 931 -212 841 -212 c 2
 209 -212 l 2
 119 -212 80 -174 80 -84 c 2
 80 625 l 2
 80 708 128 754 209 754 c 2
 811 754 l 2
 901 754 960 715 960 625 c 2
 960 -84 l 2
490 150.5 m 1
 490 365.9 l 1
 453.9 358.1 427.2 325.8 427.2 266.1 c 0
 427.2 208.3 452.8 164.7 490 150.5 c 1
EndSplineSet
Colour: ff80cc
EndChar

StartChar: sterling
Encoding: 163 163 292
Width: 440
VWidth: 438
Flags: HW
HStem: 62 39<240 335> 104 30<160 201> 282 29<105 154 211 305> 458 40<253 339>
VStem: 68 51<64 103> 154 57<188 282 311 406>
LayerCount: 3
Fore
SplineSet
211 334 m 2
 211 284 l 1
 300 284 l 2
 304 284 305 282 305 279 c 2
 305 263 l 2
 305 257 295 255 288 255 c 2
 211 255 l 1
 211 170 184 130 160 107 c 1
 160 107 162 107 163 107 c 0
 244 107 241 75 289 75 c 0
 310 75 343 80 362 105 c 1
 375 98 l 1
 358 61 322 35 276 35 c 0
 212 35 211 77 149 77 c 0
 124 77 119 68 119 60 c 0
 119 44 106 35 91 35 c 0
 77 35 68 44 68 55 c 0
 68 69 85 80 104 90 c 1
 146 121 154 178 154 243 c 2
 154 255 l 1
 109 255 l 2
 106 255 105 255 105 259 c 2
 105 269 l 2
 105 275 109 284 122 284 c 2
 154 284 l 1
 154 298 l 2
 154 358 166 384 202 420 c 0
 240 458 286 471 328 471 c 0
 340 471 352 467 358 465 c 1
 358 462 l 1
 351 449 344 426 340 408 c 1
 332 407 l 1
 325 420 313 431 294 431 c 0
 256 431 211 385 211 334 c 2
-31 718 m 2
 -91 718 -124 685 -124 625 c 2
 -124 -53 l 2
 -124 -113 -91 -136 -31 -136 c 2
 541 -136 l 2
 601 -136 624 -113 624 -53 c 2
 624 625 l 2
 624 685 601 718 541 718 c 2
 -31 718 l 2
720 -84 m 2
 720 -174 691 -212 601 -212 c 2
 -31 -212 l 2
 -121 -212 -160 -174 -160 -84 c 2
 -160 625 l 2
 -160 708 -112 754 -31 754 c 2
 571 754 l 2
 661 754 720 715 720 625 c 2
 720 -84 l 2
EndSplineSet
EndChar

StartChar: currency
Encoding: 164 164 293
Width: 463
Flags: HW
HStem: 167 41<184 277> 392 41<185 277>
VStem: 83 61<248 351> 317 61<248 351>
LayerCount: 3
Fore
SplineSet
143 300 m 0
 143 248 181 208 230 208 c 0
 281 208 317 248 317 299 c 0
 317 353 275 392 232 392 c 0
 183 392 143 352 143 300 c 0
230 167 m 0
 202 167 177 173 155 185 c 1
 145 172 129 152 121 142 c 1
 75 186 l 1
 115 218 l 1
 94 245 83 271 83 299 c 0
 83 329 94 356 116 382 c 1
 104 391 88 403 77 413 c 1
 118 455 l 1
 155 414 l 1
 178 426 203 433 232 433 c 0
 262 433 284 425 306 413 c 1
 318 428 336 449 344 459 c 1
 388 413 l 1
 347 380 l 1
 368 354 378 328 378 299 c 0
 378 272 367 246 347 220 c 1
 359 210 375 197 386 187 c 1
 346 143 l 1
 308 187 l 1
 285 174 260 167 230 167 c 0
-41 718 m 2
 -101 718 -134 685 -134 625 c 2
 -134 -53 l 2
 -134 -113 -101 -136 -41 -136 c 2
 531 -136 l 2
 591 -136 614 -113 614 -53 c 2
 614 625 l 2
 614 685 591 718 531 718 c 2
 -41 718 l 2
710 -84 m 2
 710 -174 681 -212 591 -212 c 2
 -41 -212 l 2
 -131 -212 -170 -174 -170 -84 c 2
 -170 625 l 2
 -170 708 -122 754 -41 754 c 2
 561 754 l 2
 651 754 710 715 710 625 c 2
 710 -84 l 2
EndSplineSet
EndChar

StartChar: yen
Encoding: 165 165 294
Width: 440
Flags: HW
HStem: 69 16G<186 188 246 250> 167 29<86 354> 243 30<86 354> 488 15G<63 71 127 148 305 325 342 373>
VStem: 188 58<71 290>
LayerCount: 3
Fore
SplineSet
90 243 m 2
 86 243 86 244 86 248 c 2
 86 258 l 2
 86 264 90 273 102 273 c 2
 177.3 273 l 1
 145 332.5 80.9 462.2 57 503 c 1
 68 500 84 500 96 500 c 0
 107 500 122 500 133 503 c 1
 161.3 428.9 185.7 370.1 226.7 297.7 c 1
 264.7 357.9 288.5 423.2 321 503 c 1
 329 500 340 500 349 500 c 0
 357 500 368 500 377 503 c 1
 252.3 273 l 1
 349 273 l 2
 352 273 354 272 354 269 c 2
 354 253 l 2
 354 246 344 243 337 243 c 2
 246.3 243 l 1
 246.5 228 246.8 212 247.1 196 c 1
 349 196 l 2
 352 196 354 194 354 192 c 2
 354 176 l 2
 354 170 344 167 337 167 c 2
 247.7 167 l 1
 248.7 125.5 250.1 87.4 252 69 c 1
 241 72 227 72 217 72 c 0
 207 72 194 72 183 69 c 1
 185.4 90.7 186.7 127.4 187.3 167 c 1
 90 167 l 2
 86 167 86 168 86 171 c 2
 86 181 l 2
 86 187 90 196 102 196 c 2
 187.7 196 l 1
 187.9 211.9 188 227.8 188 243 c 1
 90 243 l 2
-21 718 m 2
 -81 718 -114 685 -114 625 c 2
 -114 -53 l 2
 -114 -113 -81 -136 -21 -136 c 2
 551 -136 l 2
 611 -136 634 -113 634 -53 c 2
 634 625 l 2
 634 685 611 718 551 718 c 2
 -21 718 l 2
730 -84 m 2
 730 -174 701 -212 611 -212 c 2
 -21 -212 l 2
 -111 -212 -150 -174 -150 -84 c 2
 -150 625 l 2
 -150 708 -102 754 -21 754 c 2
 581 754 l 2
 671 754 730 715 730 625 c 2
 730 -84 l 2
EndSplineSet
Substitution2: "'pnum' Proportionalziffern 1" Yen.fitted
EndChar

StartChar: brokenbar
Encoding: 166 166 295
Width: 220
VWidth: 999
Flags: HW
HStem: -212 76<-220.8 485.174> 718 36<-211.179 475.472>
VStem: -280 36<-107.953 686.051> 88 44<-72 195 278 545> 504 96<-118.923 694.8>
LayerCount: 3
Fore
SplineSet
132 545 m 1
 132 278 l 1
 88 278 l 1
 88 545 l 1
 132 545 l 1
132 195 m 1
 132 -72 l 1
 88 -72 l 1
 88 195 l 1
 132 195 l 1
-151 718 m 2
 -211 718 -244 685 -244 625 c 2
 -244 -53 l 2
 -244 -113 -211 -136 -151 -136 c 2
 421 -136 l 2
 481 -136 504 -113 504 -53 c 2
 504 625 l 2
 504 685 481 718 421 718 c 2
 -151 718 l 2
600 -84 m 2
 600 -174 571 -212 481 -212 c 2
 -151 -212 l 2
 -241 -212 -280 -174 -280 -84 c 2
 -280 625 l 2
 -280 708 -232 754 -151 754 c 2
 451 754 l 2
 541 754 600 715 600 625 c 2
 600 -84 l 2
EndSplineSet
EndChar

StartChar: section
Encoding: 167 167 296
Width: 525
VWidth: 999
Flags: HW
HStem: -68 37<220 310> 518 37<215 305>
VStem: 103 74<236 319> 126 76<417 493> 323 76<-7 73> 348 74<167 250>
LayerCount: 3
Fore
SplineSet
-11 718 m 2
 -71 718 -104 685 -104 625 c 2
 -104 -53 l 2
 -104 -113 -71 -136 -11 -136 c 2
 561 -136 l 2
 621 -136 644 -113 644 -53 c 2
 644 625 l 2
 644 685 621 718 561 718 c 2
 -11 718 l 2
740 -84 m 2
 740 -174 711 -212 621 -212 c 2
 -11 -212 l 2
 -101 -212 -140 -174 -140 -84 c 2
 -140 625 l 2
 -140 708 -92 754 -11 754 c 2
 591 754 l 2
 681 754 740 715 740 625 c 2
 740 -84 l 2
191.5 350.2 m 1
 179.3 334.8 177 312 177 290 c 0
 177 219 244 184 301 155 c 0
 312.7 149 323.6 142.6 333.5 135.8 c 1
 345.7 151.2 348 174 348 196 c 0
 348 267 281 302 224 331 c 0
 212.3 337 201.4 343.4 191.5 350.2 c 1
165 371.8 m 1
 140 395.6 126 422.2 126 448 c 0
 126 497 189 554 264 554 c 0
 316 554 364 524 384 507 c 1
 387 503 l 1
 374 442 l 1
 363 440 l 1
 342 478 299 518 258 518 c 0
 222 518 202 499 202 463 c 0
 202 428 216 411 254 395 c 0
 314.8 369.4 422 317 422 225 c 0
 422 180.5 391 137.7 360 114.2 c 1
 385 90.4 399 63.8 399 38 c 0
 399 -11 336 -68 261 -68 c 0
 209 -68 161 -38 141 -21 c 1
 138 -17 l 1
 151 44 l 1
 162 46 l 1
 183 8 226 -32 267 -32 c 0
 303 -32 323 -13 323 23 c 0
 323 58 309 82 271 98 c 0
 210 122 103 169 103 261 c 0
 103 305.5 134 348.3 165 371.8 c 1
EndSplineSet
EndChar

StartChar: dieresis
Encoding: 168 168 297
Width: 399
VWidth: 999
Flags: HW
HStem: 533 80<92 157 228 293>
VStem: 84 81<542 605> 220 81<542 605>
LayerCount: 3
Fore
SplineSet
232.8 503 m 0
 232.8 528.3 252.6 548 276.8 548 c 0
 301 548 321.8 528.3 321.8 503 c 0
 321.8 478.8 301 459 276.8 459 c 0
 252.6 459 232.8 478.8 232.8 503 c 0
83.2 503 m 0
 83.2 528.3 104 548 128.2 548 c 0
 152.4 548 172.2 528.3 172.2 503 c 0
 172.2 478.8 152.4 459 128.2 459 c 0
 104 459 83.2 478.8 83.2 503 c 0
EndSplineSet
EndChar

StartChar: copyright
Encoding: 169 169 298
Width: 633
VWidth: 999
Flags: HW
HStem: 94 24<256 384> 190 22<289 365> 402 17<286 357> 493 24<256 384>
VStem: 105 30<233 379> 203 46<245 360> 505 30<233 379>
LayerCount: 3
Fore
SplineSet
408 238 m 1
 393 215 361 190 320 190 c 0
 253 190 203 243 203 302 c 0
 203 365 255 419 321 419 c 0
 374 419 374 408 396 408 c 1
 406 349 l 1
 391 346 l 1
 378 381 361 402 318 402 c 0
 288 402 249 383 249 310 c 0
 249 255 276 212 327 212 c 0
 365 212 386 238 394 250 c 1
 408 238 l 1
317 94 m 0
 199 94 105 190 105 306 c 0
 105 423 200 517 317 517 c 0
 434 517 528 423 528 306 c 0
 528 189 434 94 317 94 c 0
317 494 m 0
 212 494 128 410 128 306 c 0
 128 202 212 118 317 118 c 0
 420 118 505 202 505 306 c 0
 505 410 421 494 317 494 c 0
EndSplineSet
Colour: ff80cc
EndChar

StartChar: ordfeminine
Encoding: 170 170 299
Width: 297
VWidth: 999
Flags: HMW
HStem: 393 23<100 164 207 240> 583 18<100 169>
VStem: 62 40<420 476 529 553 541 574> 179 40<442 501 521 574>
LayerCount: 3
Fore
SplineSet
179 501 m 1
 115 484 97 471 97 448 c 0
 97 432 106 417 131 417 c 0
 147 417 160 424 179 442 c 1
 179 501 l 1
211 393 m 0
 193 393 182 409 180 422 c 1
 154 400 141 393 116 393 c 0
 85 393 58 413 58 445 c 0
 58 477 88.1 497.7 136 510 c 2
 179 521 l 1
 179 577 156 583 139 583 c 0
 114 583 98 575 98 563 c 0
 98 558 99 555 100 553 c 0
 100 552 101 548 101 544 c 0
 101 538 96 529 82 529 c 0
 70 529 62 536 62 547 c 0
 62 577 109 602 140 602 c 0
 177 602 220 587 220 517 c 2
 220 460 l 2
 220 430 223 418 230 418 c 0
 233 418 237 419 239 421 c 1
 247 409 l 1
 240 402 226 393 211 393 c 0
EndSplineSet
EndChar

StartChar: guillemotleft
Encoding: 171 171 300
Width: 536
VWidth: 999
Flags: HMW
LayerCount: 3
Fore
SplineSet
418 376 m 1
 418 337 l 1
 385 288 349 246 311 215 c 1
 348 187 383 147 418 93 c 1
 418 54 l 1
 358 124 303 173 254 201 c 1
 254 229 l 1
 307 267 362 316 418 376 c 1
283 376 m 1
 283 337 l 1
 249 288 213 246 175 215 c 1
 211 187 247 147 283 93 c 1
 283 54 l 1
 222 124 168 173 118 201 c 1
 118 229 l 1
 171 267 226 316 283 376 c 1
29 718 m 2
 -31 718 -64 685 -64 625 c 2
 -64 -53 l 2
 -64 -113 -31 -136 29 -136 c 2
 601 -136 l 2
 661 -136 684 -113 684 -53 c 2
 684 625 l 2
 684 685 661 718 601 718 c 2
 29 718 l 2
780 -84 m 2
 780 -174 751 -212 661 -212 c 2
 29 -212 l 2
 -61 -212 -100 -174 -100 -84 c 2
 -100 625 l 2
 -100 708 -52 754 29 754 c 2
 631 754 l 2
 721 754 780 715 780 625 c 2
 780 -84 l 2
EndSplineSet
Substitution2: "'c2sc' Versale nach Kapitaelchen 1" guillemotleft.sc
AlternateSubs2: "'aalt' Alle Alternativen zeigen 1" guillemotleft.sc
Substitution2: "'case' Versalformen 1" guillemotleft.sc
EndChar

StartChar: logicalnot
Encoding: 172 172 301
Width: 560
VWidth: 487
Flags: HW
HStem: 334 33<88 432>
VStem: 432 40<166 334>
LayerCount: 3
Fore
SplineSet
432 166 m 1
 432 334 l 1
 88 334 l 1
 88 368 l 1
 473 368 l 1
 473 166 l 1
 432 166 l 1
EndSplineSet
EndChar

StartChar: uni00AD
Encoding: 173 173 302
Width: 1100
VWidth: 999
Flags: HW
HStem: 239 47<71 262>
VStem: 66 201<240 286>
LayerCount: 3
Fore
SplineSet
617 239 m 2
 448 239 l 2
 441 239 436 245 436 252 c 0
 436 264 446 286 455 286 c 2
 627 286 l 2
 634 286 638 279 638 273 c 0
 638 264 627 239 617 239 c 2
249 718 m 2
 189 718 156 685 156 625 c 2
 156 -53 l 2
 156 -113 189 -136 249 -136 c 2
 821 -136 l 2
 881 -136 904 -113 904 -53 c 2
 904 625 l 2
 904 685 881 718 821 718 c 2
 249 718 l 2
1000 -84 m 2
 1000 -174 971 -212 881 -212 c 2
 249 -212 l 2
 159 -212 120 -174 120 -84 c 2
 120 625 l 2
 120 708 168 754 249 754 c 2
 851 754 l 2
 941 754 1000 715 1000 625 c 2
 1000 -84 l 2
EndSplineSet
Colour: ff00ff
EndChar

StartChar: registered
Encoding: 174 174 303
Width: 633
VWidth: 999
Flags: HMW
HStem: 94 24<256 384> 203 18<230 249 303 320> 292 18<294 321> 392 18<228 256 297 350> 493 24<256 384>
VStem: 105 30<233 379> 258 35<223 292 310 391> 361 41<316 387> 505 30<233 379>
DStem2: 359 298 321 289 0.505179 -0.863014<0 96.7124>
LayerCount: 3
Fore
SplineSet
402 354 m 0
 402 325 382 306 359 298 c 1
 395 237 l 2
 403 223 415 219 427 221 c 1
 430 208 l 1
 421 205 412 203 403 203 c 0
 388 203 370 208 357 229 c 2
 321 289 l 1
 318 292 297 292 294 292 c 1
 294 238 l 2
 294 229 297 223 303 223 c 1
 313 221 l 2
 319 220 321 220 321 217 c 2
 321 205 l 1
 320 203 l 1
 320 203 289 205 276 205 c 0
 261 205 230 203 230 203 c 1
 228 205 l 1
 228 217 l 2
 228 220 231 220 236 221 c 2
 249 223 l 2
 255 223 258 229 258 238 c 2
 258 373 l 2
 258 386 250 392 241 392 c 2
 233 392 l 2
 228 392 227 394 227 396 c 2
 227 409 l 1
 228 410 l 1
 330 410 l 2
 387 410 402 376 402 354 c 0
361 354 m 0
 361 379 349 392 324 392 c 0
 305 392 294 387 294 373 c 2
 294 310 l 1
 318 310 l 2
 340 310 361 316 361 354 c 0
317 94 m 0
 199 94 105 190 105 306 c 0
 105 423 200 517 317 517 c 0
 434 517 528 423 528 306 c 0
 528 189 434 94 317 94 c 0
317 494 m 0
 212 494 128 410 128 306 c 0
 128 202 212 118 317 118 c 0
 420 118 505 202 505 306 c 0
 505 410 421 494 317 494 c 0
EndSplineSet
Colour: ff80cc
EndChar

StartChar: macron
Encoding: 175 175 304
Width: 397
VWidth: 999
Flags: HW
HStem: 534 33<95 303>
VStem: 94 210<535 568>
LayerCount: 3
Fore
SplineSet
286 534 m 2
 103 534 l 2
 96 534 94 540 94 546 c 0
 94 555 102 568 110 568 c 2
 294 568 l 2
 301 568 304 562 304 557 c 0
 304 548 296 534 286 534 c 2
EndSplineSet
EndChar

StartChar: degree
Encoding: 176 176 305
Width: 267
VWidth: 999
Flags: HW
HStem: -212 76<-200.8 505.174> 424 35<100.003 167.114> 552 35<100.686 166.363> 718 36<-191.179 495.472>
VStem: -260 36<-107.953 686.051> 52 39<466.187 544.436> 176 39<466.266 544.867> 524 96<-118.923 694.8>
LayerCount: 3
Fore
SplineSet
176 504 m 0
 176 526.7 163.1 552 134 552 c 0
 106.7 552 91 528.2 91 504 c 0
 91 479.1 108.2 459 134 459 c 0
 160.4 459 176 482 176 504 c 0
134 587 m 0
 178.9 587 215 550.7 215 505 c 0
 215 460.2 178.8 424 134 424 c 0
 89.2 424 52 460 52 505 c 0
 52 550.9 89.2 587 134 587 c 0
-131 718 m 2
 -191 718 -224 685 -224 625 c 2
 -224 -53 l 2
 -224 -113 -191 -136 -131 -136 c 2
 441 -136 l 2
 501 -136 524 -113 524 -53 c 2
 524 625 l 2
 524 685 501 718 441 718 c 2
 -131 718 l 2
620 -84 m 2
 620 -174 591 -212 501 -212 c 2
 -131 -212 l 2
 -221 -212 -260 -174 -260 -84 c 2
 -260 625 l 2
 -260 708 -212 754 -131 754 c 2
 471 754 l 2
 561 754 620 715 620 625 c 2
 620 -84 l 2
EndSplineSet
EndChar

StartChar: plusminus
Encoding: 177 177 306
Width: 527
VWidth: 999
Flags: HW
HStem: -148 76<179.2 885.174> 72 56<395 692> 268 56<385 513 569 697> 782 36<188.821 875.472>
VStem: 120 36<-43.9529 750.051> 513 56<146 268 324 447> 904 96<-54.9227 758.8>
LayerCount: 3
Fore
SplineSet
692 128 m 1
 692 72 l 1
 395 72 l 1
 395 128 l 1
 692 128 l 1
569 324 m 1
 697 324 l 1
 697 268 l 1
 569 268 l 1
 569 146 l 1
 513 146 l 1
 513 268 l 1
 385 268 l 1
 385 324 l 1
 513 324 l 1
 513 447 l 1
 569 447 l 1
 569 324 l 1
249 782 m 2
 189 782 156 749 156 689 c 2
 156 11 l 2
 156 -49 189 -72 249 -72 c 2
 821 -72 l 2
 881 -72 904 -49 904 11 c 2
 904 689 l 2
 904 749 881 782 821 782 c 2
 249 782 l 2
1000 -20 m 2
 1000 -110 971 -148 881 -148 c 2
 249 -148 l 2
 159 -148 120 -110 120 -20 c 2
 120 689 l 2
 120 772 168 818 249 818 c 2
 851 818 l 2
 941 818 1000 779 1000 689 c 2
 1000 -20 l 2
EndSplineSet
Colour: ff00ff
EndChar

StartChar: two.superior
Encoding: 178 178 307
Width: 307
VWidth: 487
Flags: HW
HStem: 404 26<119 236> 629 18<117 176>
VStem: 72 46<430 449> 74 37<572 623> 191 44<541 621>
LayerCount: 3
Fore
SplineSet
172 430 m 2
 208 430 217 431 238 433 c 1
 237 428 236 422 236 418 c 0
 236 413 237 407 238 403 c 1
 211 404 203 404 177 404 c 2
 72 404 l 1
 72 440 105.2 471.8 141 500 c 0
 174 526 191 544 191 584 c 0
 191 620 165 629 151 629 c 0
 119 629 111 617 111 608 c 0
 111 601 114 596 114 590 c 0
 114 578 101 572 94 572 c 0
 84 572 74 580 74 590 c 0
 74 609 95 647 154 647 c 0
 192 647 235 633 235 585 c 0
 235 550 210 526 168 496 c 0
 137 473 119 453 119 430 c 1
 172 430 l 2
-231 718 m 2
 -291 718 -324 685 -324 625 c 2
 -324 -53 l 2
 -324 -113 -291 -136 -231 -136 c 2
 341 -136 l 2
 401 -136 424 -113 424 -53 c 2
 424 625 l 2
 424 685 401 718 341 718 c 2
 -231 718 l 2
520 -84 m 2
 520 -174 491 -212 401 -212 c 2
 -231 -212 l 2
 -321 -212 -360 -174 -360 -84 c 2
 -360 625 l 2
 -360 708 -312 754 -231 754 c 2
 371 754 l 2
 461 754 520 715 520 625 c 2
 520 -84 l 2
EndSplineSet
EndChar

StartChar: three.superior
Encoding: 179 179 308
Width: 307
VWidth: 487
Flags: HMW
HStem: 399 18<104 170> 526 18<125 139> 629 18<122 178>
VStem: 180 42<568 626> 200 44<439 516>
LayerCount: 3
Fore
SplineSet
180 599 m 0
 180 622 164 629 150 629 c 0
 135 629 110 621 109 602 c 0
 108 594 107 581 89 581 c 0
 75 581 72 592 72 594 c 0
 72 607 94 647 159 647 c 0
 198 647 223 630 223 602 c 0
 223 581 206 564 185 552 c 1
 209 549 245 529 245 486 c 0
 245 434 195 399 135 399 c 0
 107 399 68 411 68 427 c 0
 68 434 78 442 86 442 c 0
 97 442 101 437 106 432 c 0
 112 424 119 418 143 418 c 0
 158 418 200 428 200 480 c 0
 200 522 160 528 142 528 c 0
 137 528 133 527 127 526 c 1
 125 544 l 1
 158 548 180 568 180 599 c 0
-241 718 m 2
 -301 718 -334 685 -334 625 c 2
 -334 -53 l 2
 -334 -113 -301 -136 -241 -136 c 2
 331 -136 l 2
 391 -136 414 -113 414 -53 c 2
 414 625 l 2
 414 685 391 718 331 718 c 2
 -241 718 l 2
510 -84 m 2
 510 -174 481 -212 391 -212 c 2
 -241 -212 l 2
 -331 -212 -370 -174 -370 -84 c 2
 -370 625 l 2
 -370 708 -322 754 -241 754 c 2
 361 754 l 2
 451 754 510 715 510 625 c 2
 510 -84 l 2
EndSplineSet
EndChar

StartChar: acute
Encoding: 180 180 309
Width: 341
VWidth: 999
Flags: HMW
HStem: 562 120
LayerCount: 3
Fore
SplineSet
184.3 602.2 m 1
 186.5 603.3 193.1 604.5 197.5 604.5 c 0
 222.8 604.5 238.2 592.4 244.8 584.7 c 1
 252.5 564.8 l 1
 153.5 475.8 l 2
 142.5 465.9 130.4 462.5 122.7 462.5 c 0
 116.1 462.5 109.5 469.2 109.5 474.7 c 0
 109.5 479.1 110.6 486.8 116.1 494.5 c 2
 184.3 602.2 l 1
EndSplineSet
Substitution2: "'case' Versalformen 1" acute.cap
Colour: ff00ff
EndChar

StartChar: uni00B5
Encoding: 181 181 310
Width: 529
Flags: HW
HStem: -147 16G<144 164> 18 40<201 272 366 435> 347 15G<96 185 312 395>
VStem: 104 87<-131 23 65 352> 117 62<-95 25> 312 82<84 352>
LayerCount: 3
Fore
SplineSet
313 63 m 1
 282 38 254 18 213 18 c 0
 201 18 189 20 179 25 c 1
 180 1 178 -23 182 -45 c 1
 187 -64 192 -86 192 -99 c 0
 192 -115.7 187.7 -128 180.1 -136 c 1
 551 -136 l 2
 611 -136 634 -113 634 -53 c 2
 634 625 l 2
 634 685 611 718 551 718 c 2
 -21 718 l 2
 -81 718 -114 685 -114 625 c 2
 -114 -53 l 2
 -114 -113 -81 -136 -21 -136 c 2
 125.6 -136 l 1
 114.1 -127.2 104 -113.2 104 -95 c 0
 104 -80 107 -62 110 -42 c 0
 113 -22 117 -3 117 24 c 0
 117 34 116 46 115 62 c 0
 113 81 104 111 104 130 c 2
 104 269 l 2
 104 288 96 352 96 352 c 1
 185 362 l 1
 185 362 187 308 187 284 c 2
 187 140 l 2
 187 92 200 58 227 58 c 0
 258 58 296 78 312 100 c 1
 312 352 l 1
 395 363 l 1
 395 122 l 2
 395 87 396 58 425 58 c 0
 443 58 444 70 448 70 c 0
 451 70 458 61 458 56 c 0
 458 52 429 20 388 20 c 0
 343 20 324 34 314 63 c 1
 313 63 l 1
730 -84 m 2
 730 -174 701 -212 611 -212 c 2
 -21 -212 l 2
 -111 -212 -150 -174 -150 -84 c 2
 -150 625 l 2
 -150 708 -102 754 -21 754 c 2
 581 754 l 2
 671 754 730 715 730 625 c 2
 730 -84 l 2
EndSplineSet
EndChar

StartChar: paragraph
Encoding: 182 182 311
Width: 602
VWidth: 999
Flags: HW
HStem: -122 25<350 403> 263 274<193 308> 511 25<350 403>
VStem: 113 232<336 473> 308 38<-95 265> 407 38<-95 507>
LayerCount: 3
Fore
SplineSet
346 482 m 2
 346 -69 l 2
 346 -89 359 -98 376 -98 c 0
 393 -98 407 -92 407 -69 c 2
 407 482 l 2
 407 505 393 511 376 511 c 0
 359 511 346 502 346 482 c 2
377 535 m 0
 403 535 451 538 451 538 c 1
 452 535 l 1
 446 496 444 442 444 385 c 2
 444 28 l 2
 444 -29 446 -80 452 -122 c 1
 450 -125 l 1
 450 -125 401 -122 376 -122 c 0
 350 -122 302 -125 302 -125 c 1
 301 -122 l 1
 307 -80 308 -29 308 28 c 2
 308 265 l 1
 302 264 296 263 284 263 c 0
 175 263 113 312 113 412 c 0
 113 472 157 537 256 537 c 0
 312 537 356 535 377 535 c 0
EndSplineSet
EndChar

StartChar: periodcentered
Encoding: 183 183 312
Width: 301
VWidth: 1184
Flags: HW
HStem: 208 101<115 187>
VStem: 100 102<222 294>
LayerCount: 3
Fore
SplineSet
151 208 m 0
 120 208 100 232 100 258 c 0
 100 284 123 309 151 309 c 0
 176 309 202 287 202 258 c 0
 202 231 180 208 151 208 c 0
-121 718 m 2
 -181 718 -214 685 -214 625 c 2
 -214 -53 l 2
 -214 -113 -181 -136 -121 -136 c 2
 451 -136 l 2
 511 -136 534 -113 534 -53 c 2
 534 625 l 2
 534 685 511 718 451 718 c 2
 -121 718 l 2
630 -84 m 2
 630 -174 601 -212 511 -212 c 2
 -121 -212 l 2
 -211 -212 -250 -174 -250 -84 c 2
 -250 625 l 2
 -250 708 -202 754 -121 754 c 2
 481 754 l 2
 571 754 630 715 630 625 c 2
 630 -84 l 2
EndSplineSet
EndChar

StartChar: cedilla
Encoding: 184 184 313
Width: 541
VWidth: 999
Flags: HW
HStem: -158 19<241 314> -82 24<293 320>
VStem: 326 40<-132 -85>
DStem2: 256 -82 293 -60 0.397156 0.917751<34.5565 71.5>
AnchorPoint: "unten_anhang" 297 -16 mark 0
LayerCount: 3
Fore
SplineSet
-81 718 m 2
 -141 718 -174 685 -174 625 c 2
 -174 -53 l 2
 -174 -113 -141 -136 -81 -136 c 2
 491 -136 l 2
 551 -136 574 -113 574 -53 c 2
 574 625 l 2
 574 685 551 718 491 718 c 2
 -81 718 l 2
670 -84 m 2
 670 -174 641 -212 551 -212 c 2
 -81 -212 l 2
 -171 -212 -210 -174 -210 -84 c 2
 -210 625 l 2
 -210 708 -162 754 -81 754 c 2
 521 754 l 2
 611 754 670 715 670 625 c 2
 670 -84 l 2
270.2 117.4 m 2
 266.1 116 l 1
 255.7 126.4 l 1
 288.4 201 l 1
 329.4 201 l 1
 312.2 158.9 l 1
 314.8 159 317.4 159 320 159 c 0
 354 159 380 138.3 380 106 c 0
 380 69.4 342.2 45 293 45 c 0
 269.9 45 256.5 49.1 235.2 58.6 c 2
 228.9 61.4 l 1
 241.2 91.1 l 1
 247.6 88.5 l 2
 267.7 80.5 275.1 78 289 78 c 0
 309.4 78 327 87.6 327 102 c 0
 327 113 316.6 121 302 121 c 0
 287.8 121 281.2 121.1 270.2 117.4 c 2
EndSplineSet
Colour: ff00ff
EndChar

StartChar: one.superior
Encoding: 185 185 314
Width: 307
VWidth: 944
Flags: HW
HStem: 404 243
VStem: 143 40<406 595>
LayerCount: 3
Fore
SplineSet
143 500 m 2
 143 564 l 2
 143 588 143 596 134 596 c 0
 124 596 93 586 82 580 c 1
 75 602 l 1
 110 615 146 627 179 647 c 1
 184 647 l 2
 186 647 186 645 186 643 c 2
 186 643 184 617 184 595 c 2
 184 500 l 2
 184 460 184 435 189 404 c 1
 188 403 l 1
 188 403 182 404 163 404 c 0
 144 404 137 403 137 403 c 1
 136 404 l 1
 142 433 143 460 143 500 c 2
EndSplineSet
EndChar

StartChar: ordmasculine
Encoding: 186 186 315
Width: 349
VWidth: 914
Flags: HW
HStem: 336 21<148 212> 514 19<143 202>
VStem: 73 44<382 491> 234 43<379 490>
LayerCount: 3
Fore
SplineSet
73 430 m 0
 73 494 112 533 176 533 c 0
 250 533 277 485 277 435 c 0
 277 384 243 336 173 336 c 0
 117 336 73 376 73 430 c 0
172 514 m 0
 134 514 116 478 116 438 c 0
 116 401 136 357 181 357 c 0
 201 357 234 369 234 423 c 0
 234 483 210 514 172 514 c 0
EndSplineSet
EndChar

StartChar: guillemotright
Encoding: 187 187 316
Width: 536
VWidth: 999
Flags: HW
LayerCount: 3
Fore
SplineSet
-31 46 m 1
 -31 85 l 1
 2 134 38 176 76 207 c 1
 39 235 4 275 -31 329 c 1
 -31 368 l 1
 29 298 84 249 133 221 c 1
 133 193 l 1
 80 155 25 106 -31 46 c 1
104 46 m 1
 104 85 l 1
 138 134 174 176 212 207 c 1
 176 235 140 275 104 329 c 1
 104 368 l 1
 165 298 219 249 269 221 c 1
 269 193 l 1
 216 155 161 106 104 46 c 1
-181 718 m 2
 -241 718 -274 685 -274 625 c 2
 -274 -53 l 2
 -274 -113 -241 -136 -181 -136 c 2
 391 -136 l 2
 451 -136 474 -113 474 -53 c 2
 474 625 l 2
 474 685 451 718 391 718 c 2
 -181 718 l 2
570 -84 m 2
 570 -174 541 -212 451 -212 c 2
 -181 -212 l 2
 -271 -212 -310 -174 -310 -84 c 2
 -310 625 l 2
 -310 708 -262 754 -181 754 c 2
 421 754 l 2
 511 754 570 715 570 625 c 2
 570 -84 l 2
EndSplineSet
Substitution2: "'c2sc' Versale nach Kapitaelchen 1" guillemotright.sc
AlternateSubs2: "'aalt' Alle Alternativen zeigen 1" guillemotright.sc
Substitution2: "'case' Versalformen 1" guillemotright.sc
Colour: ff00ff
EndChar

StartChar: onequarter
Encoding: 188 188 317
Width: 660
VWidth: 999
Flags: HW
HStem: 78 26<415 485 526 558> 301 243
VStem: 196 40<302 492> 485 40<5 78 104 186>
DStem2: 162 24 193 18 0.573882 0.818938<13.1636 599.862> 374 87 415 104 0.576977 0.81676<37.2769 200.181>
LayerCount: 3
Fore
SplineSet
506 516 m 1
 536 510 l 1
 193 18 l 1
 162 24 l 1
 506 516 l 1
59 718 m 2
 -1 718 -34 685 -34 625 c 2
 -34 -53 l 2
 -34 -113 -1 -136 59 -136 c 2
 631 -136 l 2
 691 -136 714 -113 714 -53 c 2
 714 625 l 2
 714 685 691 718 631 718 c 2
 59 718 l 2
810 -84 m 2
 810 -174 781 -212 691 -212 c 2
 59 -212 l 2
 -31 -212 -70 -174 -70 -84 c 2
 -70 625 l 2
 -70 708 -22 754 59 754 c 2
 661 754 l 2
 751 754 810 715 810 625 c 2
 810 -84 l 2
480 -8 m 1
 484 15 486 37 486 66 c 1
 378 66 l 1
 375 75 l 1
 409 124 460 196 491 239 c 1
 514 231 l 1
 480 179 433 117 417 92 c 1
 486 92 l 1
 486 149 l 2
 486 154 490 160 492 162 c 0
 497 169 506 178 511 178 c 0
 516 178 527 177 527 170 c 2
 527 92 l 1
 564 92 l 1
 559 66 l 1
 527 66 l 1
 528 38 528 17 532 -8 c 1
 531 -10 l 1
 531 -10 525 -8 506 -8 c 0
 487 -8 480 -10 480 -10 c 1
 480 -8 l 1
201 403 m 2
 201 467 l 2
 201 491 201 499 192 499 c 0
 182 499 151 489 140 483 c 1
 133 505 l 1
 168 518 204 530 237 550 c 1
 242 550 l 2
 244 550 244 548 244 546 c 2
 244 546 242 520 242 498 c 2
 242 403 l 2
 242 363 242 338 247 307 c 1
 246 306 l 1
 246 306 240 307 221 307 c 0
 202 307 195 306 195 306 c 1
 194 307 l 1
 200 336 201 363 201 403 c 2
EndSplineSet
Ligature2: "'frac' Brueche 1" one slash four
LCarets2: 2 249 406 
Colour: ff80cc
EndChar

StartChar: onehalf
Encoding: 189 189 318
Width: 660
VWidth: 999
Flags: HW
HStem: 8 26<432 549> 233 18<430 489> 304 243
VStem: 193 40<305 495> 386 46<34 53> 388 37<176 227> 504 44<145 225>
DStem2: 139 27 170 21 0.573882 0.818938<12.7332 599.432>
LayerCount: 3
Fore
SplineSet
483 518 m 1
 514 512 l 1
 170 21 l 1
 139 27 l 1
 483 518 l 1
480 48 m 2
 516 48 525 49 546 51 c 1
 545 46 544 40 544 36 c 0
 544 31 545 25 546 21 c 1
 519 22 511 22 485 22 c 2
 380 22 l 1
 380 58 413.2 89.8 449 118 c 0
 482 144 499 162 499 202 c 0
 499 238 473 247 459 247 c 0
 427 247 419 235 419 226 c 0
 419 219 422 214 422 208 c 0
 422 196 409 190 402 190 c 0
 392 190 382 198 382 208 c 0
 382 227 403 265 462 265 c 0
 500 265 543 251 543 203 c 0
 543 168 518 144 476 114 c 0
 445 91 427 71 427 48 c 1
 480 48 l 2
172 393 m 2
 172 457 l 2
 172 481 172 489 163 489 c 0
 153 489 122 479 111 473 c 1
 104 495 l 1
 139 508 175 520 208 540 c 1
 213 540 l 2
 215 540 215 538 215 536 c 2
 215 536 213 510 213 488 c 2
 213 393 l 2
 213 353 213 328 218 297 c 1
 217 296 l 1
 217 296 211 297 192 297 c 0
 173 297 166 296 166 296 c 1
 165 297 l 1
 171 326 172 353 172 393 c 2
59 718 m 2
 -1 718 -34 685 -34 625 c 2
 -34 -53 l 2
 -34 -113 -1 -136 59 -136 c 2
 631 -136 l 2
 691 -136 714 -113 714 -53 c 2
 714 625 l 2
 714 685 691 718 631 718 c 2
 59 718 l 2
810 -84 m 2
 810 -174 781 -212 691 -212 c 2
 59 -212 l 2
 -31 -212 -70 -174 -70 -84 c 2
 -70 625 l 2
 -70 708 -22 754 59 754 c 2
 661 754 l 2
 751 754 810 715 810 625 c 2
 810 -84 l 2
EndSplineSet
LCarets2: 2 240 394 
Ligature2: "'frac' Brueche 1" one slash two
Colour: ff80cc
EndChar

StartChar: threequarters
Encoding: 190 190 319
Width: 660
VWidth: 999
Flags: HW
HStem: 80 26<418 488 528 560> 295 18<152 218> 422 18<172 186> 525 18<170 225>
VStem: 227 42<464 522> 248 44<335 412> 488 40<7 80 106 187>
DStem2: 165 24 196 18 0.573882 0.818938<13.1636 599.862> 376 89 418 106 0.576977 0.81676<37.2769 200.181>
LayerCount: 3
Fore
SplineSet
509 516 m 1
 540 510 l 1
 196 18 l 1
 165 24 l 1
 509 516 l 1
228 501 m 0
 228 524 212 531 198 531 c 0
 183 531 158 523 157 504 c 0
 156 496 155 483 137 483 c 0
 123 483 120 494 120 496 c 0
 120 509 142 549 207 549 c 0
 246 549 271 532 271 504 c 0
 271 483 254 466 233 454 c 1
 257 451 293 431 293 388 c 0
 293 336 243 301 183 301 c 0
 155 301 116 313 116 329 c 0
 116 336 126 344 134 344 c 0
 145 344 149 339 154 334 c 0
 160 326 167 320 191 320 c 0
 206 320 248 330 248 382 c 0
 248 424 208 430 190 430 c 0
 185 430 181 429 175 428 c 1
 173 446 l 1
 206 450 228 470 228 501 c 0
473 -46 m 1
 477 -23 479 -1 479 28 c 1
 371 28 l 1
 368 37 l 1
 402 86 453 158 484 201 c 1
 507 193 l 1
 473 141 426 79 410 54 c 1
 479 54 l 1
 479 111 l 2
 479 116 483 122 485 124 c 0
 490 131 499 140 504 140 c 0
 509 140 520 139 520 132 c 2
 520 54 l 1
 557 54 l 1
 552 28 l 1
 520 28 l 1
 521 0 521 -21 525 -46 c 1
 524 -48 l 1
 524 -48 518 -46 499 -46 c 0
 480 -46 473 -48 473 -48 c 1
 473 -46 l 1
59 718 m 2
 -1 718 -34 685 -34 625 c 2
 -34 -53 l 2
 -34 -113 -1 -136 59 -136 c 2
 631 -136 l 2
 691 -136 714 -113 714 -53 c 2
 714 625 l 2
 714 685 691 718 631 718 c 2
 59 718 l 2
810 -84 m 2
 810 -174 781 -212 691 -212 c 2
 59 -212 l 2
 -31 -212 -70 -174 -70 -84 c 2
 -70 625 l 2
 -70 708 -22 754 59 754 c 2
 661 754 l 2
 751 754 810 715 810 625 c 2
 810 -84 l 2
EndSplineSet
LCarets2: 2 283 423 
Ligature2: "'frac' Brueche 1" three slash four
Colour: ff80cc
EndChar

StartChar: questiondown
Encoding: 191 191 320
Width: 1100
VWidth: 999
Flags: HW
HStem: -138 37<165 251> 272 92<188 246>
VStem: 61 85<-80 26> 171 93<290 349> 200 34<122 226>
LayerCount: 3
Fore
SplineSet
464 74 m 0
 506 74 537 110 556 144 c 1
 566 143 l 1
 578 86 l 1
 576 83 l 1
 557 68 512 37 457 37 c 0
 381 37 319 82 319 150 c 0
 319 209 378 242 413 268 c 0
 435 284 458 305 458 360 c 2
 458 389 l 2
 458 395 469 401 475 401 c 0
 481 401 492 395 492 389 c 2
 492 359 l 2
 492 326 482.6 282.4 435 238 c 0
 405 210 404 188 404 153 c 0
 404 104 421 74 464 74 c 0
517 493 m 1
 517 490 l 1
 508 468 496 455 471 445 c 1
 469 445 l 1
 445 454 432 466 423 490 c 1
 423 493 l 1
 433 520 445 532 469 538 c 1
 471 538 l 1
 498 532 509 520 517 493 c 1
189 718 m 2
 129 718 96 685 96 625 c 2
 96 -53 l 2
 96 -113 129 -136 189 -136 c 2
 761 -136 l 2
 821 -136 844 -113 844 -53 c 2
 844 625 l 2
 844 685 821 718 761 718 c 2
 189 718 l 2
940 -84 m 2
 940 -174 911 -212 821 -212 c 2
 189 -212 l 2
 99 -212 60 -174 60 -84 c 2
 60 625 l 2
 60 708 108 754 189 754 c 2
 791 754 l 2
 881 754 940 715 940 625 c 2
 940 -84 l 2
EndSplineSet
Substitution2: "'c2sc' Versale nach Kapitaelchen 1" questiondown.sc
Substitution2: "'case' Versalformen 1" questiondown.sc
AlternateSubs2: "'aalt' Alle Alternativen zeigen 1" questiondown.sc
Colour: ff00ff
EndChar

